<svg width="42" height="37" viewBox="0 0 42 37" fill="none" xmlns="http://www.w3.org/2000/svg">
<path d="M20.997 0C22.1618 0 23.2364 0.615234 23.8271 1.62422L41.5458 31.8117C42.1446 32.8289 42.1446 34.084 41.5622 35.1012C40.9798 36.1184 39.8888 36.75 38.7157 36.75H3.27822C2.10518 36.75 1.01416 36.1184 0.431738 35.1012C-0.150684 34.084 -0.142481 32.8207 0.448144 31.8117L18.1669 1.62422C18.7575 0.615234 19.8321 0 20.997 0ZM20.997 10.5C19.906 10.5 19.0282 11.3777 19.0282 12.4688V21.6562C19.0282 22.7473 19.906 23.625 20.997 23.625C22.088 23.625 22.9657 22.7473 22.9657 21.6562V12.4688C22.9657 11.3777 22.088 10.5 20.997 10.5ZM23.622 28.875C23.622 28.1788 23.3454 27.5111 22.8531 27.0188C22.3608 26.5266 21.6932 26.25 20.997 26.25C20.3008 26.25 19.6331 26.5266 19.1408 27.0188C18.6485 27.5111 18.372 28.1788 18.372 28.875C18.372 29.5712 18.6485 30.2389 19.1408 30.7312C19.6331 31.2234 20.3008 31.5 20.997 31.5C21.6932 31.5 22.3608 31.2234 22.8531 30.7312C23.3454 30.2389 23.622 29.5712 23.622 28.875Z" fill="#FF0000"/>
</svg>
