<svg width="74" height="74" viewBox="0 0 74 74" fill="none" xmlns="http://www.w3.org/2000/svg">
<circle cx="37" cy="37" r="35.5" fill="#D9D9D9" stroke="#A6A6A6" stroke-width="3"/>
<path d="M37 37C39.7279 37 42.3442 35.9464 44.2731 34.0711C46.202 32.1957 47.2857 29.6522 47.2857 27C47.2857 24.3478 46.202 21.8043 44.2731 19.9289C42.3442 18.0536 39.7279 17 37 17C34.2721 17 31.6558 18.0536 29.7269 19.9289C27.798 21.8043 26.7143 24.3478 26.7143 27C26.7143 29.6522 27.798 32.1957 29.7269 34.0711C31.6558 35.9464 34.2721 37 37 37ZM33.3277 40.75C25.4125 40.75 19 46.9844 19 54.6797C19 55.9609 20.0688 57 21.3866 57H52.6134C53.9312 57 55 55.9609 55 54.6797C55 46.9844 48.5875 40.75 40.6723 40.75H33.3277Z" fill="black"/>
</svg>
