<svg width="1384" height="557" viewBox="0 0 1384 557" fill="none" xmlns="http://www.w3.org/2000/svg">
<rect width="1384" height="557" fill="#D9D9D9"/>
<path d="M552.76 232.152V261.464H592.312V270.552H552.76V311H541.88V223.192H595.128V232.152H552.76ZM680.664 266.712C680.664 245.08 669.4 230.872 648.664 230.872C627.288 230.872 616.536 244.952 616.536 266.712C616.536 288.344 627.672 303.32 648.536 303.32C670.808 303.32 680.664 288.088 680.664 266.712ZM691.8 266.712C691.8 294.232 675.928 312.28 648.536 312.28C619.992 312.28 605.4 293.336 605.4 266.712C605.4 239.32 620.76 221.912 648.664 221.912C676.568 221.912 691.8 239.704 691.8 266.712ZM733.347 232.152V311H722.339V232.152H693.795V223.192H761.763V232.152H733.347ZM842.789 266.712C842.789 245.08 831.525 230.872 810.789 230.872C789.413 230.872 778.661 244.952 778.661 266.712C778.661 288.344 789.797 303.32 810.661 303.32C832.933 303.32 842.789 288.088 842.789 266.712ZM853.925 266.712C853.925 294.232 838.053 312.28 810.661 312.28C782.117 312.28 767.525 293.336 767.525 266.712C767.525 239.32 782.885 221.912 810.789 221.912C838.693 221.912 853.925 239.704 853.925 266.712Z" fill="black"/>
</svg>
