<svg width="44" height="35" viewBox="0 0 44 35" fill="none" xmlns="http://www.w3.org/2000/svg">
<path d="M39.8614 18.2997C43.7457 14.4374 43.7457 8.18248 39.8614 4.32018C36.4239 0.902209 31.0064 0.457873 27.0532 3.26744L26.9432 3.34264C25.9532 4.04674 25.7264 5.41393 26.4345 6.39147C27.1426 7.36901 28.5176 7.60143 29.5007 6.89733L29.6107 6.82213C31.8176 5.2567 34.8357 5.5028 36.747 7.41002C38.9126 9.56334 38.9126 13.0497 36.747 15.203L29.0332 22.8866C26.8676 25.0399 23.3614 25.0399 21.1957 22.8866C19.2776 20.9794 19.0301 17.9784 20.6045 15.7909L20.6801 15.6815C21.3882 14.6971 21.1545 13.3299 20.1714 12.6327C19.1882 11.9354 17.8064 12.161 17.1051 13.1385L17.0295 13.2479C14.197 17.1717 14.6439 22.5585 18.0814 25.9764C21.9657 29.8387 28.2564 29.8387 32.1407 25.9764L39.8614 18.2997ZM4.13887 16.7001C0.254492 20.5624 0.254492 26.8172 4.13887 30.6796C7.57637 34.0975 12.9939 34.5419 16.947 31.7323L17.057 31.6571C18.047 30.953 18.2739 29.5858 17.5657 28.6083C16.8576 27.6307 15.4826 27.3983 14.4995 28.1024L14.3895 28.1776C12.1826 29.743 9.16449 29.4969 7.25324 27.5897C5.08762 25.4296 5.08762 21.9432 7.25324 19.7899L14.967 12.1131C17.1326 9.95983 20.6389 9.95983 22.8045 12.1131C24.7226 14.0204 24.9701 17.0214 23.3957 19.2157L23.3201 19.3251C22.612 20.3094 22.8457 21.6766 23.8289 22.3739C24.812 23.0712 26.1939 22.8456 26.8951 21.868L26.9707 21.7587C29.8032 17.828 29.3564 12.4413 25.9189 9.0233C22.0345 5.161 15.7439 5.161 11.8595 9.0233L4.13887 16.7001Z" fill="black"/>
</svg>
