<svg width="39" height="22" viewBox="0 0 39 22" fill="none" xmlns="http://www.w3.org/2000/svg">
<path d="M9 13.5L18.5 17L28 13.5V18.5C25.3597 20.3487 23.3672 21.0606 18.5 21.5C13.0099 21.1985 11.2539 20.6145 9 18.5V13.5Z" fill="black"/>
<path d="M18.5 13.5L36.5 7.5L18.5 1L2 7.5L18.5 13.5Z" fill="black"/>
<path d="M31.5 14.5H33V11.5H31.5V14.5Z" fill="black"/>
<path d="M9 13.5L18.5 17L28 13.5V18.5C25.3597 20.3487 23.3672 21.0606 18.5 21.5C13.0099 21.1985 11.2539 20.6145 9 18.5V13.5Z" stroke="black"/>
<path d="M18.5 13.5L36.5 7.5L18.5 1L2 7.5L18.5 13.5Z" stroke="black"/>
<path d="M31.5 14.5H33V11.5H31.5V14.5Z" stroke="black"/>
</svg>
