<svg width="591" height="611" viewBox="0 0 591 611" fill="none" xmlns="http://www.w3.org/2000/svg">
<path d="M394.023 205.57L294.61 5L195.198 205.57H394.023Z" stroke="#A318FF" stroke-width="4"/>
<path d="M397.582 213.46H191.638L99.0903 407.412H490.13L397.582 213.46Z" stroke="#A318FF" stroke-width="4"/>
<path d="M494.452 416.066H96.2935L4 609H587L494.452 416.066Z" stroke="#A318FF" stroke-width="4"/>
<path d="M293.442 158V138.36L287.842 142.4V134.2L295.202 129.4H302.162V158H293.442Z" fill="black"/>
<path d="M284.772 313V307.36C286.892 301.92 297.692 296.48 297.692 292.68C297.692 291.12 296.732 290.48 295.412 290.48C293.892 290.48 292.932 291.48 292.972 293.68L284.932 293C285.092 287.68 288.572 284 295.852 284C302.212 284 306.212 286.96 306.212 292.48C306.212 300.4 298.492 303.24 296.052 306.28H306.732V313H284.772Z" fill="black"/>
<path d="M306.228 504.08C306.228 509.32 302.468 512.4 295.068 512.4C285.188 512.4 284.068 506.6 283.988 503.44L292.028 502.84C292.188 505.28 293.588 505.92 295.028 505.92C296.708 505.92 297.708 504.96 297.708 503.32C297.708 501.08 296.308 500.32 293.788 500.32H291.948V494.88H293.628C296.188 494.88 297.228 493.68 297.228 491.68C297.228 490.32 296.468 489.4 294.988 489.4C293.628 489.4 292.708 490.32 292.748 492.04L284.708 491.68C285.108 485.48 289.388 483 295.468 483C303.108 483 305.508 486.92 305.508 490.96C305.508 493.96 304.268 496.48 301.108 497.28C304.228 497.92 306.228 500.64 306.228 504.08Z" fill="black"/>
</svg>
