<svg width="367" height="173" viewBox="0 0 367 173" fill="none" xmlns="http://www.w3.org/2000/svg">
<path d="M50.548 84.55L4 171L317.025 171L364 84.55L317.025 2L3.99999 2.00002L50.548 84.55Z" stroke="#A318FF" stroke-width="4"/>
<path d="M74.0364 44V26.84H82.9644L84.7164 34.664C85.0524 36.152 85.2684 37.352 85.3164 37.52C85.3164 37.4 85.4604 36.176 85.7964 34.64L87.3804 26.84H96.6444V44H90.7644V35.384C90.7644 34.208 90.7164 32.696 90.7164 32.696C90.7164 32.696 90.4764 34.112 90.1884 35.336L88.1964 44H82.4364L80.2524 35.6C79.9884 34.568 79.7244 33.32 79.6764 33.128C79.6764 33.224 79.7244 34.496 79.7244 35.624V44H74.0364ZM112.835 40.496V44.12C111.899 44.192 111.011 44.24 109.907 44.24C107.795 44.24 106.451 43.592 106.187 41.792C105.707 43.448 104.267 44.24 102.251 44.24C98.8674 44.24 97.8834 42.104 97.8834 40.328C97.8834 37.328 100.211 36.08 104.411 36.08H105.707V35.288C105.707 34.232 105.347 34.016 104.771 34.016C104.195 34.016 103.811 34.28 103.715 35.456L98.5314 35.096C98.6754 32.768 100.259 30.56 104.987 30.56C109.475 30.56 111.347 32.384 111.347 35.792V39.752C111.347 40.16 111.491 40.496 112.019 40.496H112.835ZM105.731 39.248L105.707 38.456H104.891C103.883 38.456 103.475 38.936 103.475 39.608C103.475 40.208 103.835 40.712 104.555 40.712C105.395 40.712 105.731 40.184 105.731 39.248ZM123.889 35.528C123.529 35.48 123.169 35.48 123.169 35.48C121.273 35.48 120.025 36.248 120.025 38.24V44H113.929V34.136C113.929 33.296 113.881 31.688 113.833 30.824H118.969C119.065 31.616 119.185 32.816 119.281 34.064C119.569 31.832 120.817 30.56 123.193 30.56H123.889V35.528ZM129.381 44.24C125.781 44.24 124.725 41.312 124.725 37.328C124.725 32.408 126.429 30.56 129.645 30.56C131.301 30.56 132.621 31.112 133.053 32.888C133.101 31.952 133.125 31.352 133.173 30.824H138.957C138.933 31.472 138.909 32.432 138.909 33.272V49.712H132.885V41.984C132.549 43.4 131.661 44.24 129.381 44.24ZM131.829 40.328C132.645 40.328 132.933 39.56 132.933 37.256C132.933 35 132.549 34.472 131.829 34.472C130.869 34.472 130.677 35.6 130.677 37.304C130.677 39.608 131.037 40.328 131.829 40.328ZM146.644 30.824V38.432C146.644 39.08 146.74 39.8 147.484 39.8C148.42 39.8 148.564 38.864 148.564 37.16V30.824H154.396V40.856C154.396 41.96 154.42 42.704 154.468 44H149.044C148.948 43.016 148.852 42.176 148.804 41.312C148.3 43.688 146.26 44.24 144.844 44.24C141.316 44.24 140.74 41.576 140.74 40.088V30.824H146.644ZM163.119 44.24C157.623 44.24 156.039 40.76 156.039 37.376C156.039 32.432 159.255 30.56 163.047 30.56C167.535 30.56 169.983 33.2 169.983 37.04C169.983 37.832 169.935 38.456 169.935 38.456H161.967V38.768C161.967 40.112 162.327 40.784 163.071 40.784C163.815 40.784 164.175 40.232 164.223 39.272L169.839 39.536C169.503 41.792 167.991 44.24 163.119 44.24ZM161.967 35.648V35.912H164.151V35.696C164.151 34.04 163.671 33.776 163.047 33.776C162.447 33.776 161.967 34.112 161.967 35.648ZM191.515 40.496V44.12C190.579 44.192 189.691 44.24 188.587 44.24C186.475 44.24 185.131 43.592 184.867 41.792C184.387 43.448 182.947 44.24 180.931 44.24C177.547 44.24 176.563 42.104 176.563 40.328C176.563 37.328 178.891 36.08 183.091 36.08H184.387V35.288C184.387 34.232 184.027 34.016 183.451 34.016C182.875 34.016 182.491 34.28 182.395 35.456L177.211 35.096C177.355 32.768 178.939 30.56 183.667 30.56C188.155 30.56 190.027 32.384 190.027 35.792V39.752C190.027 40.16 190.171 40.496 190.699 40.496H191.515ZM184.411 39.248L184.387 38.456H183.571C182.563 38.456 182.155 38.936 182.155 39.608C182.155 40.208 182.515 40.712 183.235 40.712C184.075 40.712 184.411 40.184 184.411 39.248ZM198.044 44V26.84H206.972L208.724 34.664C209.06 36.152 209.276 37.352 209.324 37.52C209.324 37.4 209.468 36.176 209.804 34.64L211.388 26.84H220.652V44H214.772V35.384C214.772 34.208 214.724 32.696 214.724 32.696C214.724 32.696 214.484 34.112 214.196 35.336L212.204 44H206.444L204.26 35.6C203.996 34.568 203.732 33.32 203.684 33.128C203.684 33.224 203.732 34.496 203.732 35.624V44H198.044ZM229.283 44.24C223.787 44.24 222.203 40.76 222.203 37.376C222.203 32.432 225.419 30.56 229.211 30.56C233.699 30.56 236.147 33.2 236.147 37.04C236.147 37.832 236.099 38.456 236.099 38.456H228.131V38.768C228.131 40.112 228.491 40.784 229.235 40.784C229.979 40.784 230.339 40.232 230.387 39.272L236.003 39.536C235.667 41.792 234.155 44.24 229.283 44.24ZM228.131 35.648V35.912H230.315V35.696C230.315 34.04 229.835 33.776 229.211 33.776C228.611 33.776 228.131 34.112 228.131 35.648ZM237.724 44V25.016H243.7V44H237.724ZM251.458 32.144C251.458 31.904 251.41 32.6 251.386 33.272C252.034 31.232 253.714 30.56 255.226 30.56C257.482 30.56 259.306 31.712 259.306 35.12V44H253.306V36.608C253.306 35.432 253.138 35.072 252.538 35.072C251.578 35.072 251.41 36.248 251.41 37.28V44H245.482V25.016H251.458V32.144ZM269.083 37.232C269.083 35.072 268.675 34.448 267.907 34.448C267.091 34.448 266.755 35.072 266.755 37.208C266.755 39.416 267.019 40.352 267.955 40.352C268.867 40.352 269.083 39.416 269.083 37.232ZM275.083 37.328C275.083 41.408 272.995 44.24 267.955 44.24C262.939 44.24 260.803 41.36 260.803 37.328C260.803 33.128 263.131 30.56 267.907 30.56C272.779 30.56 275.083 33.08 275.083 37.328ZM286.616 35.528C286.256 35.48 285.896 35.48 285.896 35.48C284 35.48 282.752 36.248 282.752 38.24V44H276.656V34.136C276.656 33.296 276.608 31.688 276.56 30.824H281.696C281.792 31.616 281.912 32.816 282.008 34.064C282.296 31.832 283.544 30.56 285.92 30.56H286.616V35.528Z" fill="black"/>
<path d="M69.3681 71.22C69.3681 73.52 67.7281 75.2 64.1081 75.2C60.9281 75.2 59.1881 73.94 58.6481 71.7L60.3281 71.38C60.7081 72.84 61.4881 73.86 64.1481 73.86C66.4481 73.86 67.6881 73.06 67.6881 71.32C67.6881 69.48 66.2681 69.18 63.7481 68.6C61.4681 68.08 59.3081 67.4 59.3081 64.7C59.3081 62.14 61.5481 61.08 64.1281 61.08C67.1681 61.08 68.4481 62.18 69.0481 64.22L67.3481 64.52C66.9681 63.14 66.3281 62.4 64.0081 62.4C61.9281 62.4 61.0281 63.36 61.0281 64.64C61.0281 66.34 62.4481 66.64 64.5081 67.16C67.0481 67.8 69.3681 68.28 69.3681 71.22ZM76.2997 75.2C73.1997 75.2 71.6797 73.28 71.6797 69.66C71.6797 65.84 73.6397 64.28 76.2597 64.28C79.7597 64.28 80.6397 66.56 80.6397 69.32C80.6397 69.52 80.6197 69.84 80.5997 70.06H73.3997V70.08C73.3997 72.34 74.1797 73.98 76.3397 73.98C78.0197 73.98 78.6197 73.34 78.9997 72.32L80.3797 72.72C79.8997 73.9 79.0397 75.2 76.2997 75.2ZM76.2597 65.48C74.8597 65.48 73.5197 66.2 73.3997 68.82H78.9397V68.68C78.9397 66.48 78.0597 65.48 76.2597 65.48ZM83.3944 75V59.44H85.0144V75H83.3944ZM92.2958 75.2C89.1958 75.2 87.6758 73.28 87.6758 69.66C87.6758 65.84 89.6358 64.28 92.2558 64.28C95.7558 64.28 96.6358 66.56 96.6358 69.32C96.6358 69.52 96.6158 69.84 96.5958 70.06H89.3958V70.08C89.3958 72.34 90.1758 73.98 92.3358 73.98C94.0158 73.98 94.6158 73.34 94.9958 72.32L96.3758 72.72C95.8958 73.9 95.0358 75.2 92.2958 75.2ZM92.2558 65.48C90.8558 65.48 89.5158 66.2 89.3958 68.82H94.9358V68.68C94.9358 66.48 94.0558 65.48 92.2558 65.48ZM103.25 75.2C99.9505 75.2 98.7305 72.82 98.7305 69.7C98.7305 65.54 100.95 64.28 103.23 64.28C105.59 64.28 106.87 65.62 107.21 67.4L105.55 67.5C105.35 66.3 104.59 65.56 103.19 65.56C101.17 65.56 100.43 66.88 100.43 69.66C100.43 72.16 101.11 73.9 103.21 73.9C104.53 73.9 105.43 73.18 105.65 71.76L107.27 71.88C107.03 73.58 105.75 75.2 103.25 75.2ZM110.017 75V64.48H111.617V75H110.017ZM109.937 62.3V60.5H111.697V62.3H109.937ZM121.995 69.62C121.995 66.56 120.915 65.48 119.035 65.48C117.215 65.48 116.055 66.48 116.055 69.62C116.055 72.86 117.415 74 119.015 74C120.835 74 121.995 72.88 121.995 69.62ZM123.695 69.7C123.695 73.46 121.915 75.2 118.935 75.2C116.235 75.2 114.355 73.52 114.355 69.66C114.355 66.02 116.095 64.28 119.055 64.28C122.155 64.28 123.695 66.06 123.695 69.7ZM133.103 75V68.26C133.103 66.18 132.463 65.52 130.843 65.52C129.143 65.52 128.023 66.74 128.023 68.92V75H126.403V66.74C126.403 66.04 126.363 64.48 126.363 64.48H127.863C127.863 65 127.903 65.76 127.903 66.54C128.383 65.12 129.383 64.28 131.303 64.28C133.583 64.28 134.723 65.34 134.723 67.96V75H133.103ZM141.944 75.2C138.844 75.2 137.324 73.28 137.324 69.66C137.324 65.84 139.284 64.28 141.904 64.28C145.404 64.28 146.284 66.56 146.284 69.32C146.284 69.52 146.264 69.84 146.244 70.06H139.044V70.08C139.044 72.34 139.824 73.98 141.984 73.98C143.664 73.98 144.264 73.34 144.644 72.32L146.024 72.72C145.544 73.9 144.684 75.2 141.944 75.2ZM141.904 65.48C140.504 65.48 139.164 66.2 139.044 68.82H144.584V68.68C144.584 66.48 143.704 65.48 141.904 65.48ZM163.439 73.9V75.14C163.059 75.18 162.639 75.2 162.079 75.2C161.039 75.2 160.359 74.6 160.359 73.5V72.98C159.819 74.68 158.479 75.2 156.919 75.2C154.639 75.2 153.579 73.72 153.579 72.04C153.579 69.56 155.259 68.66 158.319 68.66H160.299V67.8C160.299 66.22 159.479 65.52 157.979 65.52C156.639 65.52 155.879 65.98 155.659 67.28L154.059 67.1C154.319 65.54 155.319 64.28 158.059 64.28C160.519 64.28 161.879 65.5 161.879 67.86V73.18C161.879 73.72 162.059 73.9 162.499 73.9H163.439ZM157.299 74C159.679 74 160.299 72.18 160.299 70.54V69.78H158.299C156.459 69.78 155.179 70.26 155.179 71.94C155.179 73.08 155.859 74 157.299 74ZM175.579 65.82C175.279 65.8 175.079 65.8 174.879 65.8C173.099 65.8 172.379 67.34 172.379 68.76V75H170.759V66.92L170.699 64.48H172.239L172.319 66.56C172.619 65.16 173.539 64.3 175.019 64.3C175.119 64.3 175.279 64.3 175.579 64.32V65.82ZM181.71 75.2C178.61 75.2 177.09 73.28 177.09 69.66C177.09 65.84 179.05 64.28 181.67 64.28C185.17 64.28 186.05 66.56 186.05 69.32C186.05 69.52 186.03 69.84 186.01 70.06H178.81V70.08C178.81 72.34 179.59 73.98 181.75 73.98C183.43 73.98 184.03 73.34 184.41 72.32L185.79 72.72C185.31 73.9 184.45 75.2 181.71 75.2ZM181.67 65.48C180.27 65.48 178.93 66.2 178.81 68.82H184.35V68.68C184.35 66.48 183.47 65.48 181.67 65.48ZM196.185 72.12C196.185 74.1 194.825 75.2 192.145 75.2C189.925 75.2 188.405 74.48 187.945 72.54L189.445 72.24C189.725 73.22 190.565 74 192.125 74C193.605 74 194.625 73.54 194.625 72.24C194.625 71.02 193.605 70.74 191.765 70.3C189.465 69.74 188.385 68.84 188.385 67.16C188.385 65.32 189.885 64.28 192.045 64.28C194.205 64.28 195.605 65.08 195.965 66.86L194.485 67.04C194.245 65.96 193.385 65.5 192.045 65.5C190.805 65.5 189.945 66.06 189.945 66.92C189.945 67.94 190.525 68.4 192.645 68.94C194.345 69.38 196.185 69.88 196.185 72.12ZM207.646 69.68C207.646 72.94 206.666 75.2 203.766 75.2C202.126 75.2 200.906 74.6 200.386 73.1C200.406 73.58 200.426 74.34 200.426 74.76V79.64H198.806V66.72C198.806 65.64 198.786 65.2 198.746 64.48H200.326C200.346 65.02 200.386 65.9 200.386 66.58C200.786 65.16 201.926 64.28 203.766 64.28C206.626 64.28 207.646 66.36 207.646 69.68ZM205.966 69.7C205.966 66.98 205.286 65.52 203.346 65.52C201.726 65.52 200.426 66.32 200.426 69.82C200.426 72.9 201.466 74 203.326 74C205.306 74 205.966 72.5 205.966 69.7ZM217.288 69.62C217.288 66.56 216.208 65.48 214.328 65.48C212.508 65.48 211.348 66.48 211.348 69.62C211.348 72.86 212.708 74 214.308 74C216.128 74 217.288 72.88 217.288 69.62ZM218.988 69.7C218.988 73.46 217.208 75.2 214.228 75.2C211.528 75.2 209.648 73.52 209.648 69.66C209.648 66.02 211.388 64.28 214.348 64.28C217.448 64.28 218.988 66.06 218.988 69.7ZM228.841 72.12C228.841 74.1 227.481 75.2 224.801 75.2C222.581 75.2 221.061 74.48 220.601 72.54L222.101 72.24C222.381 73.22 223.221 74 224.781 74C226.261 74 227.281 73.54 227.281 72.24C227.281 71.02 226.261 70.74 224.421 70.3C222.121 69.74 221.041 68.84 221.041 67.16C221.041 65.32 222.541 64.28 224.701 64.28C226.861 64.28 228.261 65.08 228.621 66.86L227.141 67.04C226.901 65.96 226.041 65.5 224.701 65.5C223.461 65.5 222.601 66.06 222.601 66.92C222.601 67.94 223.181 68.4 225.301 68.94C227.001 69.38 228.841 69.88 228.841 72.12ZM230.542 65.7V64.48H231.802V61.42H233.422V64.48H235.402V65.7H233.422V72.8C233.422 73.46 233.642 73.82 234.422 73.82H235.582V75.18H233.622C232.462 75.18 231.802 74.3 231.802 73.14V65.7H230.542ZM247.638 73.9V75.14C247.258 75.18 246.838 75.2 246.278 75.2C245.238 75.2 244.558 74.6 244.558 73.5V72.98C244.018 74.68 242.678 75.2 241.118 75.2C238.838 75.2 237.778 73.72 237.778 72.04C237.778 69.56 239.458 68.66 242.518 68.66H244.498V67.8C244.498 66.22 243.678 65.52 242.178 65.52C240.838 65.52 240.078 65.98 239.858 67.28L238.258 67.1C238.518 65.54 239.518 64.28 242.258 64.28C244.718 64.28 246.078 65.5 246.078 67.86V73.18C246.078 73.72 246.258 73.9 246.698 73.9H247.638ZM241.498 74C243.878 74 244.498 72.18 244.498 70.54V69.78H242.498C240.658 69.78 239.378 70.26 239.378 71.94C239.378 73.08 240.058 74 241.498 74ZM258.138 75.2C255.438 75.2 254.238 73.38 254.238 69.76C254.238 66.08 255.538 64.28 258.138 64.28C259.938 64.28 260.878 64.94 261.478 66.24H261.498C261.498 65.84 261.558 65.1 261.598 64.48H263.138C263.118 65.38 263.078 66.52 263.078 67.24L263.098 79.64H261.478V73.66L261.498 73.22C260.818 74.6 259.818 75.2 258.138 75.2ZM258.558 73.94C260.178 73.94 261.458 73.06 261.458 69.58C261.458 66.44 260.338 65.48 258.558 65.48C256.738 65.48 255.938 66.76 255.938 69.7C255.938 72.64 256.678 73.94 258.558 73.94ZM268.021 64.48V71.2C268.021 73.28 268.621 73.94 270.261 73.94C271.981 73.94 273.101 72.72 273.101 70.58V64.48H274.721V72.76C274.721 73.52 274.741 74.1 274.761 75H273.221L273.121 73.06C272.661 74.24 271.721 75.2 269.721 75.2C267.421 75.2 266.401 74.12 266.401 71.52V64.48H268.021ZM282.042 75.2C278.942 75.2 277.422 73.28 277.422 69.66C277.422 65.84 279.382 64.28 282.002 64.28C285.502 64.28 286.382 66.56 286.382 69.32C286.382 69.52 286.362 69.84 286.342 70.06H279.142V70.08C279.142 72.34 279.922 73.98 282.082 73.98C283.762 73.98 284.362 73.34 284.742 72.32L286.122 72.72C285.642 73.9 284.782 75.2 282.042 75.2ZM282.002 65.48C280.602 65.48 279.262 66.2 279.142 68.82H284.682V68.68C284.682 66.48 283.802 65.48 282.002 65.48ZM298.417 75H296.537L292.677 64.48H294.357L296.817 71.54C297.177 72.58 297.497 73.72 297.497 73.72C297.497 73.72 297.797 72.58 298.157 71.5L300.537 64.48H302.217L298.417 75ZM311.058 69.62C311.058 66.56 309.978 65.48 308.098 65.48C306.278 65.48 305.118 66.48 305.118 69.62C305.118 72.86 306.478 74 308.078 74C309.898 74 311.058 72.88 311.058 69.62ZM312.758 69.7C312.758 73.46 310.978 75.2 307.998 75.2C305.298 75.2 303.418 73.52 303.418 69.66C303.418 66.02 305.158 64.28 308.118 64.28C311.218 64.28 312.758 66.06 312.758 69.7ZM319.286 75.2C315.986 75.2 314.766 72.82 314.766 69.7C314.766 65.54 316.986 64.28 319.266 64.28C321.626 64.28 322.906 65.62 323.246 67.4L321.586 67.5C321.386 66.3 320.626 65.56 319.226 65.56C317.206 65.56 316.466 66.88 316.466 69.66C316.466 72.16 317.146 73.9 319.246 73.9C320.566 73.9 321.466 73.18 321.686 71.76L323.306 71.88C323.066 73.58 321.786 75.2 319.286 75.2ZM329.737 75.2C326.637 75.2 325.117 73.28 325.117 69.66C325.117 65.84 327.077 64.28 329.697 64.28C333.197 64.28 334.077 66.56 334.077 69.32C334.077 69.52 334.057 69.84 334.037 70.06H326.837V70.08C326.837 72.34 327.617 73.98 329.777 73.98C331.457 73.98 332.057 73.34 332.437 72.32L333.817 72.72C333.337 73.9 332.477 75.2 329.737 75.2ZM329.697 65.48C328.297 65.48 326.957 66.2 326.837 68.82H332.377V68.68C332.377 66.48 331.497 65.48 329.697 65.48ZM332.997 63.28V63.3H331.477L329.737 61.66H329.717L327.857 63.3H326.297V63.28L328.737 60.52H330.697L332.997 63.28ZM71.5513 94.2C68.2513 94.2 67.0313 91.82 67.0313 88.7C67.0313 84.54 69.2513 83.28 71.5313 83.28C73.8913 83.28 75.1713 84.62 75.5113 86.4L73.8513 86.5C73.6513 85.3 72.8913 84.56 71.4913 84.56C69.4713 84.56 68.7313 85.88 68.7313 88.66C68.7313 91.16 69.4113 92.9 71.5113 92.9C72.8313 92.9 73.7313 92.18 73.9513 90.76L75.5713 90.88C75.3313 92.58 74.0513 94.2 71.5513 94.2ZM85.0228 88.62C85.0228 85.56 83.9428 84.48 82.0628 84.48C80.2428 84.48 79.0828 85.48 79.0828 88.62C79.0828 91.86 80.4428 93 82.0428 93C83.8628 93 85.0228 91.88 85.0228 88.62ZM86.7228 88.7C86.7228 92.46 84.9428 94.2 81.9628 94.2C79.2628 94.2 77.3828 92.52 77.3828 88.66C77.3828 85.02 79.1228 83.28 82.0828 83.28C85.1828 83.28 86.7228 85.06 86.7228 88.7ZM96.1305 94V87.26C96.1305 85.18 95.4905 84.52 93.8705 84.52C92.1705 84.52 91.0505 85.74 91.0505 87.92V94H89.4305V85.74C89.4305 85.04 89.3905 83.48 89.3905 83.48H90.8905C90.8905 84 90.9305 84.76 90.9305 85.54C91.4105 84.12 92.4105 83.28 94.3305 83.28C96.6105 83.28 97.7505 84.34 97.7505 86.96V94H96.1305ZM108.392 91.12C108.392 93.1 107.032 94.2 104.352 94.2C102.132 94.2 100.612 93.48 100.152 91.54L101.652 91.24C101.932 92.22 102.772 93 104.332 93C105.812 93 106.832 92.54 106.832 91.24C106.832 90.02 105.812 89.74 103.972 89.3C101.672 88.74 100.592 87.84 100.592 86.16C100.592 84.32 102.092 83.28 104.252 83.28C106.412 83.28 107.812 84.08 108.172 85.86L106.692 86.04C106.452 84.96 105.592 84.5 104.252 84.5C103.012 84.5 102.152 85.06 102.152 85.92C102.152 86.94 102.732 87.4 104.852 87.94C106.552 88.38 108.392 88.88 108.392 91.12ZM111.033 94V83.48H112.633V94H111.033ZM110.953 81.3V79.5H112.713V81.3H110.953ZM119.251 94.2C116.611 94.2 115.371 92.44 115.371 88.76C115.371 85.06 116.711 83.28 119.391 83.28C120.831 83.28 122.131 83.96 122.611 85.28C122.591 84.74 122.591 84.2 122.591 83.76V78.44H124.211V91.84C124.211 92.4 124.251 93.28 124.291 94H122.691C122.671 93.56 122.631 92.74 122.631 92C122.191 93.36 121.231 94.2 119.251 94.2ZM119.671 92.94C121.471 92.94 122.591 91.76 122.591 88.58C122.591 85.58 121.531 84.48 119.691 84.48C117.931 84.48 117.051 85.86 117.051 88.7C117.051 91.56 117.831 92.94 119.671 92.94ZM131.573 94.2C128.473 94.2 126.953 92.28 126.953 88.66C126.953 84.84 128.913 83.28 131.533 83.28C135.033 83.28 135.913 85.56 135.913 88.32C135.913 88.52 135.893 88.84 135.873 89.06H128.673V89.08C128.673 91.34 129.453 92.98 131.613 92.98C133.293 92.98 133.893 92.34 134.273 91.32L135.653 91.72C135.173 92.9 134.313 94.2 131.573 94.2ZM131.533 84.48C130.133 84.48 128.793 85.2 128.673 87.82H134.213V87.68C134.213 85.48 133.333 84.48 131.533 84.48ZM143.548 84.82C143.248 84.8 143.048 84.8 142.848 84.8C141.068 84.8 140.348 86.34 140.348 87.76V94H138.728V85.92L138.668 83.48H140.208L140.288 85.56C140.588 84.16 141.508 83.3 142.988 83.3C143.088 83.3 143.248 83.3 143.548 83.32V84.82ZM154.923 92.9V94.14C154.543 94.18 154.123 94.2 153.563 94.2C152.523 94.2 151.843 93.6 151.843 92.5V91.98C151.303 93.68 149.963 94.2 148.403 94.2C146.123 94.2 145.063 92.72 145.063 91.04C145.063 88.56 146.743 87.66 149.803 87.66H151.783V86.8C151.783 85.22 150.963 84.52 149.463 84.52C148.123 84.52 147.363 84.98 147.143 86.28L145.543 86.1C145.803 84.54 146.803 83.28 149.543 83.28C152.003 83.28 153.363 84.5 153.363 86.86V92.18C153.363 92.72 153.543 92.9 153.983 92.9H154.923ZM148.783 93C151.163 93 151.783 91.18 151.783 89.54V88.78H149.783C147.943 88.78 146.663 89.26 146.663 90.94C146.663 92.08 147.343 93 148.783 93ZM171.583 92.9V94.14C171.203 94.18 170.783 94.2 170.223 94.2C169.183 94.2 168.503 93.6 168.503 92.5V91.98C167.963 93.68 166.623 94.2 165.063 94.2C162.783 94.2 161.723 92.72 161.723 91.04C161.723 88.56 163.403 87.66 166.463 87.66H168.443V86.8C168.443 85.22 167.623 84.52 166.123 84.52C164.783 84.52 164.023 84.98 163.803 86.28L162.203 86.1C162.463 84.54 163.463 83.28 166.203 83.28C168.663 83.28 170.023 84.5 170.023 86.86V92.18C170.023 92.72 170.203 92.9 170.643 92.9H171.583ZM165.443 93C167.823 93 168.443 91.18 168.443 89.54V88.78H166.443C164.603 88.78 163.323 89.26 163.323 90.94C163.323 92.08 164.003 93 165.443 93ZM185.024 94V87.26C185.024 85.14 184.484 84.5 183.024 84.5C181.624 84.5 180.504 85.76 180.504 87.9V94H178.884V85.7C178.884 84.96 178.864 84.1 178.844 83.48H180.344C180.344 83.9 180.384 84.76 180.384 85.54C180.824 84.26 181.744 83.28 183.564 83.28C185.464 83.28 186.224 84.14 186.444 85.44C187.044 83.94 188.344 83.28 189.684 83.28C191.804 83.28 192.724 84.3 192.724 86.94V94H191.124V87.26C191.124 85.14 190.604 84.54 189.124 84.54C187.624 84.54 186.624 85.7 186.624 87.9V94H185.024ZM205.392 92.9V94.14C205.012 94.18 204.592 94.2 204.032 94.2C202.992 94.2 202.312 93.6 202.312 92.5V91.98C201.772 93.68 200.432 94.2 198.872 94.2C196.592 94.2 195.532 92.72 195.532 91.04C195.532 88.56 197.212 87.66 200.272 87.66H202.252V86.8C202.252 85.22 201.432 84.52 199.932 84.52C198.592 84.52 197.832 84.98 197.612 86.28L196.012 86.1C196.272 84.54 197.272 83.28 200.012 83.28C202.472 83.28 203.832 84.5 203.832 86.86V92.18C203.832 92.72 204.012 92.9 204.452 92.9H205.392ZM199.252 93C201.632 93 202.252 91.18 202.252 89.54V88.78H200.252C198.412 88.78 197.132 89.26 197.132 90.94C197.132 92.08 197.812 93 199.252 93ZM207.732 94V83.48H209.332V94H207.732ZM207.652 81.3V79.5H209.412V81.3H207.652ZM220.11 91.12C220.11 93.1 218.75 94.2 216.07 94.2C213.85 94.2 212.33 93.48 211.87 91.54L213.37 91.24C213.65 92.22 214.49 93 216.05 93C217.53 93 218.55 92.54 218.55 91.24C218.55 90.02 217.53 89.74 215.69 89.3C213.39 88.74 212.31 87.84 212.31 86.16C212.31 84.32 213.81 83.28 215.97 83.28C218.13 83.28 219.53 84.08 219.89 85.86L218.41 86.04C218.17 84.96 217.31 84.5 215.97 84.5C214.73 84.5 213.87 85.06 213.87 85.92C213.87 86.94 214.45 87.4 216.57 87.94C218.27 88.38 220.11 88.88 220.11 91.12ZM231.532 94.2C228.232 94.2 227.012 91.82 227.012 88.7C227.012 84.54 229.232 83.28 231.512 83.28C233.872 83.28 235.152 84.62 235.492 86.4L233.832 86.5C233.632 85.3 232.872 84.56 231.472 84.56C229.452 84.56 228.712 85.88 228.712 88.66C228.712 91.16 229.392 92.9 231.492 92.9C232.812 92.9 233.712 92.18 233.932 90.76L235.552 90.88C235.312 92.58 234.032 94.2 231.532 94.2ZM245.003 88.62C245.003 85.56 243.923 84.48 242.043 84.48C240.223 84.48 239.063 85.48 239.063 88.62C239.063 91.86 240.423 93 242.023 93C243.843 93 245.003 91.88 245.003 88.62ZM246.703 88.7C246.703 92.46 244.923 94.2 241.943 94.2C239.243 94.2 237.363 92.52 237.363 88.66C237.363 85.02 239.103 83.28 242.063 83.28C245.163 83.28 246.703 85.06 246.703 88.7ZM255.551 94V87.26C255.551 85.14 255.011 84.5 253.551 84.5C252.151 84.5 251.031 85.76 251.031 87.9V94H249.411V85.7C249.411 84.96 249.391 84.1 249.371 83.48H250.871C250.871 83.9 250.911 84.76 250.911 85.54C251.351 84.26 252.271 83.28 254.091 83.28C255.991 83.28 256.751 84.14 256.971 85.44C257.571 83.94 258.871 83.28 260.211 83.28C262.331 83.28 263.251 84.3 263.251 86.94V94H261.651V87.26C261.651 85.14 261.131 84.54 259.651 84.54C258.151 84.54 257.151 85.7 257.151 87.9V94H255.551ZM275.419 88.68C275.419 91.94 274.439 94.2 271.539 94.2C269.899 94.2 268.679 93.6 268.159 92.1C268.179 92.58 268.199 93.34 268.199 93.76V98.64H266.579V85.72C266.579 84.64 266.559 84.2 266.519 83.48H268.099C268.119 84.02 268.159 84.9 268.159 85.58C268.559 84.16 269.699 83.28 271.539 83.28C274.399 83.28 275.419 85.36 275.419 88.68ZM273.739 88.7C273.739 85.98 273.059 84.52 271.119 84.52C269.499 84.52 268.199 85.32 268.199 88.82C268.199 91.9 269.239 93 271.099 93C273.079 93 273.739 91.5 273.739 88.7ZM278.082 94V78.44H279.702V94H278.082ZM286.983 94.2C283.883 94.2 282.363 92.28 282.363 88.66C282.363 84.84 284.323 83.28 286.943 83.28C290.443 83.28 291.323 85.56 291.323 88.32C291.323 88.52 291.303 88.84 291.283 89.06H284.083V89.08C284.083 91.34 284.863 92.98 287.023 92.98C288.703 92.98 289.303 92.34 289.683 91.32L291.063 91.72C290.583 92.9 289.723 94.2 286.983 94.2ZM286.943 84.48C285.543 84.48 284.203 85.2 284.083 87.82H289.623V87.68C289.623 85.48 288.743 84.48 286.943 84.48ZM293.218 84.7V83.48H294.478V80.42H296.098V83.48H298.078V84.7H296.098V91.8C296.098 92.46 296.318 92.82 297.098 92.82H298.258V94.18H296.298C295.138 94.18 294.478 93.3 294.478 92.14V84.7H293.218ZM310.314 92.9V94.14C309.934 94.18 309.514 94.2 308.954 94.2C307.914 94.2 307.234 93.6 307.234 92.5V91.98C306.694 93.68 305.354 94.2 303.794 94.2C301.514 94.2 300.454 92.72 300.454 91.04C300.454 88.56 302.134 87.66 305.194 87.66H307.174V86.8C307.174 85.22 306.354 84.52 304.854 84.52C303.514 84.52 302.754 84.98 302.534 86.28L300.934 86.1C301.194 84.54 302.194 83.28 304.934 83.28C307.394 83.28 308.754 84.5 308.754 86.86V92.18C308.754 92.72 308.934 92.9 309.374 92.9H310.314ZM304.174 93C306.554 93 307.174 91.18 307.174 89.54V88.78H305.174C303.334 88.78 302.054 89.26 302.054 90.94C302.054 92.08 302.734 93 304.174 93ZM321.534 94.2C318.434 94.2 316.914 92.28 316.914 88.66C316.914 84.84 318.874 83.28 321.494 83.28C324.994 83.28 325.874 85.56 325.874 88.32C325.874 88.52 325.854 88.84 325.834 89.06H318.634V89.08C318.634 91.34 319.414 92.98 321.574 92.98C323.254 92.98 323.854 92.34 324.234 91.32L325.614 91.72C325.134 92.9 324.274 94.2 321.534 94.2ZM321.494 84.48C320.094 84.48 318.754 85.2 318.634 87.82H324.174V87.68C324.174 85.48 323.294 84.48 321.494 84.48ZM80.4506 111.9V113.14C80.0706 113.18 79.6506 113.2 79.0906 113.2C78.0506 113.2 77.3706 112.6 77.3706 111.5V110.98C76.8306 112.68 75.4906 113.2 73.9306 113.2C71.6506 113.2 70.5906 111.72 70.5906 110.04C70.5906 107.56 72.2706 106.66 75.3306 106.66H77.3106V105.8C77.3106 104.22 76.4906 103.52 74.9906 103.52C73.6506 103.52 72.8906 103.98 72.6706 105.28L71.0706 105.1C71.3306 103.54 72.3306 102.28 75.0706 102.28C77.5306 102.28 78.8906 103.5 78.8906 105.86V111.18C78.8906 111.72 79.0706 111.9 79.5106 111.9H80.4506ZM74.3106 112C76.6906 112 77.3106 110.18 77.3106 108.54V107.78H75.3106C73.4706 107.78 72.1906 108.26 72.1906 109.94C72.1906 111.08 72.8706 112 74.3106 112ZM86.5708 113.2C83.2708 113.2 82.0508 110.82 82.0508 107.7C82.0508 103.54 84.2708 102.28 86.5508 102.28C88.9108 102.28 90.1908 103.62 90.5308 105.4L88.8708 105.5C88.6708 104.3 87.9108 103.56 86.5108 103.56C84.4908 103.56 83.7508 104.88 83.7508 107.66C83.7508 110.16 84.4308 111.9 86.5308 111.9C87.8508 111.9 88.7508 111.18 88.9708 109.76L90.5908 109.88C90.3508 111.58 89.0708 113.2 86.5708 113.2ZM94.8177 102.48V109.2C94.8177 111.28 95.4177 111.94 97.0577 111.94C98.7777 111.94 99.8977 110.72 99.8977 108.58V102.48H101.518V110.76C101.518 111.52 101.538 112.1 101.558 113H100.018L99.9177 111.06C99.4577 112.24 98.5177 113.2 96.5177 113.2C94.2177 113.2 93.1977 112.12 93.1977 109.52V102.48H94.8177ZM109.759 103.82C109.459 103.8 109.259 103.8 109.059 103.8C107.279 103.8 106.559 105.34 106.559 106.76V113H104.939V104.92L104.879 102.48H106.419L106.499 104.56C106.799 103.16 107.719 102.3 109.199 102.3C109.299 102.3 109.459 102.3 109.759 102.32V103.82ZM121.134 111.9V113.14C120.754 113.18 120.334 113.2 119.774 113.2C118.734 113.2 118.054 112.6 118.054 111.5V110.98C117.514 112.68 116.174 113.2 114.614 113.2C112.334 113.2 111.274 111.72 111.274 110.04C111.274 107.56 112.954 106.66 116.014 106.66H117.994V105.8C117.994 104.22 117.174 103.52 115.674 103.52C114.334 103.52 113.574 103.98 113.354 105.28L111.754 105.1C112.014 103.54 113.014 102.28 115.754 102.28C118.214 102.28 119.574 103.5 119.574 105.86V111.18C119.574 111.72 119.754 111.9 120.194 111.9H121.134ZM114.994 112C117.374 112 117.994 110.18 117.994 108.54V107.78H115.994C114.154 107.78 112.874 108.26 112.874 109.94C112.874 111.08 113.554 112 114.994 112ZM126.614 113.2C123.974 113.2 122.734 111.44 122.734 107.76C122.734 104.06 124.074 102.28 126.754 102.28C128.194 102.28 129.494 102.96 129.974 104.28C129.954 103.74 129.954 103.2 129.954 102.76V97.44H131.574V110.84C131.574 111.4 131.614 112.28 131.654 113H130.054C130.034 112.56 129.994 111.74 129.994 111C129.554 112.36 128.594 113.2 126.614 113.2ZM127.034 111.94C128.834 111.94 129.954 110.76 129.954 107.58C129.954 104.58 128.894 103.48 127.054 103.48C125.294 103.48 124.414 104.86 124.414 107.7C124.414 110.56 125.194 111.94 127.034 111.94ZM144.376 111.9V113.14C143.996 113.18 143.576 113.2 143.016 113.2C141.976 113.2 141.296 112.6 141.296 111.5V110.98C140.756 112.68 139.416 113.2 137.856 113.2C135.576 113.2 134.516 111.72 134.516 110.04C134.516 107.56 136.196 106.66 139.256 106.66H141.236V105.8C141.236 104.22 140.416 103.52 138.916 103.52C137.576 103.52 136.816 103.98 136.596 105.28L134.996 105.1C135.256 103.54 136.256 102.28 138.996 102.28C141.456 102.28 142.816 103.5 142.816 105.86V111.18C142.816 111.72 142.996 111.9 143.436 111.9H144.376ZM138.236 112C140.616 112 141.236 110.18 141.236 108.54V107.78H139.236C137.396 107.78 136.116 108.26 136.116 109.94C136.116 111.08 136.796 112 138.236 112ZM160.537 107.68C160.537 110.94 159.557 113.2 156.657 113.2C155.017 113.2 153.797 112.6 153.277 111.1C153.297 111.58 153.317 112.34 153.317 112.76V117.64H151.697V104.72C151.697 103.64 151.677 103.2 151.637 102.48H153.217C153.237 103.02 153.277 103.9 153.277 104.58C153.677 103.16 154.817 102.28 156.657 102.28C159.517 102.28 160.537 104.36 160.537 107.68ZM158.857 107.7C158.857 104.98 158.177 103.52 156.237 103.52C154.617 103.52 153.317 104.32 153.317 107.82C153.317 110.9 154.357 112 156.217 112C158.197 112 158.857 110.5 158.857 107.7ZM172.599 111.9V113.14C172.219 113.18 171.799 113.2 171.239 113.2C170.199 113.2 169.519 112.6 169.519 111.5V110.98C168.979 112.68 167.639 113.2 166.079 113.2C163.799 113.2 162.739 111.72 162.739 110.04C162.739 107.56 164.419 106.66 167.479 106.66H169.459V105.8C169.459 104.22 168.639 103.52 167.139 103.52C165.799 103.52 165.039 103.98 164.819 105.28L163.219 105.1C163.479 103.54 164.479 102.28 167.219 102.28C169.679 102.28 171.039 103.5 171.039 105.86V111.18C171.039 111.72 171.219 111.9 171.659 111.9H172.599ZM166.459 112C168.839 112 169.459 110.18 169.459 108.54V107.78H167.459C165.619 107.78 164.339 108.26 164.339 109.94C164.339 111.08 165.019 112 166.459 112ZM179.739 103.82C179.439 103.8 179.239 103.8 179.039 103.8C177.259 103.8 176.539 105.34 176.539 106.76V113H174.919V104.92L174.859 102.48H176.399L176.479 104.56C176.779 103.16 177.699 102.3 179.179 102.3C179.279 102.3 179.439 102.3 179.739 102.32V103.82ZM191.115 111.9V113.14C190.735 113.18 190.315 113.2 189.755 113.2C188.715 113.2 188.035 112.6 188.035 111.5V110.98C187.495 112.68 186.155 113.2 184.595 113.2C182.315 113.2 181.255 111.72 181.255 110.04C181.255 107.56 182.935 106.66 185.995 106.66H187.975V105.8C187.975 104.22 187.155 103.52 185.655 103.52C184.315 103.52 183.555 103.98 183.335 105.28L181.735 105.1C181.995 103.54 182.995 102.28 185.735 102.28C188.195 102.28 189.555 103.5 189.555 105.86V111.18C189.555 111.72 189.735 111.9 190.175 111.9H191.115ZM184.975 112C187.355 112 187.975 110.18 187.975 108.54V107.78H185.975C184.135 107.78 182.855 108.26 182.855 109.94C182.855 111.08 183.535 112 184.975 112ZM205.755 110.12C205.755 112.1 204.395 113.2 201.715 113.2C199.495 113.2 197.975 112.48 197.515 110.54L199.015 110.24C199.295 111.22 200.135 112 201.695 112C203.175 112 204.195 111.54 204.195 110.24C204.195 109.02 203.175 108.74 201.335 108.3C199.035 107.74 197.955 106.84 197.955 105.16C197.955 103.32 199.455 102.28 201.615 102.28C203.775 102.28 205.175 103.08 205.535 104.86L204.055 105.04C203.815 103.96 202.955 103.5 201.615 103.5C200.375 103.5 199.515 104.06 199.515 104.92C199.515 105.94 200.095 106.4 202.215 106.94C203.915 107.38 205.755 107.88 205.755 110.12ZM209.876 102.48V109.2C209.876 111.28 210.476 111.94 212.116 111.94C213.836 111.94 214.956 110.72 214.956 108.58V102.48H216.576V110.76C216.576 111.52 216.596 112.1 216.616 113H215.076L214.976 111.06C214.516 112.24 213.576 113.2 211.576 113.2C209.276 113.2 208.256 112.12 208.256 109.52V102.48H209.876ZM229.337 111.9V113.14C228.957 113.18 228.537 113.2 227.977 113.2C226.937 113.2 226.257 112.6 226.257 111.5V110.98C225.717 112.68 224.377 113.2 222.817 113.2C220.537 113.2 219.477 111.72 219.477 110.04C219.477 107.56 221.157 106.66 224.217 106.66H226.197V105.8C226.197 104.22 225.377 103.52 223.877 103.52C222.537 103.52 221.777 103.98 221.557 105.28L219.957 105.1C220.217 103.54 221.217 102.28 223.957 102.28C226.417 102.28 227.777 103.5 227.777 105.86V111.18C227.777 111.72 227.957 111.9 228.397 111.9H229.337ZM223.197 112C225.577 112 226.197 110.18 226.197 108.54V107.78H224.197C222.357 107.78 221.077 108.26 221.077 109.94C221.077 111.08 221.757 112 223.197 112ZM245.497 107.68C245.497 110.94 244.518 113.2 241.618 113.2C239.978 113.2 238.758 112.6 238.238 111.1C238.258 111.58 238.278 112.34 238.278 112.76V117.64H236.658V104.72C236.658 103.64 236.638 103.2 236.598 102.48H238.178C238.198 103.02 238.238 103.9 238.238 104.58C238.638 103.16 239.778 102.28 241.618 102.28C244.478 102.28 245.497 104.36 245.497 107.68ZM243.818 107.7C243.818 104.98 243.138 103.52 241.198 103.52C239.578 103.52 238.278 104.32 238.278 107.82C238.278 110.9 239.318 112 241.178 112C243.158 112 243.818 110.5 243.818 107.7ZM252.12 113.2C249.02 113.2 247.5 111.28 247.5 107.66C247.5 103.84 249.46 102.28 252.08 102.28C255.58 102.28 256.46 104.56 256.46 107.32C256.46 107.52 256.44 107.84 256.42 108.06H249.22V108.08C249.22 110.34 250 111.98 252.16 111.98C253.84 111.98 254.44 111.34 254.82 110.32L256.2 110.72C255.72 111.9 254.86 113.2 252.12 113.2ZM252.08 103.48C250.68 103.48 249.34 104.2 249.22 106.82H254.76V106.68C254.76 104.48 253.88 103.48 252.08 103.48ZM264.095 103.82C263.795 103.8 263.595 103.8 263.395 103.8C261.615 103.8 260.895 105.34 260.895 106.76V113H259.275V104.92L259.215 102.48H260.755L260.835 104.56C261.135 103.16 262.055 102.3 263.535 102.3C263.635 102.3 263.795 102.3 264.095 102.32V103.82ZM269.385 113.1C266.705 113.1 265.605 111.28 265.605 107.74C265.605 104.34 266.705 102.28 269.565 102.28C271.405 102.28 272.485 103.2 272.885 104.38L272.965 102.48H274.505L274.445 104.62L274.465 113.36C274.465 116.3 273.025 117.76 270.085 117.76C267.665 117.76 266.425 116.72 266.065 115.2L267.685 114.96C267.925 115.96 268.765 116.52 270.125 116.52C271.805 116.52 272.845 115.64 272.845 113.4L272.825 111.14V110.92C272.285 112.18 271.185 113.1 269.385 113.1ZM272.825 107.72C272.825 104.76 271.505 103.52 269.965 103.52C268.105 103.52 267.285 104.74 267.285 107.72C267.285 110.82 268.105 111.88 269.925 111.88C271.405 111.88 272.825 110.7 272.825 107.72ZM279.388 102.48V109.2C279.388 111.28 279.988 111.94 281.628 111.94C283.348 111.94 284.468 110.72 284.468 108.58V102.48H286.088V110.76C286.088 111.52 286.108 112.1 286.128 113H284.588L284.488 111.06C284.028 112.24 283.088 113.2 281.088 113.2C278.788 113.2 277.768 112.12 277.768 109.52V102.48H279.388ZM296.189 113V106.26C296.189 104.18 295.549 103.52 293.929 103.52C292.229 103.52 291.109 104.74 291.109 106.92V113H289.489V104.74C289.489 104.04 289.449 102.48 289.449 102.48H290.949C290.949 103 290.989 103.76 290.989 104.54C291.469 103.12 292.469 102.28 294.389 102.28C296.669 102.28 297.809 103.34 297.809 105.96V113H296.189ZM300.21 103.7V102.48H301.47V99.42H303.09V102.48H305.07V103.7H303.09V110.8C303.09 111.46 303.31 111.82 304.09 111.82H305.25V113.18H303.29C302.13 113.18 301.47 112.3 301.47 111.14V103.7H300.21ZM317.306 111.9V113.14C316.926 113.18 316.506 113.2 315.946 113.2C314.906 113.2 314.226 112.6 314.226 111.5V110.98C313.686 112.68 312.346 113.2 310.786 113.2C308.506 113.2 307.446 111.72 307.446 110.04C307.446 107.56 309.126 106.66 312.186 106.66H314.166V105.8C314.166 104.22 313.346 103.52 311.846 103.52C310.506 103.52 309.746 103.98 309.526 105.28L307.926 105.1C308.186 103.54 309.186 102.28 311.926 102.28C314.386 102.28 315.746 103.5 315.746 105.86V111.18C315.746 111.72 315.926 111.9 316.366 111.9H317.306ZM311.166 112C313.546 112 314.166 110.18 314.166 108.54V107.78H312.166C310.326 107.78 309.046 108.26 309.046 109.94C309.046 111.08 309.726 112 311.166 112ZM319.746 113V110.9H321.766V113H319.746Z" fill="black"/>
</svg>
