<svg width="366" height="171" viewBox="0 0 366 171" fill="none" xmlns="http://www.w3.org/2000/svg">
<path d="M56.8044 38.664L56.1324 42H49.2924L54.4284 24.84H63.2124L68.5404 42H61.5324L60.8364 38.664H56.8044ZM59.2284 30.984L58.7964 28.992L58.3884 30.984L57.6924 34.32H59.9244L59.2284 30.984ZM77.2913 42V34.464C77.2913 33.504 77.1473 33.072 76.5233 33.072C75.6353 33.072 75.3953 34.008 75.3953 34.872V42H69.5153V32.304C69.5153 30.84 69.4193 28.824 69.4193 28.824H75.0833L75.3713 31.368C76.0673 29.136 77.6753 28.56 79.2113 28.56C82.4273 28.56 83.1713 30.648 83.1713 32.832V42H77.2913ZM99.3823 38.496V42.12C98.4463 42.192 97.5583 42.24 96.4543 42.24C94.3423 42.24 92.9983 41.592 92.7343 39.792C92.2543 41.448 90.8143 42.24 88.7983 42.24C85.4143 42.24 84.4303 40.104 84.4303 38.328C84.4303 35.328 86.7583 34.08 90.9583 34.08H92.2543V33.288C92.2543 32.232 91.8943 32.016 91.3183 32.016C90.7423 32.016 90.3583 32.28 90.2623 33.456L85.0783 33.096C85.2223 30.768 86.8063 28.56 91.5343 28.56C96.0223 28.56 97.8943 30.384 97.8943 33.792V37.752C97.8943 38.16 98.0383 38.496 98.5663 38.496H99.3823ZM92.2783 37.248L92.2543 36.456H91.4383C90.4303 36.456 90.0223 36.936 90.0223 37.608C90.0223 38.208 90.3823 38.712 91.1023 38.712C91.9423 38.712 92.2783 38.184 92.2783 37.248ZM100.38 42V23.016H106.356V42H100.38ZM108.21 42V28.824H114.162V42H108.21ZM108.234 27.456V23.016H114.186V27.456H108.234ZM128.637 37.776C128.637 40.8 126.429 42.48 122.037 42.48C116.757 42.48 115.365 39.864 115.389 37.752L120.381 37.68C120.405 38.664 120.861 39.168 121.821 39.168C122.589 39.168 122.781 38.808 122.781 38.448C122.781 37.776 121.941 37.584 120.093 37.08C116.853 36.216 115.749 34.728 115.749 32.592C115.749 30.36 117.381 28.32 121.773 28.32C126.117 28.32 128.157 30.36 128.157 32.664L123.141 32.808C123.093 32.088 122.565 31.584 121.845 31.584C121.317 31.584 121.029 31.824 121.029 32.184C121.029 32.712 121.341 32.904 124.197 33.576C127.461 34.344 128.637 35.664 128.637 37.776ZM136.846 42.24C131.35 42.24 129.766 38.76 129.766 35.376C129.766 30.432 132.982 28.56 136.774 28.56C141.262 28.56 143.71 31.2 143.71 35.04C143.71 35.832 143.662 36.456 143.662 36.456H135.694V36.768C135.694 38.112 136.054 38.784 136.798 38.784C137.542 38.784 137.902 38.232 137.95 37.272L143.566 37.536C143.23 39.792 141.718 42.24 136.846 42.24ZM135.694 33.648V33.912H137.878V33.696C137.878 32.04 137.398 31.776 136.774 31.776C136.174 31.776 135.694 32.112 135.694 33.648ZM165.242 38.496V42.12C164.306 42.192 163.418 42.24 162.314 42.24C160.202 42.24 158.858 41.592 158.594 39.792C158.114 41.448 156.674 42.24 154.658 42.24C151.274 42.24 150.29 40.104 150.29 38.328C150.29 35.328 152.618 34.08 156.818 34.08H158.114V33.288C158.114 32.232 157.754 32.016 157.178 32.016C156.602 32.016 156.218 32.28 156.122 33.456L150.938 33.096C151.082 30.768 152.666 28.56 157.394 28.56C161.882 28.56 163.754 30.384 163.754 33.792V37.752C163.754 38.16 163.898 38.496 164.426 38.496H165.242ZM158.138 37.248L158.114 36.456H157.298C156.29 36.456 155.882 36.936 155.882 37.608C155.882 38.208 156.242 38.712 156.962 38.712C157.802 38.712 158.138 38.184 158.138 37.248ZM178.864 37.776C178.864 40.8 176.656 42.48 172.264 42.48C166.984 42.48 165.592 39.864 165.616 37.752L170.608 37.68C170.632 38.664 171.088 39.168 172.048 39.168C172.816 39.168 173.008 38.808 173.008 38.448C173.008 37.776 172.168 37.584 170.32 37.08C167.08 36.216 165.976 34.728 165.976 32.592C165.976 30.36 167.608 28.32 172 28.32C176.344 28.32 178.384 30.36 178.384 32.664L173.368 32.808C173.32 32.088 172.792 31.584 172.072 31.584C171.544 31.584 171.256 31.824 171.256 32.184C171.256 32.712 171.568 32.904 174.424 33.576C177.688 34.344 178.864 35.664 178.864 37.776ZM191.884 35.904V42H185.74V24.84L193.636 24.864C198.724 24.888 200.716 27.072 200.716 30.576C200.716 33.12 199.78 34.632 197.86 35.352L201.364 42H194.356L191.884 35.904ZM194.404 30.744C194.404 29.664 193.804 29.328 192.916 29.328H191.86V32.088H192.916C193.78 32.088 194.404 31.8 194.404 30.744ZM209.596 42.24C204.1 42.24 202.516 38.76 202.516 35.376C202.516 30.432 205.732 28.56 209.524 28.56C214.012 28.56 216.46 31.2 216.46 35.04C216.46 35.832 216.412 36.456 216.412 36.456H208.444V36.768C208.444 38.112 208.804 38.784 209.548 38.784C210.292 38.784 210.652 38.232 210.7 37.272L216.316 37.536C215.98 39.792 214.468 42.24 209.596 42.24ZM208.444 33.648V33.912H210.628V33.696C210.628 32.04 210.148 31.776 209.524 31.776C208.924 31.776 208.444 32.112 208.444 33.648ZM230.66 37.776C230.66 40.8 228.452 42.48 224.06 42.48C218.78 42.48 217.388 39.864 217.412 37.752L222.404 37.68C222.428 38.664 222.884 39.168 223.844 39.168C224.612 39.168 224.804 38.808 224.804 38.448C224.804 37.776 223.964 37.584 222.116 37.08C218.876 36.216 217.772 34.728 217.772 32.592C217.772 30.36 219.404 28.32 223.796 28.32C228.14 28.32 230.18 30.36 230.18 32.664L225.164 32.808C225.116 32.088 224.588 31.584 223.868 31.584C223.34 31.584 223.052 31.824 223.052 32.184C223.052 32.712 223.364 32.904 226.22 33.576C229.484 34.344 230.66 35.664 230.66 37.776ZM246.309 35.328C246.309 39.864 244.965 42.24 241.437 42.24C239.397 42.24 238.317 41.4 237.621 39.936C237.669 40.344 237.693 40.848 237.693 41.256V47.736H231.885V32.304C231.885 30.84 231.837 29.76 231.837 28.824H237.765C237.813 29.352 237.909 30.072 237.981 30.936C238.341 29.52 239.613 28.56 241.653 28.56C245.205 28.56 246.309 31.08 246.309 35.328ZM240.333 35.232C240.333 32.976 239.949 32.448 239.229 32.448C238.269 32.448 238.077 33.336 238.077 35.28C238.077 37.272 238.437 38.304 239.229 38.304C240.045 38.304 240.333 37.536 240.333 35.232ZM255.794 35.232C255.794 33.072 255.386 32.448 254.618 32.448C253.802 32.448 253.466 33.072 253.466 35.208C253.466 37.416 253.73 38.352 254.666 38.352C255.578 38.352 255.794 37.416 255.794 35.232ZM261.794 35.328C261.794 39.408 259.706 42.24 254.666 42.24C249.65 42.24 247.514 39.36 247.514 35.328C247.514 31.128 249.842 28.56 254.618 28.56C259.49 28.56 261.794 31.08 261.794 35.328ZM275.895 37.776C275.895 40.8 273.687 42.48 269.295 42.48C264.015 42.48 262.623 39.864 262.647 37.752L267.639 37.68C267.663 38.664 268.119 39.168 269.079 39.168C269.847 39.168 270.039 38.808 270.039 38.448C270.039 37.776 269.199 37.584 267.351 37.08C264.111 36.216 263.007 34.728 263.007 32.592C263.007 30.36 264.639 28.32 269.031 28.32C273.375 28.32 275.415 30.36 275.415 32.664L270.399 32.808C270.351 32.088 269.823 31.584 269.103 31.584C268.575 31.584 268.287 31.824 268.287 32.184C268.287 32.712 268.599 32.904 271.455 33.576C274.719 34.344 275.895 35.664 275.895 37.776ZM276.352 32.832V28.824H278.44L278.512 24.84H284.032V28.824H286.72V32.832H284.032V36.24C284.032 36.912 284.344 37.176 284.944 37.176H286.72V41.904C285.688 42 284.416 42 282.928 42C279.4 42 278.368 39.576 278.368 37.704V32.832H276.352ZM302.773 38.496V42.12C301.837 42.192 300.949 42.24 299.845 42.24C297.733 42.24 296.389 41.592 296.125 39.792C295.645 41.448 294.205 42.24 292.189 42.24C288.805 42.24 287.821 40.104 287.821 38.328C287.821 35.328 290.149 34.08 294.349 34.08H295.645V33.288C295.645 32.232 295.285 32.016 294.709 32.016C294.133 32.016 293.749 32.28 293.653 33.456L288.469 33.096C288.613 30.768 290.197 28.56 294.925 28.56C299.413 28.56 301.285 30.384 301.285 33.792V37.752C301.285 38.16 301.429 38.496 301.957 38.496H302.773ZM295.669 37.248L295.645 36.456H294.829C293.821 36.456 293.413 36.936 293.413 37.608C293.413 38.208 293.773 38.712 294.493 38.712C295.333 38.712 295.669 38.184 295.669 37.248ZM316.395 37.776C316.395 40.8 314.187 42.48 309.795 42.48C304.515 42.48 303.123 39.864 303.147 37.752L308.139 37.68C308.163 38.664 308.619 39.168 309.579 39.168C310.347 39.168 310.539 38.808 310.539 38.448C310.539 37.776 309.699 37.584 307.851 37.08C304.611 36.216 303.507 34.728 303.507 32.592C303.507 30.36 305.139 28.32 309.531 28.32C313.875 28.32 315.915 30.36 315.915 32.664L310.899 32.808C310.851 32.088 310.323 31.584 309.603 31.584C309.075 31.584 308.787 31.824 308.787 32.184C308.787 32.712 309.099 32.904 311.955 33.576C315.219 34.344 316.395 35.664 316.395 37.776Z" fill="black"/>
<path d="M59.4383 92V78.28H61.1383V90.6H67.8383V92H59.4383ZM73.9638 92.2C70.8638 92.2 69.3438 90.28 69.3438 86.66C69.3438 82.84 71.3038 81.28 73.9238 81.28C77.4238 81.28 78.3038 83.56 78.3038 86.32C78.3038 86.52 78.2838 86.84 78.2638 87.06H71.0638V87.08C71.0638 89.34 71.8438 90.98 74.0038 90.98C75.6838 90.98 76.2838 90.34 76.6638 89.32L78.0438 89.72C77.5638 90.9 76.7038 92.2 73.9638 92.2ZM73.9238 82.48C72.5238 82.48 71.1838 83.2 71.0638 85.82H76.6038V85.68C76.6038 83.48 75.7238 82.48 73.9238 82.48ZM81.1384 92V81.48H82.7384V92H81.1384ZM81.0584 79.3V77.5H82.8184V79.3H81.0584ZM95.5366 90.9V92.14C95.1566 92.18 94.7366 92.2 94.1766 92.2C93.1366 92.2 92.4566 91.6 92.4566 90.5V89.98C91.9166 91.68 90.5766 92.2 89.0166 92.2C86.7366 92.2 85.6766 90.72 85.6766 89.04C85.6766 86.56 87.3566 85.66 90.4166 85.66H92.3966V84.8C92.3966 83.22 91.5766 82.52 90.0766 82.52C88.7366 82.52 87.9766 82.98 87.7566 84.28L86.1566 84.1C86.4166 82.54 87.4166 81.28 90.1566 81.28C92.6166 81.28 93.9766 82.5 93.9766 84.86V90.18C93.9766 90.72 94.1566 90.9 94.5966 90.9H95.5366ZM89.3966 91C91.7766 91 92.3966 89.18 92.3966 87.54V86.78H90.3966C88.5566 86.78 87.2766 87.26 87.2766 88.94C87.2766 90.08 87.9566 91 89.3966 91ZM112.197 90.9V92.14C111.817 92.18 111.397 92.2 110.837 92.2C109.797 92.2 109.117 91.6 109.117 90.5V89.98C108.577 91.68 107.237 92.2 105.677 92.2C103.397 92.2 102.337 90.72 102.337 89.04C102.337 86.56 104.017 85.66 107.077 85.66H109.057V84.8C109.057 83.22 108.237 82.52 106.737 82.52C105.397 82.52 104.637 82.98 104.417 84.28L102.817 84.1C103.077 82.54 104.077 81.28 106.817 81.28C109.277 81.28 110.637 82.5 110.637 84.86V90.18C110.637 90.72 110.817 90.9 111.257 90.9H112.197ZM106.057 91C108.437 91 109.057 89.18 109.057 87.54V86.78H107.057C105.217 86.78 103.937 87.26 103.937 88.94C103.937 90.08 104.617 91 106.057 91ZM113.597 82.7V81.48H114.857V78.42H116.477V81.48H118.457V82.7H116.477V89.8C116.477 90.46 116.697 90.82 117.477 90.82H118.637V92.18H116.677C115.517 92.18 114.857 91.3 114.857 90.14V82.7H113.597ZM125.253 92.2C122.153 92.2 120.633 90.28 120.633 86.66C120.633 82.84 122.593 81.28 125.213 81.28C128.713 81.28 129.593 83.56 129.593 86.32C129.593 86.52 129.573 86.84 129.553 87.06H122.353V87.08C122.353 89.34 123.133 90.98 125.293 90.98C126.973 90.98 127.573 90.34 127.953 89.32L129.333 89.72C128.853 90.9 127.993 92.2 125.253 92.2ZM125.213 82.48C123.813 82.48 122.473 83.2 122.353 85.82H127.893V85.68C127.893 83.48 127.013 82.48 125.213 82.48ZM139.088 92V85.26C139.088 83.18 138.448 82.52 136.828 82.52C135.128 82.52 134.008 83.74 134.008 85.92V92H132.388V83.74C132.388 83.04 132.348 81.48 132.348 81.48H133.848C133.848 82 133.888 82.76 133.888 83.54C134.368 82.12 135.368 81.28 137.288 81.28C139.568 81.28 140.708 82.34 140.708 84.96V92H139.088ZM143.109 82.7V81.48H144.369V78.42H145.989V81.48H147.969V82.7H145.989V89.8C145.989 90.46 146.209 90.82 146.989 90.82H148.149V92.18H146.189C145.029 92.18 144.369 91.3 144.369 90.14V82.7H143.109ZM160.205 90.9V92.14C159.825 92.18 159.405 92.2 158.845 92.2C157.805 92.2 157.125 91.6 157.125 90.5V89.98C156.585 91.68 155.245 92.2 153.685 92.2C151.405 92.2 150.345 90.72 150.345 89.04C150.345 86.56 152.025 85.66 155.085 85.66H157.065V84.8C157.065 83.22 156.245 82.52 154.745 82.52C153.405 82.52 152.645 82.98 152.425 84.28L150.825 84.1C151.085 82.54 152.085 81.28 154.825 81.28C157.285 81.28 158.645 82.5 158.645 84.86V90.18C158.645 90.72 158.825 90.9 159.265 90.9H160.205ZM154.065 91C156.445 91 157.065 89.18 157.065 87.54V86.78H155.065C153.225 86.78 151.945 87.26 151.945 88.94C151.945 90.08 152.625 91 154.065 91ZM168.645 92V85.26C168.645 83.14 168.105 82.5 166.645 82.5C165.245 82.5 164.125 83.76 164.125 85.9V92H162.505V83.7C162.505 82.96 162.485 82.1 162.465 81.48H163.965C163.965 81.9 164.005 82.76 164.005 83.54C164.445 82.26 165.365 81.28 167.185 81.28C169.085 81.28 169.845 82.14 170.065 83.44C170.665 81.94 171.965 81.28 173.305 81.28C175.425 81.28 176.345 82.3 176.345 84.94V92H174.745V85.26C174.745 83.14 174.225 82.54 172.745 82.54C171.245 82.54 170.245 83.7 170.245 85.9V92H168.645ZM183.573 92.2C180.473 92.2 178.953 90.28 178.953 86.66C178.953 82.84 180.913 81.28 183.533 81.28C187.033 81.28 187.913 83.56 187.913 86.32C187.913 86.52 187.893 86.84 187.873 87.06H180.673V87.08C180.673 89.34 181.453 90.98 183.613 90.98C185.293 90.98 185.893 90.34 186.273 89.32L187.653 89.72C187.173 90.9 186.313 92.2 183.573 92.2ZM183.533 82.48C182.133 82.48 180.793 83.2 180.673 85.82H186.213V85.68C186.213 83.48 185.333 82.48 183.533 82.48ZM197.408 92V85.26C197.408 83.18 196.768 82.52 195.148 82.52C193.448 82.52 192.328 83.74 192.328 85.92V92H190.708V83.74C190.708 83.04 190.668 81.48 190.668 81.48H192.168C192.168 82 192.208 82.76 192.208 83.54C192.688 82.12 193.688 81.28 195.608 81.28C197.888 81.28 199.028 82.34 199.028 84.96V92H197.408ZM201.429 82.7V81.48H202.689V78.42H204.309V81.48H206.289V82.7H204.309V89.8C204.309 90.46 204.529 90.82 205.309 90.82H206.469V92.18H204.509C203.349 92.18 202.689 91.3 202.689 90.14V82.7H201.429ZM213.085 92.2C209.985 92.2 208.465 90.28 208.465 86.66C208.465 82.84 210.425 81.28 213.045 81.28C216.545 81.28 217.425 83.56 217.425 86.32C217.425 86.52 217.405 86.84 217.385 87.06H210.185V87.08C210.185 89.34 210.965 90.98 213.125 90.98C214.805 90.98 215.405 90.34 215.785 89.32L217.165 89.72C216.685 90.9 215.825 92.2 213.085 92.2ZM213.045 82.48C211.645 82.48 210.305 83.2 210.185 85.82H215.725V85.68C215.725 83.48 214.845 82.48 213.045 82.48ZM234.58 90.9V92.14C234.2 92.18 233.78 92.2 233.22 92.2C232.18 92.2 231.5 91.6 231.5 90.5V89.98C230.96 91.68 229.62 92.2 228.06 92.2C225.78 92.2 224.72 90.72 224.72 89.04C224.72 86.56 226.4 85.66 229.46 85.66H231.44V84.8C231.44 83.22 230.62 82.52 229.12 82.52C227.78 82.52 227.02 82.98 226.8 84.28L225.2 84.1C225.46 82.54 226.46 81.28 229.2 81.28C231.66 81.28 233.02 82.5 233.02 84.86V90.18C233.02 90.72 233.2 90.9 233.64 90.9H234.58ZM228.44 91C230.82 91 231.44 89.18 231.44 87.54V86.78H229.44C227.6 86.78 226.32 87.26 226.32 88.94C226.32 90.08 227 91 228.44 91ZM244.22 89.12C244.22 91.1 242.86 92.2 240.18 92.2C237.96 92.2 236.44 91.48 235.98 89.54L237.48 89.24C237.76 90.22 238.6 91 240.16 91C241.64 91 242.66 90.54 242.66 89.24C242.66 88.02 241.64 87.74 239.8 87.3C237.5 86.74 236.42 85.84 236.42 84.16C236.42 82.32 237.92 81.28 240.08 81.28C242.24 81.28 243.64 82.08 244 83.86L242.52 84.04C242.28 82.96 241.42 82.5 240.08 82.5C238.84 82.5 237.98 83.06 237.98 83.92C237.98 84.94 238.56 85.4 240.68 85.94C242.38 86.38 244.22 86.88 244.22 89.12ZM256.661 82.82C256.361 82.8 256.161 82.8 255.961 82.8C254.181 82.8 253.461 84.34 253.461 85.76V92H251.841V83.92L251.781 81.48H253.321L253.401 83.56C253.701 82.16 254.621 81.3 256.101 81.3C256.201 81.3 256.361 81.3 256.661 81.32V82.82ZM262.792 92.2C259.692 92.2 258.172 90.28 258.172 86.66C258.172 82.84 260.132 81.28 262.752 81.28C266.252 81.28 267.132 83.56 267.132 86.32C267.132 86.52 267.112 86.84 267.092 87.06H259.892V87.08C259.892 89.34 260.672 90.98 262.832 90.98C264.512 90.98 265.112 90.34 265.492 89.32L266.872 89.72C266.392 90.9 265.532 92.2 262.792 92.2ZM262.752 82.48C261.352 82.48 260.012 83.2 259.892 85.82H265.432V85.68C265.432 83.48 264.552 82.48 262.752 82.48ZM277.267 89.12C277.267 91.1 275.907 92.2 273.227 92.2C271.007 92.2 269.487 91.48 269.027 89.54L270.527 89.24C270.807 90.22 271.647 91 273.207 91C274.687 91 275.707 90.54 275.707 89.24C275.707 88.02 274.687 87.74 272.847 87.3C270.547 86.74 269.467 85.84 269.467 84.16C269.467 82.32 270.967 81.28 273.127 81.28C275.287 81.28 276.687 82.08 277.047 83.86L275.567 84.04C275.327 82.96 274.467 82.5 273.127 82.5C271.887 82.5 271.027 83.06 271.027 83.92C271.027 84.94 271.607 85.4 273.727 85.94C275.427 86.38 277.267 86.88 277.267 89.12ZM288.728 86.68C288.728 89.94 287.748 92.2 284.848 92.2C283.208 92.2 281.988 91.6 281.468 90.1C281.488 90.58 281.508 91.34 281.508 91.76V96.64H279.888V83.72C279.888 82.64 279.868 82.2 279.828 81.48H281.408C281.428 82.02 281.468 82.9 281.468 83.58C281.868 82.16 283.008 81.28 284.848 81.28C287.708 81.28 288.728 83.36 288.728 86.68ZM287.048 86.7C287.048 83.98 286.368 82.52 284.428 82.52C282.808 82.52 281.508 83.32 281.508 86.82C281.508 89.9 282.548 91 284.408 91C286.388 91 287.048 89.5 287.048 86.7ZM298.37 86.62C298.37 83.56 297.29 82.48 295.41 82.48C293.59 82.48 292.43 83.48 292.43 86.62C292.43 89.86 293.79 91 295.39 91C297.21 91 298.37 89.88 298.37 86.62ZM300.07 86.7C300.07 90.46 298.29 92.2 295.31 92.2C292.61 92.2 290.73 90.52 290.73 86.66C290.73 83.02 292.47 81.28 295.43 81.28C298.53 81.28 300.07 83.06 300.07 86.7ZM309.923 89.12C309.923 91.1 308.563 92.2 305.883 92.2C303.663 92.2 302.143 91.48 301.683 89.54L303.183 89.24C303.463 90.22 304.303 91 305.863 91C307.343 91 308.363 90.54 308.363 89.24C308.363 88.02 307.343 87.74 305.503 87.3C303.203 86.74 302.123 85.84 302.123 84.16C302.123 82.32 303.623 81.28 305.783 81.28C307.943 81.28 309.343 82.08 309.703 83.86L308.223 84.04C307.983 82.96 307.123 82.5 305.783 82.5C304.543 82.5 303.683 83.06 303.683 83.92C303.683 84.94 304.263 85.4 306.383 85.94C308.083 86.38 309.923 86.88 309.923 89.12ZM311.624 82.7V81.48H312.884V78.42H314.504V81.48H316.484V82.7H314.504V89.8C314.504 90.46 314.724 90.82 315.504 90.82H316.664V92.18H314.704C313.544 92.18 312.884 91.3 312.884 90.14V82.7H311.624ZM328.72 90.9V92.14C328.34 92.18 327.92 92.2 327.36 92.2C326.32 92.2 325.64 91.6 325.64 90.5V89.98C325.1 91.68 323.76 92.2 322.2 92.2C319.92 92.2 318.86 90.72 318.86 89.04C318.86 86.56 320.54 85.66 323.6 85.66H325.58V84.8C325.58 83.22 324.76 82.52 323.26 82.52C321.92 82.52 321.16 82.98 320.94 84.28L319.34 84.1C319.6 82.54 320.6 81.28 323.34 81.28C325.8 81.28 327.16 82.5 327.16 84.86V90.18C327.16 90.72 327.34 90.9 327.78 90.9H328.72ZM322.58 91C324.96 91 325.58 89.18 325.58 87.54V86.78H323.58C321.74 86.78 320.46 87.26 320.46 88.94C320.46 90.08 321.14 91 322.58 91ZM338.36 89.12C338.36 91.1 337 92.2 334.32 92.2C332.1 92.2 330.58 91.48 330.12 89.54L331.62 89.24C331.9 90.22 332.74 91 334.3 91C335.78 91 336.8 90.54 336.8 89.24C336.8 88.02 335.78 87.74 333.94 87.3C331.64 86.74 330.56 85.84 330.56 84.16C330.56 82.32 332.06 81.28 334.22 81.28C336.38 81.28 337.78 82.08 338.14 83.86L336.66 84.04C336.42 82.96 335.56 82.5 334.22 82.5C332.98 82.5 332.12 83.06 332.12 83.92C332.12 84.94 332.7 85.4 334.82 85.94C336.52 86.38 338.36 86.88 338.36 89.12ZM73.2041 101.82C72.9041 101.8 72.7041 101.8 72.5041 101.8C70.7241 101.8 70.0041 103.34 70.0041 104.76V111H68.3841V102.92L68.3241 100.48H69.8641L69.9441 102.56C70.2441 101.16 71.1641 100.3 72.6441 100.3C72.7441 100.3 72.9041 100.3 73.2041 100.32V101.82ZM79.3348 111.2C76.2348 111.2 74.7148 109.28 74.7148 105.66C74.7148 101.84 76.6748 100.28 79.2948 100.28C82.7948 100.28 83.6748 102.56 83.6748 105.32C83.6748 105.52 83.6548 105.84 83.6348 106.06H76.4348V106.08C76.4348 108.34 77.2148 109.98 79.3748 109.98C81.0548 109.98 81.6548 109.34 82.0348 108.32L83.4148 108.72C82.9348 109.9 82.0748 111.2 79.3348 111.2ZM79.2948 101.48C77.8948 101.48 76.5548 102.2 76.4348 104.82H81.9748V104.68C81.9748 102.48 81.0948 101.48 79.2948 101.48ZM90.2895 111.2C86.9895 111.2 85.7695 108.82 85.7695 105.7C85.7695 101.54 87.9895 100.28 90.2695 100.28C92.6295 100.28 93.9095 101.62 94.2495 103.4L92.5895 103.5C92.3895 102.3 91.6295 101.56 90.2295 101.56C88.2095 101.56 87.4695 102.88 87.4695 105.66C87.4695 108.16 88.1495 109.9 90.2495 109.9C91.5695 109.9 92.4695 109.18 92.6895 107.76L94.3095 107.88C94.0695 109.58 92.7895 111.2 90.2895 111.2ZM100.741 111.2C97.6411 111.2 96.1211 109.28 96.1211 105.66C96.1211 101.84 98.0811 100.28 100.701 100.28C104.201 100.28 105.081 102.56 105.081 105.32C105.081 105.52 105.061 105.84 105.041 106.06H97.8411V106.08C97.8411 108.34 98.6211 109.98 100.781 109.98C102.461 109.98 103.061 109.34 103.441 108.32L104.821 108.72C104.341 109.9 103.481 111.2 100.741 111.2ZM100.701 101.48C99.3011 101.48 97.9611 102.2 97.8411 104.82H103.381V104.68C103.381 102.48 102.501 101.48 100.701 101.48ZM116.716 105.66C116.716 109.38 115.396 111.2 112.596 111.2C111.336 111.2 109.996 110.68 109.476 109.24C109.456 109.88 109.436 110.36 109.396 111H107.836C107.856 110.42 107.876 109.64 107.876 108.84V95.44H109.496V101.12C109.496 101.38 109.476 101.74 109.456 102.12C110.076 100.86 111.276 100.28 112.716 100.28C115.456 100.28 116.716 102.02 116.716 105.66ZM115.036 105.72C115.036 102.74 114.236 101.54 112.416 101.54C110.496 101.54 109.496 102.68 109.496 105.82C109.496 108.86 110.516 110 112.376 110C114.156 110 115.036 108.84 115.036 105.72ZM119.459 111V100.48H121.059V111H119.459ZM119.379 98.3V96.5H121.139V98.3H119.379ZM127.677 111.2C125.037 111.2 123.797 109.44 123.797 105.76C123.797 102.06 125.137 100.28 127.817 100.28C129.257 100.28 130.557 100.96 131.037 102.28C131.017 101.74 131.017 101.2 131.017 100.76V95.44H132.637V108.84C132.637 109.4 132.677 110.28 132.717 111H131.117C131.097 110.56 131.057 109.74 131.057 109C130.617 110.36 129.657 111.2 127.677 111.2ZM128.097 109.94C129.897 109.94 131.017 108.76 131.017 105.58C131.017 102.58 129.957 101.48 128.117 101.48C126.357 101.48 125.477 102.86 125.477 105.7C125.477 108.56 126.257 109.94 128.097 109.94ZM145.439 109.9V111.14C145.059 111.18 144.639 111.2 144.079 111.2C143.039 111.2 142.359 110.6 142.359 109.5V108.98C141.819 110.68 140.479 111.2 138.919 111.2C136.639 111.2 135.579 109.72 135.579 108.04C135.579 105.56 137.259 104.66 140.319 104.66H142.299V103.8C142.299 102.22 141.479 101.52 139.979 101.52C138.639 101.52 137.879 101.98 137.659 103.28L136.059 103.1C136.319 101.54 137.319 100.28 140.059 100.28C142.519 100.28 143.879 101.5 143.879 103.86V109.18C143.879 109.72 144.059 109.9 144.499 109.9H145.439ZM139.299 110C141.679 110 142.299 108.18 142.299 106.54V105.78H140.299C138.459 105.78 137.179 106.26 137.179 107.94C137.179 109.08 137.859 110 139.299 110ZM155.079 108.12C155.079 110.1 153.719 111.2 151.039 111.2C148.819 111.2 147.299 110.48 146.839 108.54L148.339 108.24C148.619 109.22 149.459 110 151.019 110C152.499 110 153.519 109.54 153.519 108.24C153.519 107.02 152.499 106.74 150.659 106.3C148.359 105.74 147.279 104.84 147.279 103.16C147.279 101.32 148.779 100.28 150.939 100.28C153.099 100.28 154.499 101.08 154.859 102.86L153.379 103.04C153.139 101.96 152.279 101.5 150.939 101.5C149.699 101.5 148.839 102.06 148.839 102.92C148.839 103.94 149.419 104.4 151.539 104.94C153.239 105.38 155.079 105.88 155.079 108.12ZM166.6 111.2C163.5 111.2 161.98 109.28 161.98 105.66C161.98 101.84 163.94 100.28 166.56 100.28C170.06 100.28 170.94 102.56 170.94 105.32C170.94 105.52 170.92 105.84 170.9 106.06H163.7V106.08C163.7 108.34 164.48 109.98 166.64 109.98C168.32 109.98 168.92 109.34 169.3 108.32L170.68 108.72C170.2 109.9 169.34 111.2 166.6 111.2ZM166.56 101.48C165.16 101.48 163.82 102.2 163.7 104.82H169.24V104.68C169.24 102.48 168.36 101.48 166.56 101.48ZM188.095 109.9V111.14C187.715 111.18 187.295 111.2 186.735 111.2C185.695 111.2 185.015 110.6 185.015 109.5V108.98C184.475 110.68 183.135 111.2 181.575 111.2C179.295 111.2 178.235 109.72 178.235 108.04C178.235 105.56 179.915 104.66 182.975 104.66H184.955V103.8C184.955 102.22 184.135 101.52 182.635 101.52C181.295 101.52 180.535 101.98 180.315 103.28L178.715 103.1C178.975 101.54 179.975 100.28 182.715 100.28C185.175 100.28 186.535 101.5 186.535 103.86V109.18C186.535 109.72 186.715 109.9 187.155 109.9H188.095ZM181.955 110C184.335 110 184.955 108.18 184.955 106.54V105.78H182.955C181.115 105.78 179.835 106.26 179.835 107.94C179.835 109.08 180.515 110 181.955 110ZM194.635 111H192.755L188.895 100.48H190.575L193.035 107.54C193.395 108.58 193.715 109.72 193.715 109.72C193.715 109.72 194.015 108.58 194.375 107.5L196.755 100.48H198.435L194.635 111ZM209.697 109.9V111.14C209.317 111.18 208.897 111.2 208.337 111.2C207.297 111.2 206.617 110.6 206.617 109.5V108.98C206.077 110.68 204.737 111.2 203.177 111.2C200.897 111.2 199.837 109.72 199.837 108.04C199.837 105.56 201.517 104.66 204.577 104.66H206.557V103.8C206.557 102.22 205.737 101.52 204.237 101.52C202.897 101.52 202.137 101.98 201.917 103.28L200.317 103.1C200.577 101.54 201.577 100.28 204.317 100.28C206.777 100.28 208.137 101.5 208.137 103.86V109.18C208.137 109.72 208.317 109.9 208.757 109.9H209.697ZM203.557 110C205.937 110 206.557 108.18 206.557 106.54V105.78H204.557C202.717 105.78 201.437 106.26 201.437 107.94C201.437 109.08 202.117 110 203.557 110ZM211.957 111V95.44H213.577V111H211.957ZM216.978 111V100.48H218.578V111H216.978ZM216.898 98.3V96.5H218.658V98.3H216.898ZM225.936 111.2C222.836 111.2 221.316 109.28 221.316 105.66C221.316 101.84 223.276 100.28 225.896 100.28C229.396 100.28 230.276 102.56 230.276 105.32C230.276 105.52 230.256 105.84 230.236 106.06H223.036V106.08C223.036 108.34 223.816 109.98 225.976 109.98C227.656 109.98 228.256 109.34 228.636 108.32L230.016 108.72C229.536 109.9 228.676 111.2 225.936 111.2ZM225.896 101.48C224.496 101.48 223.156 102.2 223.036 104.82H228.576V104.68C228.576 102.48 227.696 101.48 225.896 101.48ZM241.271 111.2C238.571 111.2 237.371 109.38 237.371 105.76C237.371 102.08 238.671 100.28 241.271 100.28C243.071 100.28 244.011 100.94 244.611 102.24H244.631C244.631 101.84 244.691 101.1 244.731 100.48H246.271C246.251 101.38 246.211 102.52 246.211 103.24L246.231 115.64H244.611V109.66L244.631 109.22C243.951 110.6 242.951 111.2 241.271 111.2ZM241.691 109.94C243.311 109.94 244.591 109.06 244.591 105.58C244.591 102.44 243.471 101.48 241.691 101.48C239.871 101.48 239.071 102.76 239.071 105.7C239.071 108.64 239.811 109.94 241.691 109.94ZM251.154 100.48V107.2C251.154 109.28 251.754 109.94 253.394 109.94C255.114 109.94 256.234 108.72 256.234 106.58V100.48H257.854V108.76C257.854 109.52 257.874 110.1 257.894 111H256.354L256.254 109.06C255.794 110.24 254.854 111.2 252.854 111.2C250.554 111.2 249.534 110.12 249.534 107.52V100.48H251.154ZM270.615 109.9V111.14C270.235 111.18 269.815 111.2 269.255 111.2C268.215 111.2 267.535 110.6 267.535 109.5V108.98C266.995 110.68 265.655 111.2 264.095 111.2C261.815 111.2 260.755 109.72 260.755 108.04C260.755 105.56 262.435 104.66 265.495 104.66H267.475V103.8C267.475 102.22 266.655 101.52 265.155 101.52C263.815 101.52 263.055 101.98 262.835 103.28L261.235 103.1C261.495 101.54 262.495 100.28 265.235 100.28C267.695 100.28 269.055 101.5 269.055 103.86V109.18C269.055 109.72 269.235 109.9 269.675 109.9H270.615ZM264.475 110C266.855 110 267.475 108.18 267.475 106.54V105.78H265.475C263.635 105.78 262.355 106.26 262.355 107.94C262.355 109.08 263.035 110 264.475 110ZM272.875 111V95.44H274.495V111H272.875ZM286.036 111.2C283.396 111.2 282.156 109.44 282.156 105.76C282.156 102.06 283.496 100.28 286.176 100.28C287.616 100.28 288.916 100.96 289.396 102.28C289.376 101.74 289.376 101.2 289.376 100.76V95.44H290.996V108.84C290.996 109.4 291.036 110.28 291.076 111H289.476C289.456 110.56 289.416 109.74 289.416 109C288.976 110.36 288.016 111.2 286.036 111.2ZM286.456 109.94C288.256 109.94 289.376 108.76 289.376 105.58C289.376 102.58 288.316 101.48 286.476 101.48C284.716 101.48 283.836 102.86 283.836 105.7C283.836 108.56 284.616 109.94 286.456 109.94ZM298.358 111.2C295.258 111.2 293.738 109.28 293.738 105.66C293.738 101.84 295.698 100.28 298.318 100.28C301.818 100.28 302.698 102.56 302.698 105.32C302.698 105.52 302.678 105.84 302.658 106.06H295.458V106.08C295.458 108.34 296.238 109.98 298.398 109.98C300.078 109.98 300.678 109.34 301.058 108.32L302.438 108.72C301.958 109.9 301.098 111.2 298.358 111.2ZM298.318 101.48C296.918 101.48 295.578 102.2 295.458 104.82H300.998V104.68C300.998 102.48 300.118 101.48 298.318 101.48ZM305.453 111V95.44H307.073V111H305.453ZM319.794 109.9V111.14C319.414 111.18 318.994 111.2 318.434 111.2C317.394 111.2 316.714 110.6 316.714 109.5V108.98C316.174 110.68 314.834 111.2 313.274 111.2C310.994 111.2 309.934 109.72 309.934 108.04C309.934 105.56 311.614 104.66 314.674 104.66H316.654V103.8C316.654 102.22 315.834 101.52 314.334 101.52C312.994 101.52 312.234 101.98 312.014 103.28L310.414 103.1C310.674 101.54 311.674 100.28 314.414 100.28C316.874 100.28 318.234 101.5 318.234 103.86V109.18C318.234 109.72 318.414 109.9 318.854 109.9H319.794ZM313.654 110C316.034 110 316.654 108.18 316.654 106.54V105.78H314.654C312.814 105.78 311.534 106.26 311.534 107.94C311.534 109.08 312.214 110 313.654 110ZM329.435 108.12C329.435 110.1 328.075 111.2 325.395 111.2C323.175 111.2 321.655 110.48 321.195 108.54L322.695 108.24C322.975 109.22 323.815 110 325.375 110C326.855 110 327.875 109.54 327.875 108.24C327.875 107.02 326.855 106.74 325.015 106.3C322.715 105.74 321.635 104.84 321.635 103.16C321.635 101.32 323.135 100.28 325.295 100.28C327.455 100.28 328.855 101.08 329.215 102.86L327.735 103.04C327.495 101.96 326.635 101.5 325.295 101.5C324.055 101.5 323.195 102.06 323.195 102.92C323.195 103.94 323.775 104.4 325.895 104.94C327.595 105.38 329.435 105.88 329.435 108.12ZM76.7502 130V123.26C76.7502 121.14 76.2102 120.5 74.7502 120.5C73.3502 120.5 72.2302 121.76 72.2302 123.9V130H70.6102V121.7C70.6102 120.96 70.5902 120.1 70.5702 119.48H72.0702C72.0702 119.9 72.1102 120.76 72.1102 121.54C72.5502 120.26 73.4702 119.28 75.2902 119.28C77.1902 119.28 77.9502 120.14 78.1702 121.44C78.7702 119.94 80.0702 119.28 81.4102 119.28C83.5302 119.28 84.4502 120.3 84.4502 122.94V130H82.8502V123.26C82.8502 121.14 82.3302 120.54 80.8502 120.54C79.3502 120.54 78.3502 121.7 78.3502 123.9V130H76.7502ZM91.6786 130.2C88.5786 130.2 87.0586 128.28 87.0586 124.66C87.0586 120.84 89.0186 119.28 91.6386 119.28C95.1386 119.28 96.0186 121.56 96.0186 124.32C96.0186 124.52 95.9986 124.84 95.9786 125.06H88.7786V125.08C88.7786 127.34 89.5586 128.98 91.7186 128.98C93.3986 128.98 93.9986 128.34 94.3786 127.32L95.7586 127.72C95.2786 128.9 94.4186 130.2 91.6786 130.2ZM91.6386 120.48C90.2386 120.48 88.8986 121.2 88.7786 123.82H94.3186V123.68C94.3186 121.48 93.4386 120.48 91.6386 120.48ZM98.7733 130V114.44H100.393V130H98.7733ZM105.335 119.52C105.335 120.16 105.315 120.82 105.275 121.36C105.815 120 106.855 119.28 108.615 119.28C111.395 119.28 112.035 120.94 112.035 122.96V130H110.415V123.28C110.415 121.42 109.955 120.52 108.175 120.52C106.475 120.52 105.335 121.7 105.335 123.92V130H103.715V114.44H105.335V119.52ZM122.277 124.62C122.277 121.56 121.197 120.48 119.317 120.48C117.497 120.48 116.337 121.48 116.337 124.62C116.337 127.86 117.697 129 119.297 129C121.117 129 122.277 127.88 122.277 124.62ZM123.977 124.7C123.977 128.46 122.197 130.2 119.217 130.2C116.517 130.2 114.637 128.52 114.637 124.66C114.637 121.02 116.377 119.28 119.337 119.28C122.437 119.28 123.977 121.06 123.977 124.7ZM131.524 120.82C131.224 120.8 131.024 120.8 130.824 120.8C129.044 120.8 128.324 122.34 128.324 123.76V130H126.704V121.92L126.644 119.48H128.184L128.264 121.56C128.564 120.16 129.484 119.3 130.964 119.3C131.064 119.3 131.224 119.3 131.524 119.32V120.82ZM148.29 128.9V130.14C147.91 130.18 147.49 130.2 146.93 130.2C145.89 130.2 145.21 129.6 145.21 128.5V127.98C144.67 129.68 143.33 130.2 141.77 130.2C139.49 130.2 138.43 128.72 138.43 127.04C138.43 124.56 140.11 123.66 143.17 123.66H145.15V122.8C145.15 121.22 144.33 120.52 142.83 120.52C141.49 120.52 140.73 120.98 140.51 122.28L138.91 122.1C139.17 120.54 140.17 119.28 142.91 119.28C145.37 119.28 146.73 120.5 146.73 122.86V128.18C146.73 128.72 146.91 128.9 147.35 128.9H148.29ZM142.15 129C144.53 129 145.15 127.18 145.15 125.54V124.78H143.15C141.31 124.78 140.03 125.26 140.03 126.94C140.03 128.08 140.71 129 142.15 129ZM149.691 120.7V119.48H150.951V116.42H152.571V119.48H154.551V120.7H152.571V127.8C152.571 128.46 152.791 128.82 153.571 128.82H154.731V130.18H152.771C151.611 130.18 150.951 129.3 150.951 128.14V120.7H149.691ZM161.347 130.2C158.247 130.2 156.727 128.28 156.727 124.66C156.727 120.84 158.687 119.28 161.307 119.28C164.807 119.28 165.687 121.56 165.687 124.32C165.687 124.52 165.667 124.84 165.647 125.06H158.447V125.08C158.447 127.34 159.227 128.98 161.387 128.98C163.067 128.98 163.667 128.34 164.047 127.32L165.427 127.72C164.947 128.9 164.087 130.2 161.347 130.2ZM161.307 120.48C159.907 120.48 158.567 121.2 158.447 123.82H163.987V123.68C163.987 121.48 163.107 120.48 161.307 120.48ZM175.181 130V123.26C175.181 121.18 174.541 120.52 172.921 120.52C171.221 120.52 170.101 121.74 170.101 123.92V130H168.481V121.74C168.481 121.04 168.441 119.48 168.441 119.48H169.941C169.941 120 169.981 120.76 169.981 121.54C170.461 120.12 171.461 119.28 173.381 119.28C175.661 119.28 176.801 120.34 176.801 122.96V130H175.181ZM183.282 130.2C180.642 130.2 179.402 128.44 179.402 124.76C179.402 121.06 180.742 119.28 183.422 119.28C184.862 119.28 186.162 119.96 186.642 121.28C186.622 120.74 186.622 120.2 186.622 119.76V114.44H188.242V127.84C188.242 128.4 188.282 129.28 188.322 130H186.722C186.702 129.56 186.662 128.74 186.662 128C186.222 129.36 185.262 130.2 183.282 130.2ZM183.702 128.94C185.502 128.94 186.622 127.76 186.622 124.58C186.622 121.58 185.562 120.48 183.722 120.48C181.962 120.48 181.082 121.86 181.082 124.7C181.082 127.56 181.862 128.94 183.702 128.94ZM195.604 130.2C192.504 130.2 190.984 128.28 190.984 124.66C190.984 120.84 192.944 119.28 195.564 119.28C199.064 119.28 199.944 121.56 199.944 124.32C199.944 124.52 199.924 124.84 199.904 125.06H192.704V125.08C192.704 127.34 193.484 128.98 195.644 128.98C197.324 128.98 197.924 128.34 198.304 127.32L199.684 127.72C199.204 128.9 198.344 130.2 195.604 130.2ZM195.564 120.48C194.164 120.48 192.824 121.2 192.704 123.82H198.244V123.68C198.244 121.48 197.364 120.48 195.564 120.48ZM217.099 128.9V130.14C216.719 130.18 216.299 130.2 215.739 130.2C214.699 130.2 214.019 129.6 214.019 128.5V127.98C213.479 129.68 212.139 130.2 210.579 130.2C208.299 130.2 207.239 128.72 207.239 127.04C207.239 124.56 208.919 123.66 211.979 123.66H213.959V122.8C213.959 121.22 213.139 120.52 211.639 120.52C210.299 120.52 209.539 120.98 209.319 122.28L207.719 122.1C207.979 120.54 208.979 119.28 211.719 119.28C214.179 119.28 215.539 120.5 215.539 122.86V128.18C215.539 128.72 215.719 128.9 216.159 128.9H217.099ZM210.959 129C213.339 129 213.959 127.18 213.959 125.54V124.78H211.959C210.119 124.78 208.839 125.26 208.839 126.94C208.839 128.08 209.519 129 210.959 129ZM211.079 118.3L208.019 115.34V115.32H210.259L212.479 118.28V118.3H211.079ZM231.739 127.12C231.739 129.1 230.379 130.2 227.699 130.2C225.479 130.2 223.959 129.48 223.499 127.54L224.999 127.24C225.279 128.22 226.119 129 227.679 129C229.159 129 230.179 128.54 230.179 127.24C230.179 126.02 229.159 125.74 227.319 125.3C225.019 124.74 223.939 123.84 223.939 122.16C223.939 120.32 225.439 119.28 227.599 119.28C229.759 119.28 231.159 120.08 231.519 121.86L230.039 122.04C229.799 120.96 228.939 120.5 227.599 120.5C226.359 120.5 225.499 121.06 225.499 121.92C225.499 122.94 226.079 123.4 228.199 123.94C229.899 124.38 231.739 124.88 231.739 127.12ZM235.861 119.48V126.2C235.861 128.28 236.461 128.94 238.101 128.94C239.821 128.94 240.941 127.72 240.941 125.58V119.48H242.561V127.76C242.561 128.52 242.581 129.1 242.601 130H241.061L240.961 128.06C240.501 129.24 239.561 130.2 237.561 130.2C235.261 130.2 234.241 129.12 234.241 126.52V119.48H235.861ZM255.322 128.9V130.14C254.942 130.18 254.522 130.2 253.962 130.2C252.922 130.2 252.242 129.6 252.242 128.5V127.98C251.702 129.68 250.362 130.2 248.802 130.2C246.522 130.2 245.462 128.72 245.462 127.04C245.462 124.56 247.142 123.66 250.202 123.66H252.182V122.8C252.182 121.22 251.362 120.52 249.862 120.52C248.522 120.52 247.762 120.98 247.542 122.28L245.942 122.1C246.202 120.54 247.202 119.28 249.942 119.28C252.402 119.28 253.762 120.5 253.762 122.86V128.18C253.762 128.72 253.942 128.9 254.382 128.9H255.322ZM249.182 129C251.562 129 252.182 127.18 252.182 125.54V124.78H250.182C248.342 124.78 247.062 125.26 247.062 126.94C247.062 128.08 247.742 129 249.182 129ZM265.802 130.2C263.162 130.2 261.922 128.44 261.922 124.76C261.922 121.06 263.262 119.28 265.942 119.28C267.382 119.28 268.682 119.96 269.162 121.28C269.142 120.74 269.142 120.2 269.142 119.76V114.44H270.762V127.84C270.762 128.4 270.802 129.28 270.842 130H269.242C269.222 129.56 269.182 128.74 269.182 128C268.742 129.36 267.782 130.2 265.802 130.2ZM266.222 128.94C268.022 128.94 269.142 127.76 269.142 124.58C269.142 121.58 268.082 120.48 266.242 120.48C264.482 120.48 263.602 121.86 263.602 124.7C263.602 127.56 264.382 128.94 266.222 128.94ZM275.724 119.48V126.2C275.724 128.28 276.324 128.94 277.964 128.94C279.684 128.94 280.804 127.72 280.804 125.58V119.48H282.424V127.76C282.424 128.52 282.444 129.1 282.464 130H280.924L280.824 128.06C280.364 129.24 279.424 130.2 277.424 130.2C275.124 130.2 274.104 129.12 274.104 126.52V119.48H275.724ZM277.484 118.3V118.28L279.684 115.32H281.924V115.34L278.884 118.3H277.484ZM290.065 130H288.185L284.325 119.48H286.005L288.465 126.54C288.825 127.58 289.145 128.72 289.145 128.72C289.145 128.72 289.445 127.58 289.805 126.5L292.185 119.48H293.865L290.065 130ZM295.806 130V119.48H297.406V130H295.806ZM295.726 117.3V115.5H297.486V117.3H295.726ZM304.025 130.2C301.385 130.2 300.145 128.44 300.145 124.76C300.145 121.06 301.485 119.28 304.165 119.28C305.605 119.28 306.905 119.96 307.385 121.28C307.365 120.74 307.365 120.2 307.365 119.76V114.44H308.985V127.84C308.985 128.4 309.025 129.28 309.065 130H307.465C307.445 129.56 307.405 128.74 307.405 128C306.965 129.36 306.005 130.2 304.025 130.2ZM304.445 128.94C306.245 128.94 307.365 127.76 307.365 124.58C307.365 121.58 306.305 120.48 304.465 120.48C302.705 120.48 301.825 121.86 301.825 124.7C301.825 127.56 302.605 128.94 304.445 128.94ZM321.787 128.9V130.14C321.407 130.18 320.987 130.2 320.427 130.2C319.387 130.2 318.707 129.6 318.707 128.5V127.98C318.167 129.68 316.827 130.2 315.267 130.2C312.987 130.2 311.927 128.72 311.927 127.04C311.927 124.56 313.607 123.66 316.667 123.66H318.647V122.8C318.647 121.22 317.827 120.52 316.327 120.52C314.987 120.52 314.227 120.98 314.007 122.28L312.407 122.1C312.667 120.54 313.667 119.28 316.407 119.28C318.867 119.28 320.227 120.5 320.227 122.86V128.18C320.227 128.72 320.407 128.9 320.847 128.9H321.787ZM315.647 129C318.027 129 318.647 127.18 318.647 125.54V124.78H316.647C314.807 124.78 313.527 125.26 313.527 126.94C313.527 128.08 314.207 129 315.647 129ZM324.227 130V127.9H326.247V130H324.227Z" fill="black"/>
<path d="M50.4187 83.5731L4 169L316.155 169L363 83.5731L316.155 2L3.99999 2.00002L50.4187 83.5731Z" stroke="#A318FF" stroke-width="4"/>
</svg>
