<svg width="366" height="171" viewBox="0 0 366 171" fill="none" xmlns="http://www.w3.org/2000/svg">
<path d="M50.4187 83.5731L4 169L316.155 169L363 83.5731L316.155 2L3.99999 2.00002L50.4187 83.5731Z" stroke="#A318FF" stroke-width="4"/>
<path d="M62.1462 33.384C62.1462 30.192 61.3302 29.352 60.1302 29.352C58.7382 29.352 57.9702 30.192 57.9702 33.336C57.9702 36.552 58.6662 37.488 60.1542 37.488C61.4982 37.488 62.1462 36.528 62.1462 33.384ZM69.2262 33.216C69.2262 38.472 66.6342 42.24 60.0582 42.24C53.5782 42.24 50.7942 38.4 50.7942 33.48C50.7942 27.264 54.4662 24.6 60.0822 24.6C66.8022 24.6 69.2262 28.224 69.2262 33.216ZM85.0692 35.328C85.0692 39.912 83.6292 42.24 80.4612 42.24C78.7812 42.24 77.3892 41.928 76.7172 39.792H76.6932C76.6452 40.464 76.5972 41.256 76.5252 42H70.8372C70.8852 40.488 70.8852 39.624 70.8852 38.568V23.304H76.8612V30.48C77.2692 29.28 78.5652 28.56 80.3652 28.56C83.3412 28.56 85.0692 30.6 85.0692 35.328ZM79.0932 35.28C79.0932 33.024 78.7092 32.496 77.9892 32.496C77.0292 32.496 76.8372 33.624 76.8372 35.328C76.8372 37.632 77.1972 38.352 77.9892 38.352C78.8052 38.352 79.0932 37.584 79.0932 35.28ZM85.6758 32.832V28.824H87.7638L87.8358 24.84H93.3558V28.824H96.0438V32.832H93.3558V36.24C93.3558 36.912 93.6678 37.176 94.2678 37.176H96.0438V41.904C95.0118 42 93.7398 42 92.2518 42C88.7238 42 87.6918 39.576 87.6918 37.704V32.832H85.6758ZM104.537 42.24C99.0412 42.24 97.4572 38.76 97.4572 35.376C97.4572 30.432 100.673 28.56 104.465 28.56C108.953 28.56 111.401 31.2 111.401 35.04C111.401 35.832 111.353 36.456 111.353 36.456H103.385V36.768C103.385 38.112 103.745 38.784 104.489 38.784C105.233 38.784 105.593 38.232 105.641 37.272L111.257 37.536C110.921 39.792 109.409 42.24 104.537 42.24ZM103.385 33.648V33.912H105.569V33.696C105.569 32.04 105.089 31.776 104.465 31.776C103.865 31.776 103.385 32.112 103.385 33.648ZM120.85 42V34.464C120.85 33.504 120.706 33.072 120.082 33.072C119.194 33.072 118.954 34.008 118.954 34.872V42H113.074V32.304C113.074 30.84 112.978 28.824 112.978 28.824H118.642L118.93 31.368C119.626 29.136 121.234 28.56 122.77 28.56C125.986 28.56 126.73 30.648 126.73 32.832V42H120.85ZM134.493 30.144C134.493 29.904 134.445 30.6 134.421 31.272C135.069 29.232 136.749 28.56 138.261 28.56C140.517 28.56 142.341 29.712 142.341 33.12V42H136.341V34.608C136.341 33.432 136.173 33.072 135.573 33.072C134.613 33.072 134.445 34.248 134.445 35.28V42H128.517V23.016H134.493V30.144ZM158.55 38.496V42.12C157.614 42.192 156.726 42.24 155.622 42.24C153.51 42.24 152.166 41.592 151.902 39.792C151.422 41.448 149.982 42.24 147.966 42.24C144.582 42.24 143.598 40.104 143.598 38.328C143.598 35.328 145.926 34.08 150.126 34.08H151.422V33.288C151.422 32.232 151.062 32.016 150.486 32.016C149.91 32.016 149.526 32.28 149.43 33.456L144.246 33.096C144.39 30.768 145.974 28.56 150.702 28.56C155.19 28.56 157.062 30.384 157.062 33.792V37.752C157.062 38.16 157.206 38.496 157.734 38.496H158.55ZM151.446 37.248L151.422 36.456H150.606C149.598 36.456 149.19 36.936 149.19 37.608C149.19 38.208 149.55 38.712 150.27 38.712C151.11 38.712 151.446 38.184 151.446 37.248ZM177.703 37.776C177.703 40.8 175.495 42.48 171.103 42.48C165.823 42.48 164.431 39.864 164.455 37.752L169.447 37.68C169.471 38.664 169.927 39.168 170.887 39.168C171.655 39.168 171.847 38.808 171.847 38.448C171.847 37.776 171.007 37.584 169.159 37.08C165.919 36.216 164.815 34.728 164.815 32.592C164.815 30.36 166.447 28.32 170.839 28.32C175.183 28.32 177.223 30.36 177.223 32.664L172.207 32.808C172.159 32.088 171.631 31.584 170.911 31.584C170.383 31.584 170.095 31.824 170.095 32.184C170.095 32.712 170.407 32.904 173.263 33.576C176.527 34.344 177.703 35.664 177.703 37.776ZM184.952 28.824V36.432C184.952 37.08 185.048 37.8 185.792 37.8C186.728 37.8 186.872 36.864 186.872 35.16V28.824H192.704V38.856C192.704 39.96 192.728 40.704 192.776 42H187.352C187.256 41.016 187.16 40.176 187.112 39.312C186.608 41.688 184.568 42.24 183.152 42.24C179.624 42.24 179.048 39.576 179.048 38.088V28.824H184.952ZM208.988 38.496V42.12C208.052 42.192 207.164 42.24 206.06 42.24C203.948 42.24 202.604 41.592 202.34 39.792C201.86 41.448 200.42 42.24 198.404 42.24C195.02 42.24 194.036 40.104 194.036 38.328C194.036 35.328 196.364 34.08 200.564 34.08H201.86V33.288C201.86 32.232 201.5 32.016 200.924 32.016C200.348 32.016 199.964 32.28 199.868 33.456L194.684 33.096C194.828 30.768 196.412 28.56 201.14 28.56C205.628 28.56 207.5 30.384 207.5 33.792V37.752C207.5 38.16 207.644 38.496 208.172 38.496H208.988ZM201.884 37.248L201.86 36.456H201.044C200.036 36.456 199.628 36.936 199.628 37.608C199.628 38.208 199.988 38.712 200.708 38.712C201.548 38.712 201.884 38.184 201.884 37.248ZM231.117 36.648C231.117 40.536 228.045 42.24 222.957 42.24C216.861 42.24 215.277 38.976 215.181 36.72L221.133 36.36C221.277 37.32 221.733 38.088 223.173 38.088C223.917 38.088 224.397 37.872 224.397 37.296C224.397 36.72 223.845 36.36 221.973 35.928C217.581 34.92 215.613 33.312 215.613 29.904C215.613 26.616 217.965 24.6 222.957 24.6C227.805 24.6 229.893 26.736 230.349 29.592L224.301 30.024C224.205 29.208 223.797 28.608 222.813 28.608C222.213 28.608 221.781 28.872 221.781 29.28C221.781 29.976 222.381 30.216 224.829 30.912C228.717 32.016 231.117 32.832 231.117 36.648ZM240.407 35.232C240.407 33.072 239.999 32.448 239.231 32.448C238.415 32.448 238.079 33.072 238.079 35.208C238.079 37.416 238.343 38.352 239.279 38.352C240.191 38.352 240.407 37.416 240.407 35.232ZM246.407 35.328C246.407 39.408 244.319 42.24 239.279 42.24C234.263 42.24 232.127 39.36 232.127 35.328C232.127 31.128 234.455 28.56 239.231 28.56C244.103 28.56 246.407 31.08 246.407 35.328ZM247.884 42V23.016H253.86V42H247.884ZM261.546 28.824V36.432C261.546 37.08 261.642 37.8 262.386 37.8C263.322 37.8 263.466 36.864 263.466 35.16V28.824H269.298V38.856C269.298 39.96 269.322 40.704 269.37 42H263.946C263.85 41.016 263.754 40.176 263.706 39.312C263.202 41.688 261.162 42.24 259.746 42.24C256.218 42.24 255.642 39.576 255.642 38.088V28.824H261.546ZM281.43 44.544C281.43 45.864 280.71 47.016 277.158 47.016C276.414 47.016 275.838 46.992 275.286 46.968V44.952H276.534C277.59 44.952 277.758 44.76 277.758 44.4C277.758 44.04 277.494 43.872 276.774 43.872H275.934L275.862 43.752L276.702 42.168C272.838 41.76 270.87 39.192 270.87 35.376C270.87 31.056 273.198 28.56 277.902 28.56C282.438 28.56 284.67 31.104 284.67 34.56L279.126 34.704C279.078 33.192 278.838 32.448 277.974 32.448C277.158 32.448 276.822 33.072 276.822 35.208C276.822 37.32 277.11 38.352 277.998 38.352C278.694 38.352 279.078 37.992 279.15 36.456L284.67 36.552C284.574 39.432 282.918 41.736 279.222 42.168L278.982 42.648C280.542 42.696 281.43 43.416 281.43 44.544ZM300.347 38.496V42.12C299.411 42.192 298.523 42.24 297.419 42.24C295.307 42.24 293.963 41.592 293.699 39.792C293.219 41.448 291.779 42.24 289.763 42.24C286.379 42.24 285.395 40.104 285.395 38.328C285.395 35.328 287.723 34.08 291.923 34.08H293.219V33.288C293.219 32.232 292.859 32.016 292.283 32.016C291.707 32.016 291.323 32.28 291.227 33.456L286.043 33.096C286.187 30.768 287.771 28.56 292.499 28.56C296.987 28.56 298.859 30.384 298.859 33.792V37.752C298.859 38.16 299.003 38.496 299.531 38.496H300.347ZM295.091 27.648C293.819 27.648 291.755 26.76 291.083 26.76C290.579 26.76 290.363 26.928 290.363 27.456V27.648H286.931V26.232C286.931 24.624 287.651 23.256 289.979 23.256C291.227 23.256 293.291 24.24 294.227 24.24C294.731 24.24 295.043 24.096 295.043 23.4V23.256H298.331V24.24C298.331 26.856 297.275 27.648 295.091 27.648ZM293.243 37.248L293.219 36.456H292.403C291.395 36.456 290.987 36.936 290.987 37.608C290.987 38.208 291.347 38.712 292.067 38.712C292.907 38.712 293.243 38.184 293.243 37.248ZM309.337 35.232C309.337 33.072 308.929 32.448 308.161 32.448C307.345 32.448 307.009 33.072 307.009 35.208C307.009 37.416 307.273 38.352 308.209 38.352C309.121 38.352 309.337 37.416 309.337 35.232ZM315.337 35.328C315.337 39.408 313.249 42.24 308.209 42.24C303.193 42.24 301.057 39.36 301.057 35.328C301.057 31.128 303.385 28.56 308.161 28.56C313.033 28.56 315.337 31.08 315.337 35.328Z" fill="black"/>
<path d="M79.1595 68.94L77.7595 73H76.1195L81.0195 59.28H83.0795L88.1595 73H86.4595L85.0195 68.94H79.1595ZM82.8995 62.98L82.0395 60.56L81.1995 63L79.6195 67.6H84.5395L82.8995 62.98ZM93.4636 73.1C90.7836 73.1 89.6836 71.28 89.6836 67.74C89.6836 64.34 90.7836 62.28 93.6436 62.28C95.4836 62.28 96.5636 63.2 96.9636 64.38L97.0436 62.48H98.5836L98.5236 64.62L98.5436 73.36C98.5436 76.3 97.1036 77.76 94.1636 77.76C91.7436 77.76 90.5036 76.72 90.1436 75.2L91.7636 74.96C92.0036 75.96 92.8436 76.52 94.2036 76.52C95.8836 76.52 96.9236 75.64 96.9236 73.4L96.9036 71.14V70.92C96.3636 72.18 95.2636 73.1 93.4636 73.1ZM96.9036 67.72C96.9036 64.76 95.5836 63.52 94.0436 63.52C92.1836 63.52 91.3636 64.74 91.3636 67.72C91.3636 70.82 92.1836 71.88 94.0036 71.88C95.4836 71.88 96.9036 70.7 96.9036 67.72ZM108.886 67.62C108.886 64.56 107.806 63.48 105.926 63.48C104.106 63.48 102.946 64.48 102.946 67.62C102.946 70.86 104.306 72 105.906 72C107.726 72 108.886 70.88 108.886 67.62ZM110.586 67.7C110.586 71.46 108.806 73.2 105.826 73.2C103.126 73.2 101.246 71.52 101.246 67.66C101.246 64.02 102.986 62.28 105.946 62.28C109.046 62.28 110.586 64.06 110.586 67.7ZM118.134 63.82C117.834 63.8 117.634 63.8 117.434 63.8C115.654 63.8 114.934 65.34 114.934 66.76V73H113.314V64.92L113.254 62.48H114.794L114.874 64.56C115.174 63.16 116.094 62.3 117.574 62.3C117.674 62.3 117.834 62.3 118.134 62.32V63.82ZM129.509 71.9V73.14C129.129 73.18 128.709 73.2 128.149 73.2C127.109 73.2 126.429 72.6 126.429 71.5V70.98C125.889 72.68 124.549 73.2 122.989 73.2C120.709 73.2 119.649 71.72 119.649 70.04C119.649 67.56 121.329 66.66 124.389 66.66H126.369V65.8C126.369 64.22 125.549 63.52 124.049 63.52C122.709 63.52 121.949 63.98 121.729 65.28L120.129 65.1C120.389 63.54 121.389 62.28 124.129 62.28C126.589 62.28 127.949 63.5 127.949 65.86V71.18C127.949 71.72 128.129 71.9 128.569 71.9H129.509ZM123.369 72C125.749 72 126.369 70.18 126.369 68.54V67.78H124.369C122.529 67.78 121.249 68.26 121.249 69.94C121.249 71.08 121.929 72 123.369 72ZM141.049 73H139.169L135.309 62.48H136.989L139.449 69.54C139.809 70.58 140.129 71.72 140.129 71.72C140.129 71.72 140.429 70.58 140.789 69.5L143.169 62.48H144.849L141.049 73ZM153.691 67.62C153.691 64.56 152.611 63.48 150.731 63.48C148.911 63.48 147.751 64.48 147.751 67.62C147.751 70.86 149.111 72 150.711 72C152.531 72 153.691 70.88 153.691 67.62ZM155.391 67.7C155.391 71.46 153.611 73.2 150.631 73.2C147.931 73.2 146.051 71.52 146.051 67.66C146.051 64.02 147.791 62.28 150.751 62.28C153.851 62.28 155.391 64.06 155.391 67.7ZM161.918 73.2C158.618 73.2 157.398 70.82 157.398 67.7C157.398 63.54 159.618 62.28 161.898 62.28C164.258 62.28 165.538 63.62 165.878 65.4L164.218 65.5C164.018 64.3 163.258 63.56 161.858 63.56C159.838 63.56 159.098 64.88 159.098 67.66C159.098 70.16 159.778 71.9 161.878 71.9C163.198 71.9 164.098 71.18 164.318 69.76L165.938 69.88C165.698 71.58 164.418 73.2 161.918 73.2ZM172.37 73.2C169.27 73.2 167.75 71.28 167.75 67.66C167.75 63.84 169.71 62.28 172.33 62.28C175.83 62.28 176.71 64.56 176.71 67.32C176.71 67.52 176.69 67.84 176.67 68.06H169.47V68.08C169.47 70.34 170.25 71.98 172.41 71.98C174.09 71.98 174.69 71.34 175.07 70.32L176.45 70.72C175.97 71.9 175.11 73.2 172.37 73.2ZM172.33 63.48C170.93 63.48 169.59 64.2 169.47 66.82H175.01V66.68C175.01 64.48 174.13 63.48 172.33 63.48ZM175.63 61.28V61.3H174.11L172.37 59.66H172.35L170.49 61.3H168.93V61.28L171.37 58.52H173.33L175.63 61.28ZM193.365 67.68C193.365 70.94 192.385 73.2 189.485 73.2C187.845 73.2 186.625 72.6 186.105 71.1C186.125 71.58 186.145 72.34 186.145 72.76V77.64H184.525V64.72C184.525 63.64 184.505 63.2 184.465 62.48H186.045C186.065 63.02 186.105 63.9 186.105 64.58C186.505 63.16 187.645 62.28 189.485 62.28C192.345 62.28 193.365 64.36 193.365 67.68ZM191.685 67.7C191.685 64.98 191.005 63.52 189.065 63.52C187.445 63.52 186.145 64.32 186.145 67.82C186.145 70.9 187.185 72 189.045 72C191.025 72 191.685 70.5 191.685 67.7ZM203.007 67.62C203.007 64.56 201.927 63.48 200.047 63.48C198.227 63.48 197.067 64.48 197.067 67.62C197.067 70.86 198.427 72 200.027 72C201.847 72 203.007 70.88 203.007 67.62ZM204.707 67.7C204.707 71.46 202.927 73.2 199.947 73.2C197.247 73.2 195.367 71.52 195.367 67.66C195.367 64.02 197.107 62.28 200.067 62.28C203.167 62.28 204.707 64.06 204.707 67.7ZM210.595 73.2C207.955 73.2 206.715 71.44 206.715 67.76C206.715 64.06 208.055 62.28 210.735 62.28C212.175 62.28 213.475 62.96 213.955 64.28C213.935 63.74 213.935 63.2 213.935 62.76V57.44H215.555V70.84C215.555 71.4 215.595 72.28 215.635 73H214.035C214.015 72.56 213.975 71.74 213.975 71C213.535 72.36 212.575 73.2 210.595 73.2ZM211.015 71.94C212.815 71.94 213.935 70.76 213.935 67.58C213.935 64.58 212.875 63.48 211.035 63.48C209.275 63.48 208.395 64.86 208.395 67.7C208.395 70.56 209.175 71.94 211.015 71.94ZM222.917 73.2C219.817 73.2 218.297 71.28 218.297 67.66C218.297 63.84 220.257 62.28 222.877 62.28C226.377 62.28 227.257 64.56 227.257 67.32C227.257 67.52 227.237 67.84 227.217 68.06H220.017V68.08C220.017 70.34 220.797 71.98 222.957 71.98C224.637 71.98 225.237 71.34 225.617 70.32L226.997 70.72C226.517 71.9 225.657 73.2 222.917 73.2ZM222.877 63.48C221.477 63.48 220.137 64.2 220.017 66.82H225.557V66.68C225.557 64.48 224.677 63.48 222.877 63.48ZM236.572 62.48V69.2C236.572 71.28 237.172 71.94 238.812 71.94C240.532 71.94 241.652 70.72 241.652 68.58V62.48H243.272V70.76C243.272 71.52 243.292 72.1 243.312 73H241.772L241.672 71.06C241.212 72.24 240.272 73.2 238.272 73.2C235.972 73.2 234.952 72.12 234.952 69.52V62.48H236.572ZM254.013 70.12C254.013 72.1 252.653 73.2 249.973 73.2C247.753 73.2 246.233 72.48 245.773 70.54L247.273 70.24C247.553 71.22 248.393 72 249.953 72C251.433 72 252.453 71.54 252.453 70.24C252.453 69.02 251.433 68.74 249.593 68.3C247.293 67.74 246.213 66.84 246.213 65.16C246.213 63.32 247.713 62.28 249.873 62.28C252.033 62.28 253.433 63.08 253.793 64.86L252.313 65.04C252.073 63.96 251.213 63.5 249.873 63.5C248.633 63.5 247.773 64.06 247.773 64.92C247.773 65.94 248.353 66.4 250.473 66.94C252.173 67.38 254.013 67.88 254.013 70.12ZM265.974 71.9V73.14C265.594 73.18 265.174 73.2 264.614 73.2C263.574 73.2 262.894 72.6 262.894 71.5V70.98C262.354 72.68 261.014 73.2 259.454 73.2C257.174 73.2 256.114 71.72 256.114 70.04C256.114 67.56 257.794 66.66 260.854 66.66H262.834V65.8C262.834 64.22 262.014 63.52 260.514 63.52C259.174 63.52 258.414 63.98 258.194 65.28L256.594 65.1C256.854 63.54 257.854 62.28 260.594 62.28C263.054 62.28 264.414 63.5 264.414 65.86V71.18C264.414 71.72 264.594 71.9 265.034 71.9H265.974ZM259.834 72C262.214 72 262.834 70.18 262.834 68.54V67.78H260.834C258.994 67.78 257.714 68.26 257.714 69.94C257.714 71.08 258.394 72 259.834 72ZM273.114 63.82C272.814 63.8 272.614 63.8 272.414 63.8C270.634 63.8 269.914 65.34 269.914 66.76V73H268.294V64.92L268.234 62.48H269.774L269.854 64.56C270.154 63.16 271.074 62.3 272.554 62.3C272.654 62.3 272.814 62.3 273.114 62.32V63.82ZM289.88 71.9V73.14C289.5 73.18 289.08 73.2 288.52 73.2C287.48 73.2 286.8 72.6 286.8 71.5V70.98C286.26 72.68 284.92 73.2 283.36 73.2C281.08 73.2 280.02 71.72 280.02 70.04C280.02 67.56 281.7 66.66 284.76 66.66H286.74V65.8C286.74 64.22 285.92 63.52 284.42 63.52C283.08 63.52 282.32 63.98 282.1 65.28L280.5 65.1C280.76 63.54 281.76 62.28 284.5 62.28C286.96 62.28 288.32 63.5 288.32 65.86V71.18C288.32 71.72 288.5 71.9 288.94 71.9H289.88ZM283.74 72C286.12 72 286.74 70.18 286.74 68.54V67.78H284.74C282.9 67.78 281.62 68.26 281.62 69.94C281.62 71.08 282.3 72 283.74 72ZM80.3017 82.82C80.0017 82.8 79.8017 82.8 79.6017 82.8C77.8217 82.8 77.1017 84.34 77.1017 85.76V92H75.4817V83.92L75.4217 81.48H76.9617L77.0417 83.56C77.3417 82.16 78.2617 81.3 79.7417 81.3C79.8417 81.3 80.0017 81.3 80.3017 81.32V82.82ZM86.4325 92.2C83.3325 92.2 81.8125 90.28 81.8125 86.66C81.8125 82.84 83.7725 81.28 86.3925 81.28C89.8925 81.28 90.7725 83.56 90.7725 86.32C90.7725 86.52 90.7525 86.84 90.7325 87.06H83.5325V87.08C83.5325 89.34 84.3125 90.98 86.4725 90.98C88.1525 90.98 88.7525 90.34 89.1325 89.32L90.5125 89.72C90.0325 90.9 89.1725 92.2 86.4325 92.2ZM86.3925 82.48C84.9925 82.48 83.6525 83.2 83.5325 85.82H89.0725V85.68C89.0725 83.48 88.1925 82.48 86.3925 82.48ZM100.907 89.12C100.907 91.1 99.5472 92.2 96.8672 92.2C94.6472 92.2 93.1272 91.48 92.6672 89.54L94.1672 89.24C94.4472 90.22 95.2872 91 96.8472 91C98.3272 91 99.3472 90.54 99.3472 89.24C99.3472 88.02 98.3272 87.74 96.4872 87.3C94.1872 86.74 93.1072 85.84 93.1072 84.16C93.1072 82.32 94.6072 81.28 96.7672 81.28C98.9272 81.28 100.327 82.08 100.687 83.86L99.2072 84.04C98.9672 82.96 98.1072 82.5 96.7672 82.5C95.5272 82.5 94.6672 83.06 94.6672 83.92C94.6672 84.94 95.2472 85.4 97.3672 85.94C99.0672 86.38 100.907 86.88 100.907 89.12ZM112.369 86.68C112.369 89.94 111.389 92.2 108.489 92.2C106.849 92.2 105.629 91.6 105.109 90.1C105.129 90.58 105.149 91.34 105.149 91.76V96.64H103.529V83.72C103.529 82.64 103.509 82.2 103.469 81.48H105.049C105.069 82.02 105.109 82.9 105.109 83.58C105.509 82.16 106.649 81.28 108.489 81.28C111.349 81.28 112.369 83.36 112.369 86.68ZM110.689 86.7C110.689 83.98 110.009 82.52 108.069 82.52C106.449 82.52 105.149 83.32 105.149 86.82C105.149 89.9 106.189 91 108.049 91C110.029 91 110.689 89.5 110.689 86.7ZM122.011 86.62C122.011 83.56 120.931 82.48 119.051 82.48C117.231 82.48 116.071 83.48 116.071 86.62C116.071 89.86 117.431 91 119.031 91C120.851 91 122.011 89.88 122.011 86.62ZM123.711 86.7C123.711 90.46 121.931 92.2 118.951 92.2C116.251 92.2 114.371 90.52 114.371 86.66C114.371 83.02 116.111 81.28 119.071 81.28C122.171 81.28 123.711 83.06 123.711 86.7ZM133.563 89.12C133.563 91.1 132.203 92.2 129.523 92.2C127.303 92.2 125.783 91.48 125.323 89.54L126.823 89.24C127.103 90.22 127.943 91 129.503 91C130.983 91 132.003 90.54 132.003 89.24C132.003 88.02 130.983 87.74 129.143 87.3C126.843 86.74 125.763 85.84 125.763 84.16C125.763 82.32 127.263 81.28 129.423 81.28C131.583 81.28 132.983 82.08 133.343 83.86L131.863 84.04C131.623 82.96 130.763 82.5 129.423 82.5C128.183 82.5 127.323 83.06 127.323 83.92C127.323 84.94 127.903 85.4 130.023 85.94C131.723 86.38 133.563 86.88 133.563 89.12ZM135.265 82.7V81.48H136.525V78.42H138.145V81.48H140.125V82.7H138.145V89.8C138.145 90.46 138.365 90.82 139.145 90.82H140.305V92.18H138.345C137.185 92.18 136.525 91.3 136.525 90.14V82.7H135.265ZM152.361 90.9V92.14C151.981 92.18 151.561 92.2 151.001 92.2C149.961 92.2 149.281 91.6 149.281 90.5V89.98C148.741 91.68 147.401 92.2 145.841 92.2C143.561 92.2 142.501 90.72 142.501 89.04C142.501 86.56 144.181 85.66 147.241 85.66H149.221V84.8C149.221 83.22 148.401 82.52 146.901 82.52C145.561 82.52 144.801 82.98 144.581 84.28L142.981 84.1C143.241 82.54 144.241 81.28 146.981 81.28C149.441 81.28 150.801 82.5 150.801 84.86V90.18C150.801 90.72 150.981 90.9 151.421 90.9H152.361ZM146.221 91C148.601 91 149.221 89.18 149.221 87.54V86.78H147.221C145.381 86.78 144.101 87.26 144.101 88.94C144.101 90.08 144.781 91 146.221 91ZM163.581 92.2C160.481 92.2 158.961 90.28 158.961 86.66C158.961 82.84 160.921 81.28 163.541 81.28C167.041 81.28 167.921 83.56 167.921 86.32C167.921 86.52 167.901 86.84 167.881 87.06H160.681V87.08C160.681 89.34 161.461 90.98 163.621 90.98C165.301 90.98 165.901 90.34 166.281 89.32L167.661 89.72C167.181 90.9 166.321 92.2 163.581 92.2ZM163.541 82.48C162.141 82.48 160.801 83.2 160.681 85.82H166.221V85.68C166.221 83.48 165.341 82.48 163.541 82.48ZM178.056 89.12C178.056 91.1 176.696 92.2 174.016 92.2C171.796 92.2 170.276 91.48 169.816 89.54L171.316 89.24C171.596 90.22 172.436 91 173.996 91C175.476 91 176.496 90.54 176.496 89.24C176.496 88.02 175.476 87.74 173.636 87.3C171.336 86.74 170.256 85.84 170.256 84.16C170.256 82.32 171.756 81.28 173.916 81.28C176.076 81.28 177.476 82.08 177.836 83.86L176.356 84.04C176.116 82.96 175.256 82.5 173.916 82.5C172.676 82.5 171.816 83.06 171.816 83.92C171.816 84.94 172.396 85.4 174.516 85.94C176.216 86.38 178.056 86.88 178.056 89.12ZM184.477 92.2C181.177 92.2 179.957 89.82 179.957 86.7C179.957 82.54 182.177 81.28 184.457 81.28C186.817 81.28 188.097 82.62 188.437 84.4L186.777 84.5C186.577 83.3 185.817 82.56 184.417 82.56C182.397 82.56 181.657 83.88 181.657 86.66C181.657 89.16 182.337 90.9 184.437 90.9C185.757 90.9 186.657 90.18 186.877 88.76L188.497 88.88C188.257 90.58 186.977 92.2 184.477 92.2ZM197.949 86.62C197.949 83.56 196.869 82.48 194.989 82.48C193.169 82.48 192.009 83.48 192.009 86.62C192.009 89.86 193.369 91 194.969 91C196.789 91 197.949 89.88 197.949 86.62ZM199.649 86.7C199.649 90.46 197.869 92.2 194.889 92.2C192.189 92.2 190.309 90.52 190.309 86.66C190.309 83.02 192.049 81.28 195.009 81.28C198.109 81.28 199.649 83.06 199.649 86.7ZM202.316 92V76.44H203.936V92H202.316ZM208.878 81.52C208.878 82.16 208.858 82.82 208.818 83.36C209.358 82 210.398 81.28 212.158 81.28C214.938 81.28 215.578 82.94 215.578 84.96V92H213.958V85.28C213.958 83.42 213.498 82.52 211.718 82.52C210.018 82.52 208.878 83.7 208.878 85.92V92H207.258V76.44H208.878V81.52ZM218.92 92V81.48H220.52V92H218.92ZM218.84 79.3V77.5H220.6V79.3H218.84ZM227.138 92.2C224.498 92.2 223.258 90.44 223.258 86.76C223.258 83.06 224.598 81.28 227.278 81.28C228.718 81.28 230.018 81.96 230.498 83.28C230.478 82.74 230.478 82.2 230.478 81.76V76.44H232.098V89.84C232.098 90.4 232.138 91.28 232.178 92H230.578C230.558 91.56 230.518 90.74 230.518 90C230.078 91.36 229.118 92.2 227.138 92.2ZM227.558 90.94C229.358 90.94 230.478 89.76 230.478 86.58C230.478 83.58 229.418 82.48 227.578 82.48C225.818 82.48 224.938 83.86 224.938 86.7C224.938 89.56 225.718 90.94 227.558 90.94ZM244.9 90.9V92.14C244.52 92.18 244.1 92.2 243.54 92.2C242.5 92.2 241.82 91.6 241.82 90.5V89.98C241.28 91.68 239.94 92.2 238.38 92.2C236.1 92.2 235.04 90.72 235.04 89.04C235.04 86.56 236.72 85.66 239.78 85.66H241.76V84.8C241.76 83.22 240.94 82.52 239.44 82.52C238.1 82.52 237.34 82.98 237.12 84.28L235.52 84.1C235.78 82.54 236.78 81.28 239.52 81.28C241.98 81.28 243.34 82.5 243.34 84.86V90.18C243.34 90.72 243.52 90.9 243.96 90.9H244.9ZM238.76 91C241.14 91 241.76 89.18 241.76 87.54V86.78H239.76C237.92 86.78 236.64 87.26 236.64 88.94C236.64 90.08 237.32 91 238.76 91ZM261.06 86.68C261.06 89.94 260.08 92.2 257.18 92.2C255.54 92.2 254.32 91.6 253.8 90.1C253.82 90.58 253.84 91.34 253.84 91.76V96.64H252.22V83.72C252.22 82.64 252.2 82.2 252.16 81.48H253.74C253.76 82.02 253.8 82.9 253.8 83.58C254.2 82.16 255.34 81.28 257.18 81.28C260.04 81.28 261.06 83.36 261.06 86.68ZM259.38 86.7C259.38 83.98 258.7 82.52 256.76 82.52C255.14 82.52 253.84 83.32 253.84 86.82C253.84 89.9 254.88 91 256.74 91C258.72 91 259.38 89.5 259.38 86.7ZM273.123 90.9V92.14C272.743 92.18 272.323 92.2 271.763 92.2C270.723 92.2 270.043 91.6 270.043 90.5V89.98C269.503 91.68 268.163 92.2 266.603 92.2C264.323 92.2 263.263 90.72 263.263 89.04C263.263 86.56 264.943 85.66 268.003 85.66H269.983V84.8C269.983 83.22 269.163 82.52 267.663 82.52C266.323 82.52 265.563 82.98 265.343 84.28L263.743 84.1C264.003 82.54 265.002 81.28 267.743 81.28C270.203 81.28 271.563 82.5 271.563 84.86V90.18C271.563 90.72 271.743 90.9 272.183 90.9H273.123ZM266.983 91C269.363 91 269.983 89.18 269.983 87.54V86.78H267.983C266.143 86.78 264.863 87.26 264.863 88.94C264.863 90.08 265.543 91 266.983 91ZM280.263 82.82C279.963 82.8 279.763 82.8 279.563 82.8C277.783 82.8 277.063 84.34 277.063 85.76V92H275.443V83.92L275.383 81.48H276.923L277.003 83.56C277.303 82.16 278.223 81.3 279.703 81.3C279.803 81.3 279.963 81.3 280.263 81.32V82.82ZM291.638 90.9V92.14C291.258 92.18 290.838 92.2 290.278 92.2C289.238 92.2 288.558 91.6 288.558 90.5V89.98C288.018 91.68 286.678 92.2 285.118 92.2C282.838 92.2 281.778 90.72 281.778 89.04C281.778 86.56 283.458 85.66 286.518 85.66H288.498V84.8C288.498 83.22 287.678 82.52 286.178 82.52C284.838 82.52 284.078 82.98 283.858 84.28L282.258 84.1C282.518 82.54 283.518 81.28 286.258 81.28C288.718 81.28 290.078 82.5 290.078 84.86V90.18C290.078 90.72 290.258 90.9 290.698 90.9H291.638ZM285.498 91C287.878 91 288.498 89.18 288.498 87.54V86.78H286.498C284.658 86.78 283.378 87.26 283.378 88.94C283.378 90.08 284.058 91 285.498 91ZM74.8037 101.82C74.5037 101.8 74.3037 101.8 74.1037 101.8C72.3237 101.8 71.6037 103.34 71.6037 104.76V111H69.9837V102.92L69.9237 100.48H71.4637L71.5437 102.56C71.8437 101.16 72.7637 100.3 74.2437 100.3C74.3437 100.3 74.5037 100.3 74.8037 100.32V101.82ZM80.9345 111.2C77.8345 111.2 76.3145 109.28 76.3145 105.66C76.3145 101.84 78.2745 100.28 80.8945 100.28C84.3945 100.28 85.2745 102.56 85.2745 105.32C85.2745 105.52 85.2545 105.84 85.2345 106.06H78.0345V106.08C78.0345 108.34 78.8145 109.98 80.9745 109.98C82.6545 109.98 83.2545 109.34 83.6345 108.32L85.0145 108.72C84.5345 109.9 83.6745 111.2 80.9345 111.2ZM80.8945 101.48C79.4945 101.48 78.1545 102.2 78.0345 104.82H83.5745V104.68C83.5745 102.48 82.6945 101.48 80.8945 101.48ZM95.4091 108.12C95.4091 110.1 94.0491 111.2 91.3691 111.2C89.1491 111.2 87.6291 110.48 87.1691 108.54L88.6691 108.24C88.9491 109.22 89.7891 110 91.3491 110C92.8291 110 93.8491 109.54 93.8491 108.24C93.8491 107.02 92.8291 106.74 90.9891 106.3C88.6891 105.74 87.6091 104.84 87.6091 103.16C87.6091 101.32 89.1091 100.28 91.2691 100.28C93.4291 100.28 94.8291 101.08 95.1891 102.86L93.7091 103.04C93.4691 101.96 92.6091 101.5 91.2691 101.5C90.0291 101.5 89.1691 102.06 89.1691 102.92C89.1691 103.94 89.7491 104.4 91.8691 104.94C93.5691 105.38 95.4091 105.88 95.4091 108.12ZM104.951 105.62C104.951 102.56 103.871 101.48 101.991 101.48C100.171 101.48 99.0105 102.48 99.0105 105.62C99.0105 108.86 100.371 110 101.971 110C103.791 110 104.951 108.88 104.951 105.62ZM106.651 105.7C106.651 109.46 104.871 111.2 101.891 111.2C99.1905 111.2 97.3105 109.52 97.3105 105.66C97.3105 102.02 99.0505 100.28 102.011 100.28C105.111 100.28 106.651 102.06 106.651 105.7ZM109.318 111V95.44H110.938V111H109.318ZM118.54 111H116.66L112.8 100.48H114.48L116.94 107.54C117.3 108.58 117.62 109.72 117.62 109.72C117.62 109.72 117.92 108.58 118.28 107.5L120.66 100.48H122.34L118.54 111ZM128.161 111.2C125.061 111.2 123.541 109.28 123.541 105.66C123.541 101.84 125.501 100.28 128.121 100.28C131.621 100.28 132.501 102.56 132.501 105.32C132.501 105.52 132.481 105.84 132.461 106.06H125.261V106.08C125.261 108.34 126.041 109.98 128.201 109.98C129.881 109.98 130.481 109.34 130.861 108.32L132.241 108.72C131.761 109.9 130.901 111.2 128.161 111.2ZM128.121 101.48C126.721 101.48 125.381 102.2 125.261 104.82H130.801V104.68C130.801 102.48 129.921 101.48 128.121 101.48ZM140.136 101.82C139.836 101.8 139.636 101.8 139.436 101.8C137.656 101.8 136.936 103.34 136.936 104.76V111H135.316V102.92L135.256 100.48H136.796L136.876 102.56C137.176 101.16 138.096 100.3 139.576 100.3C139.676 100.3 139.836 100.3 140.136 100.32V101.82ZM154.882 108.12C154.882 110.1 153.522 111.2 150.842 111.2C148.622 111.2 147.102 110.48 146.642 108.54L148.142 108.24C148.422 109.22 149.262 110 150.822 110C152.302 110 153.322 109.54 153.322 108.24C153.322 107.02 152.302 106.74 150.462 106.3C148.162 105.74 147.082 104.84 147.082 103.16C147.082 101.32 148.582 100.28 150.742 100.28C152.902 100.28 154.302 101.08 154.662 102.86L153.182 103.04C152.942 101.96 152.082 101.5 150.742 101.5C149.502 101.5 148.642 102.06 148.642 102.92C148.642 103.94 149.222 104.4 151.342 104.94C153.042 105.38 154.882 105.88 154.882 108.12ZM161.403 111.2C158.303 111.2 156.783 109.28 156.783 105.66C156.783 101.84 158.743 100.28 161.363 100.28C164.863 100.28 165.743 102.56 165.743 105.32C165.743 105.52 165.723 105.84 165.703 106.06H158.503V106.08C158.503 108.34 159.283 109.98 161.443 109.98C163.123 109.98 163.723 109.34 164.103 108.32L165.483 108.72C165.003 109.9 164.143 111.2 161.403 111.2ZM161.363 101.48C159.963 101.48 158.623 102.2 158.503 104.82H164.043V104.68C164.043 102.48 163.163 101.48 161.363 101.48ZM170.058 100.48V107.2C170.058 109.28 170.658 109.94 172.298 109.94C174.018 109.94 175.138 108.72 175.138 106.58V100.48H176.758V108.76C176.758 109.52 176.778 110.1 176.798 111H175.258L175.158 109.06C174.698 110.24 173.758 111.2 171.758 111.2C169.458 111.2 168.438 110.12 168.438 107.52V100.48H170.058ZM194.019 105.68C194.019 108.94 193.039 111.2 190.139 111.2C188.499 111.2 187.279 110.6 186.759 109.1C186.779 109.58 186.799 110.34 186.799 110.76V115.64H185.179V102.72C185.179 101.64 185.159 101.2 185.119 100.48H186.699C186.719 101.02 186.759 101.9 186.759 102.58C187.159 101.16 188.299 100.28 190.139 100.28C192.999 100.28 194.019 102.36 194.019 105.68ZM192.339 105.7C192.339 102.98 191.659 101.52 189.719 101.52C188.099 101.52 186.799 102.32 186.799 105.82C186.799 108.9 187.839 110 189.699 110C191.679 110 192.339 108.5 192.339 105.7ZM201.561 101.82C201.261 101.8 201.061 101.8 200.861 101.8C199.081 101.8 198.361 103.34 198.361 104.76V111H196.741V102.92L196.681 100.48H198.221L198.301 102.56C198.601 101.16 199.521 100.3 201.001 100.3C201.101 100.3 201.261 100.3 201.561 100.32V101.82ZM210.712 105.62C210.712 102.56 209.632 101.48 207.752 101.48C205.932 101.48 204.772 102.48 204.772 105.62C204.772 108.86 206.132 110 207.732 110C209.552 110 210.712 108.88 210.712 105.62ZM212.412 105.7C212.412 109.46 210.632 111.2 207.652 111.2C204.952 111.2 203.072 109.52 203.072 105.66C203.072 102.02 204.812 100.28 207.772 100.28C210.872 100.28 212.412 102.06 212.412 105.7ZM223.96 105.66C223.96 109.38 222.64 111.2 219.84 111.2C218.58 111.2 217.24 110.68 216.72 109.24C216.7 109.88 216.68 110.36 216.64 111H215.08C215.1 110.42 215.12 109.64 215.12 108.84V95.44H216.74V101.12C216.74 101.38 216.72 101.74 216.7 102.12C217.32 100.86 218.52 100.28 219.96 100.28C222.7 100.28 223.96 102.02 223.96 105.66ZM222.28 105.72C222.28 102.74 221.48 101.54 219.66 101.54C217.74 101.54 216.74 102.68 216.74 105.82C216.74 108.86 217.76 110 219.62 110C221.4 110 222.28 108.84 222.28 105.72ZM226.623 111V95.44H228.243V111H226.623ZM235.524 111.2C232.424 111.2 230.904 109.28 230.904 105.66C230.904 101.84 232.864 100.28 235.484 100.28C238.984 100.28 239.864 102.56 239.864 105.32C239.864 105.52 239.844 105.84 239.824 106.06H232.624V106.08C232.624 108.34 233.404 109.98 235.564 109.98C237.244 109.98 237.844 109.34 238.224 108.32L239.604 108.72C239.124 109.9 238.264 111.2 235.524 111.2ZM235.484 101.48C234.084 101.48 232.744 102.2 232.624 104.82H238.164V104.68C238.164 102.48 237.284 101.48 235.484 101.48ZM248.799 111V104.26C248.799 102.14 248.259 101.5 246.799 101.5C245.399 101.5 244.279 102.76 244.279 104.9V111H242.659V102.7C242.659 101.96 242.639 101.1 242.619 100.48H244.119C244.119 100.9 244.159 101.76 244.159 102.54C244.599 101.26 245.519 100.28 247.339 100.28C249.239 100.28 249.999 101.14 250.219 102.44C250.819 100.94 252.119 100.28 253.459 100.28C255.579 100.28 256.499 101.3 256.499 103.94V111H254.899V104.26C254.899 102.14 254.379 101.54 252.899 101.54C251.399 101.54 250.399 102.7 250.399 104.9V111H248.799ZM269.167 109.9V111.14C268.787 111.18 268.367 111.2 267.807 111.2C266.767 111.2 266.087 110.6 266.087 109.5V108.98C265.547 110.68 264.207 111.2 262.647 111.2C260.367 111.2 259.307 109.72 259.307 108.04C259.307 105.56 260.987 104.66 264.047 104.66H266.027V103.8C266.027 102.22 265.207 101.52 263.707 101.52C262.367 101.52 261.607 101.98 261.387 103.28L259.787 103.1C260.047 101.54 261.047 100.28 263.787 100.28C266.247 100.28 267.607 101.5 267.607 103.86V109.18C267.607 109.72 267.787 109.9 268.227 109.9H269.167ZM263.027 110C265.407 110 266.027 108.18 266.027 106.54V105.78H264.027C262.187 105.78 260.907 106.26 260.907 107.94C260.907 109.08 261.587 110 263.027 110ZM283.408 105.62C283.408 102.56 282.328 101.48 280.448 101.48C278.628 101.48 277.468 102.48 277.468 105.62C277.468 108.86 278.828 110 280.428 110C282.248 110 283.408 108.88 283.408 105.62ZM285.108 105.7C285.108 109.46 283.328 111.2 280.348 111.2C277.648 111.2 275.768 109.52 275.768 105.66C275.768 102.02 277.508 100.28 280.468 100.28C283.568 100.28 285.108 102.06 285.108 105.7ZM289.335 100.48V107.2C289.335 109.28 289.935 109.94 291.575 109.94C293.295 109.94 294.415 108.72 294.415 106.58V100.48H296.035V108.76C296.035 109.52 296.055 110.1 296.075 111H294.535L294.435 109.06C293.975 110.24 293.035 111.2 291.035 111.2C288.735 111.2 287.715 110.12 287.715 107.52V100.48H289.335ZM85.9735 130.2C82.8735 130.2 81.3535 128.28 81.3535 124.66C81.3535 120.84 83.3135 119.28 85.9335 119.28C89.4335 119.28 90.3135 121.56 90.3135 124.32C90.3135 124.52 90.2935 124.84 90.2735 125.06H83.0735V125.08C83.0735 127.34 83.8535 128.98 86.0135 128.98C87.6935 128.98 88.2935 128.34 88.6735 127.32L90.0535 127.72C89.5735 128.9 88.7135 130.2 85.9735 130.2ZM85.9335 120.48C84.5335 120.48 83.1935 121.2 83.0735 123.82H88.6135V123.68C88.6135 121.48 87.7335 120.48 85.9335 120.48ZM100.448 127.12C100.448 129.1 99.0882 130.2 96.4082 130.2C94.1882 130.2 92.6682 129.48 92.2082 127.54L93.7082 127.24C93.9882 128.22 94.8282 129 96.3882 129C97.8682 129 98.8882 128.54 98.8882 127.24C98.8882 126.02 97.8682 125.74 96.0282 125.3C93.7282 124.74 92.6482 123.84 92.6482 122.16C92.6482 120.32 94.1482 119.28 96.3082 119.28C98.4682 119.28 99.8682 120.08 100.228 121.86L98.7482 122.04C98.5082 120.96 97.6482 120.5 96.3082 120.5C95.0682 120.5 94.2082 121.06 94.2082 121.92C94.2082 122.94 94.7882 123.4 96.9082 123.94C98.6082 124.38 100.448 124.88 100.448 127.12ZM106.87 130.2C103.57 130.2 102.35 127.82 102.35 124.7C102.35 120.54 104.57 119.28 106.85 119.28C109.21 119.28 110.49 120.62 110.83 122.4L109.17 122.5C108.97 121.3 108.21 120.56 106.81 120.56C104.79 120.56 104.05 121.88 104.05 124.66C104.05 127.16 104.73 128.9 106.83 128.9C108.15 128.9 109.05 128.18 109.27 126.76L110.89 126.88C110.65 128.58 109.37 130.2 106.87 130.2ZM113.556 130V114.44H115.176V130H113.556ZM127.898 128.9V130.14C127.518 130.18 127.098 130.2 126.538 130.2C125.498 130.2 124.818 129.6 124.818 128.5V127.98C124.278 129.68 122.938 130.2 121.378 130.2C119.098 130.2 118.038 128.72 118.038 127.04C118.038 124.56 119.718 123.66 122.778 123.66H124.758V122.8C124.758 121.22 123.938 120.52 122.438 120.52C121.098 120.52 120.338 120.98 120.118 122.28L118.518 122.1C118.778 120.54 119.778 119.28 122.518 119.28C124.978 119.28 126.338 120.5 126.338 122.86V128.18C126.338 128.72 126.518 128.9 126.958 128.9H127.898ZM121.758 129C124.138 129 124.758 127.18 124.758 125.54V124.78H122.758C120.918 124.78 119.638 125.26 119.638 126.94C119.638 128.08 120.318 129 121.758 129ZM135.038 120.82C134.738 120.8 134.538 120.8 134.338 120.8C132.558 120.8 131.838 122.34 131.838 123.76V130H130.218V121.92L130.158 119.48H131.698L131.778 121.56C132.078 120.16 132.998 119.3 134.478 119.3C134.578 119.3 134.738 119.3 135.038 119.32V120.82ZM141.169 130.2C138.069 130.2 136.549 128.28 136.549 124.66C136.549 120.84 138.509 119.28 141.129 119.28C144.629 119.28 145.509 121.56 145.509 124.32C145.509 124.52 145.489 124.84 145.469 125.06H138.269V125.08C138.269 127.34 139.049 128.98 141.209 128.98C142.889 128.98 143.489 128.34 143.869 127.32L145.249 127.72C144.769 128.9 143.909 130.2 141.169 130.2ZM141.129 120.48C139.729 120.48 138.389 121.2 138.269 123.82H143.809V123.68C143.809 121.48 142.929 120.48 141.129 120.48ZM152.124 130.2C148.824 130.2 147.604 127.82 147.604 124.7C147.604 120.54 149.824 119.28 152.104 119.28C154.464 119.28 155.744 120.62 156.084 122.4L154.424 122.5C154.224 121.3 153.464 120.56 152.064 120.56C150.044 120.56 149.304 121.88 149.304 124.66C149.304 127.16 149.984 128.9 152.084 128.9C153.404 128.9 154.304 128.18 154.524 126.76L156.144 126.88C155.904 128.58 154.624 130.2 152.124 130.2ZM162.575 130.2C159.475 130.2 157.955 128.28 157.955 124.66C157.955 120.84 159.915 119.28 162.535 119.28C166.035 119.28 166.915 121.56 166.915 124.32C166.915 124.52 166.895 124.84 166.875 125.06H159.675V125.08C159.675 127.34 160.455 128.98 162.615 128.98C164.295 128.98 164.895 128.34 165.275 127.32L166.655 127.72C166.175 128.9 165.315 130.2 162.575 130.2ZM162.535 120.48C161.135 120.48 159.795 121.2 159.675 123.82H165.215V123.68C165.215 121.48 164.335 120.48 162.535 120.48ZM174.55 120.82C174.25 120.8 174.05 120.8 173.85 120.8C172.07 120.8 171.35 122.34 171.35 123.76V130H169.73V121.92L169.67 119.48H171.21L171.29 121.56C171.59 120.16 172.51 119.3 173.99 119.3C174.09 119.3 174.25 119.3 174.55 119.32V120.82ZM189.296 127.12C189.296 129.1 187.936 130.2 185.256 130.2C183.036 130.2 181.516 129.48 181.056 127.54L182.556 127.24C182.836 128.22 183.676 129 185.236 129C186.716 129 187.736 128.54 187.736 127.24C187.736 126.02 186.716 125.74 184.876 125.3C182.576 124.74 181.496 123.84 181.496 122.16C181.496 120.32 182.996 119.28 185.156 119.28C187.316 119.28 188.716 120.08 189.076 121.86L187.596 122.04C187.356 120.96 186.496 120.5 185.156 120.5C183.916 120.5 183.056 121.06 183.056 121.92C183.056 122.94 183.636 123.4 185.756 123.94C187.456 124.38 189.296 124.88 189.296 127.12ZM193.417 119.48V126.2C193.417 128.28 194.017 128.94 195.657 128.94C197.377 128.94 198.497 127.72 198.497 125.58V119.48H200.117V127.76C200.117 128.52 200.137 129.1 200.157 130H198.617L198.517 128.06C198.057 129.24 197.117 130.2 195.117 130.2C192.817 130.2 191.797 129.12 191.797 126.52V119.48H193.417ZM212.878 128.9V130.14C212.498 130.18 212.078 130.2 211.518 130.2C210.478 130.2 209.798 129.6 209.798 128.5V127.98C209.258 129.68 207.918 130.2 206.358 130.2C204.078 130.2 203.018 128.72 203.018 127.04C203.018 124.56 204.698 123.66 207.758 123.66H209.738V122.8C209.738 121.22 208.918 120.52 207.418 120.52C206.078 120.52 205.318 120.98 205.098 122.28L203.498 122.1C203.758 120.54 204.758 119.28 207.498 119.28C209.958 119.28 211.318 120.5 211.318 122.86V128.18C211.318 128.72 211.498 128.9 211.938 128.9H212.878ZM206.738 129C209.118 129 209.738 127.18 209.738 125.54V124.78H207.738C205.898 124.78 204.618 125.26 204.618 126.94C204.618 128.08 205.298 129 206.738 129ZM223.359 130.2C220.719 130.2 219.479 128.44 219.479 124.76C219.479 121.06 220.819 119.28 223.499 119.28C224.939 119.28 226.239 119.96 226.719 121.28C226.699 120.74 226.699 120.2 226.699 119.76V114.44H228.319V127.84C228.319 128.4 228.359 129.28 228.399 130H226.799C226.779 129.56 226.739 128.74 226.739 128C226.299 129.36 225.339 130.2 223.359 130.2ZM223.779 128.94C225.579 128.94 226.699 127.76 226.699 124.58C226.699 121.58 225.639 120.48 223.799 120.48C222.039 120.48 221.159 121.86 221.159 124.7C221.159 127.56 221.939 128.94 223.779 128.94ZM233.281 119.48V126.2C233.281 128.28 233.881 128.94 235.521 128.94C237.241 128.94 238.361 127.72 238.361 125.58V119.48H239.981V127.76C239.981 128.52 240.001 129.1 240.021 130H238.481L238.381 128.06C237.921 129.24 236.981 130.2 234.981 130.2C232.681 130.2 231.661 129.12 231.661 126.52V119.48H233.281ZM235.041 118.3V118.28L237.241 115.32H239.481V115.34L236.441 118.3H235.041ZM247.622 130H245.742L241.882 119.48H243.562L246.022 126.54C246.382 127.58 246.702 128.72 246.702 128.72C246.702 128.72 247.002 127.58 247.362 126.5L249.742 119.48H251.422L247.622 130ZM253.363 130V119.48H254.963V130H253.363ZM253.283 117.3V115.5H255.043V117.3H253.283ZM261.581 130.2C258.941 130.2 257.701 128.44 257.701 124.76C257.701 121.06 259.041 119.28 261.721 119.28C263.161 119.28 264.461 119.96 264.941 121.28C264.921 120.74 264.921 120.2 264.921 119.76V114.44H266.541V127.84C266.541 128.4 266.581 129.28 266.621 130H265.021C265.001 129.56 264.961 128.74 264.961 128C264.521 129.36 263.561 130.2 261.581 130.2ZM262.001 128.94C263.801 128.94 264.921 127.76 264.921 124.58C264.921 121.58 263.861 120.48 262.021 120.48C260.261 120.48 259.381 121.86 259.381 124.7C259.381 127.56 260.161 128.94 262.001 128.94ZM279.343 128.9V130.14C278.963 130.18 278.543 130.2 277.983 130.2C276.943 130.2 276.263 129.6 276.263 128.5V127.98C275.723 129.68 274.383 130.2 272.823 130.2C270.543 130.2 269.483 128.72 269.483 127.04C269.483 124.56 271.163 123.66 274.223 123.66H276.203V122.8C276.203 121.22 275.383 120.52 273.883 120.52C272.543 120.52 271.783 120.98 271.563 122.28L269.963 122.1C270.223 120.54 271.223 119.28 273.963 119.28C276.423 119.28 277.783 120.5 277.783 122.86V128.18C277.783 128.72 277.963 128.9 278.403 128.9H279.343ZM273.203 129C275.583 129 276.203 127.18 276.203 125.54V124.78H274.203C272.363 124.78 271.083 125.26 271.083 126.94C271.083 128.08 271.763 129 273.203 129ZM281.783 130V127.9H283.803V130H281.783Z" fill="black"/>
</svg>
