<svg width="367" height="172" viewBox="0 0 367 172" fill="none" xmlns="http://www.w3.org/2000/svg">
<path d="M87.3654 34.264C87.3654 31.576 86.3814 30.496 84.7974 30.496H83.7654V38.176H84.6774C86.4774 38.176 87.3654 37.216 87.3654 34.264ZM94.1334 34.216C94.1334 40.504 90.8454 43 84.9654 43H76.9974V25.84H85.0134C90.3894 25.84 94.1334 28.552 94.1334 34.216ZM102.611 43.24C97.1154 43.24 95.5314 39.76 95.5314 36.376C95.5314 31.432 98.7474 29.56 102.539 29.56C107.027 29.56 109.475 32.2 109.475 36.04C109.475 36.832 109.427 37.456 109.427 37.456H101.459V37.768C101.459 39.112 101.819 39.784 102.563 39.784C103.307 39.784 103.667 39.232 103.715 38.272L109.331 38.536C108.995 40.792 107.483 43.24 102.611 43.24ZM108.059 28.792V28.816H103.307L102.251 27.232L101.219 28.816H96.4434V28.792L100.163 24.064H104.243L108.059 28.792ZM101.459 34.648V34.912H103.643V34.696C103.643 33.04 103.163 32.776 102.539 32.776C101.939 32.776 101.459 33.112 101.459 34.648ZM132.183 37.648C132.183 41.536 129.111 43.24 124.023 43.24C117.927 43.24 116.343 39.976 116.247 37.72L122.199 37.36C122.343 38.32 122.799 39.088 124.239 39.088C124.983 39.088 125.463 38.872 125.463 38.296C125.463 37.72 124.911 37.36 123.039 36.928C118.647 35.92 116.679 34.312 116.679 30.904C116.679 27.616 119.031 25.6 124.023 25.6C128.871 25.6 130.959 27.736 131.415 30.592L125.367 31.024C125.271 30.208 124.863 29.608 123.879 29.608C123.279 29.608 122.847 29.872 122.847 30.28C122.847 30.976 123.447 31.216 125.895 31.912C129.783 33.016 132.183 33.832 132.183 37.648ZM140.346 43.24C134.85 43.24 133.266 39.76 133.266 36.376C133.266 31.432 136.482 29.56 140.274 29.56C144.762 29.56 147.21 32.2 147.21 36.04C147.21 36.832 147.162 37.456 147.162 37.456H139.194V37.768C139.194 39.112 139.554 39.784 140.298 39.784C141.042 39.784 141.402 39.232 141.45 38.272L147.066 38.536C146.73 40.792 145.218 43.24 140.346 43.24ZM139.194 34.648V34.912H141.378V34.696C141.378 33.04 140.898 32.776 140.274 32.776C139.674 32.776 139.194 33.112 139.194 34.648ZM154.69 29.824V37.432C154.69 38.08 154.786 38.8 155.53 38.8C156.466 38.8 156.61 37.864 156.61 36.16V29.824H162.442V39.856C162.442 40.96 162.466 41.704 162.514 43H157.09C156.994 42.016 156.898 41.176 156.85 40.312C156.346 42.688 154.306 43.24 152.89 43.24C149.362 43.24 148.786 40.576 148.786 39.088V29.824H154.69ZM176.529 30.328V32.416H181.761V36.616H176.529V43H169.833V25.84H182.265V30.328H176.529ZM190.9 43.24C185.404 43.24 183.82 39.76 183.82 36.376C183.82 31.432 187.036 29.56 190.828 29.56C195.316 29.56 197.764 32.2 197.764 36.04C197.764 36.832 197.716 37.456 197.716 37.456H189.748V37.768C189.748 39.112 190.108 39.784 190.852 39.784C191.596 39.784 191.956 39.232 192.004 38.272L197.62 38.536C197.284 40.792 195.772 43.24 190.9 43.24ZM189.748 34.648V34.912H191.932V34.696C191.932 33.04 191.452 32.776 190.828 32.776C190.228 32.776 189.748 33.112 189.748 34.648ZM206.205 43.24C200.709 43.24 199.125 39.76 199.125 36.376C199.125 31.432 202.341 29.56 206.133 29.56C210.621 29.56 213.069 32.2 213.069 36.04C213.069 36.832 213.021 37.456 213.021 37.456H205.053V37.768C205.053 39.112 205.413 39.784 206.157 39.784C206.901 39.784 207.261 39.232 207.309 38.272L212.925 38.536C212.589 40.792 211.077 43.24 206.205 43.24ZM205.053 34.648V34.912H207.237V34.696C207.237 33.04 206.757 32.776 206.133 32.776C205.533 32.776 205.053 33.112 205.053 34.648ZM219.158 43.24C214.814 43.24 214.358 39.4 214.358 36.256C214.358 31.624 215.942 29.56 219.182 29.56C221.054 29.56 222.158 30.496 222.59 31.48V29.32V24.016H228.566V39.904C228.566 40.624 228.614 42.184 228.662 43H222.926L222.734 40.888C222.374 42.256 221.27 43.24 219.158 43.24ZM221.462 39.328C222.254 39.328 222.614 38.608 222.614 36.304C222.614 34.6 222.422 33.472 221.462 33.472C220.742 33.472 220.358 34 220.358 36.256C220.358 38.56 220.646 39.328 221.462 39.328ZM244.675 36.328C244.675 40.912 243.235 43.24 240.067 43.24C238.387 43.24 236.995 42.928 236.323 40.792H236.299C236.251 41.464 236.203 42.256 236.131 43H230.443C230.491 41.488 230.491 40.624 230.491 39.568V24.304H236.467V31.48C236.875 30.28 238.171 29.56 239.971 29.56C242.947 29.56 244.675 31.6 244.675 36.328ZM238.699 36.28C238.699 34.024 238.315 33.496 237.595 33.496C236.635 33.496 236.443 34.624 236.443 36.328C236.443 38.632 236.803 39.352 237.595 39.352C238.411 39.352 238.699 38.584 238.699 36.28ZM260.593 39.496V43.12C259.657 43.192 258.769 43.24 257.665 43.24C255.553 43.24 254.209 42.592 253.945 40.792C253.465 42.448 252.025 43.24 250.009 43.24C246.625 43.24 245.641 41.104 245.641 39.328C245.641 36.328 247.969 35.08 252.169 35.08H253.465V34.288C253.465 33.232 253.105 33.016 252.529 33.016C251.953 33.016 251.569 33.28 251.473 34.456L246.289 34.096C246.433 31.768 248.017 29.56 252.745 29.56C257.233 29.56 259.105 31.384 259.105 34.792V38.752C259.105 39.16 259.249 39.496 259.777 39.496H260.593ZM253.489 38.248L253.465 37.456H252.649C251.641 37.456 251.233 37.936 251.233 38.608C251.233 39.208 251.593 39.712 252.313 39.712C253.153 39.712 253.489 39.184 253.489 38.248ZM268.311 43.24C263.679 43.24 261.303 40.552 261.303 36.376C261.303 32.056 263.631 29.56 268.335 29.56C272.871 29.56 275.103 32.104 275.103 35.56L269.559 35.704C269.511 34.192 269.271 33.448 268.407 33.448C267.591 33.448 267.255 34.072 267.255 36.208C267.255 38.32 267.543 39.352 268.431 39.352C269.127 39.352 269.511 38.992 269.583 37.456L275.103 37.552C275.007 40.768 272.967 43.24 268.311 43.24ZM284.325 43L282.549 37.912L282.237 38.2V43H276.357V24.016H282.237V35.056L284.565 29.824H290.517L287.397 35.872L290.661 43H284.325Z" fill="black"/>
<path d="M50.548 84.0615L4.00001 170L317.025 170L364 84.0615L317.025 2L4 2.00002L50.548 84.0615Z" stroke="#A318FF" stroke-width="4"/>
<path d="M78.7259 74.2C74.3259 74.2 72.0859 71.24 72.0859 67.08C72.0859 62.76 74.4859 60.08 78.7059 60.08C81.5859 60.08 83.5459 61.2 84.5059 63.46L82.8659 64C82.3059 62.64 81.0259 61.48 78.7259 61.48C75.5459 61.48 73.8259 63.68 73.8259 67.08C73.8259 70.46 75.6859 72.78 78.8059 72.78C80.9659 72.78 82.3459 71.64 83.2259 69.88L84.6259 70.58C83.6259 72.68 81.7459 74.2 78.7259 74.2ZM87.1209 74V58.44H88.7409V74H87.1209ZM101.462 72.9V74.14C101.082 74.18 100.662 74.2 100.102 74.2C99.0624 74.2 98.3824 73.6 98.3824 72.5V71.98C97.8424 73.68 96.5024 74.2 94.9424 74.2C92.6624 74.2 91.6024 72.72 91.6024 71.04C91.6024 68.56 93.2824 67.66 96.3424 67.66H98.3224V66.8C98.3224 65.22 97.5024 64.52 96.0024 64.52C94.6624 64.52 93.9024 64.98 93.6824 66.28L92.0824 66.1C92.3424 64.54 93.3424 63.28 96.0824 63.28C98.5424 63.28 99.9024 64.5 99.9024 66.86V72.18C99.9024 72.72 100.082 72.9 100.522 72.9H101.462ZM95.3224 73C97.7024 73 98.3224 71.18 98.3224 69.54V68.78H96.3224C94.4824 68.78 93.2024 69.26 93.2024 70.94C93.2024 72.08 93.8824 73 95.3224 73ZM111.103 71.12C111.103 73.1 109.743 74.2 107.063 74.2C104.843 74.2 103.323 73.48 102.863 71.54L104.363 71.24C104.643 72.22 105.483 73 107.043 73C108.523 73 109.543 72.54 109.543 71.24C109.543 70.02 108.523 69.74 106.683 69.3C104.383 68.74 103.303 67.84 103.303 66.16C103.303 64.32 104.803 63.28 106.963 63.28C109.123 63.28 110.523 64.08 110.883 65.86L109.403 66.04C109.163 64.96 108.303 64.5 106.963 64.5C105.723 64.5 104.863 65.06 104.863 65.92C104.863 66.94 105.443 67.4 107.563 67.94C109.263 68.38 111.103 68.88 111.103 71.12ZM121.044 71.12C121.044 73.1 119.684 74.2 117.004 74.2C114.784 74.2 113.264 73.48 112.804 71.54L114.304 71.24C114.584 72.22 115.424 73 116.984 73C118.464 73 119.484 72.54 119.484 71.24C119.484 70.02 118.464 69.74 116.624 69.3C114.324 68.74 113.244 67.84 113.244 66.16C113.244 64.32 114.744 63.28 116.904 63.28C119.064 63.28 120.464 64.08 120.824 65.86L119.344 66.04C119.104 64.96 118.244 64.5 116.904 64.5C115.664 64.5 114.804 65.06 114.804 65.92C114.804 66.94 115.384 67.4 117.504 67.94C119.204 68.38 121.044 68.88 121.044 71.12ZM123.685 74V63.48H125.285V74H123.685ZM123.605 61.3V59.5H125.365V61.3H123.605ZM127.823 64.7V63.48H129.343V60.36C129.343 59.1 130.083 58.32 131.363 58.32H132.983V59.68H131.523C131.043 59.68 130.923 59.94 130.923 60.4V63.48H133.003V64.7H130.923V74H129.303V64.7H127.823ZM135.541 74V63.48H137.141V74H135.541ZM135.461 61.3V59.5H137.221V61.3H135.461ZM143.779 74.2C141.079 74.2 139.879 72.38 139.879 68.76C139.879 65.08 141.179 63.28 143.779 63.28C145.579 63.28 146.519 63.94 147.119 65.24H147.139C147.139 64.84 147.199 64.1 147.239 63.48H148.779C148.759 64.38 148.719 65.52 148.719 66.24L148.739 78.64H147.119V72.66L147.139 72.22C146.459 73.6 145.459 74.2 143.779 74.2ZM144.199 72.94C145.819 72.94 147.099 72.06 147.099 68.58C147.099 65.44 145.979 64.48 144.199 64.48C142.379 64.48 141.579 65.76 141.579 68.7C141.579 71.64 142.319 72.94 144.199 72.94ZM153.661 63.48V70.2C153.661 72.28 154.261 72.94 155.901 72.94C157.621 72.94 158.741 71.72 158.741 69.58V63.48H160.361V71.76C160.361 72.52 160.381 73.1 160.401 74H158.861L158.761 72.06C158.301 73.24 157.361 74.2 155.361 74.2C153.061 74.2 152.041 73.12 152.041 70.52V63.48H153.661ZM167.683 74.2C164.583 74.2 163.063 72.28 163.063 68.66C163.063 64.84 165.023 63.28 167.643 63.28C171.143 63.28 172.023 65.56 172.023 68.32C172.023 68.52 172.003 68.84 171.983 69.06H164.783V69.08C164.783 71.34 165.563 72.98 167.723 72.98C169.403 72.98 170.003 72.34 170.383 71.32L171.763 71.72C171.283 72.9 170.423 74.2 167.683 74.2ZM167.643 64.48C166.243 64.48 164.903 65.2 164.783 67.82H170.323V67.68C170.323 65.48 169.443 64.48 167.643 64.48ZM189.177 72.9V74.14C188.797 74.18 188.377 74.2 187.817 74.2C186.777 74.2 186.097 73.6 186.097 72.5V71.98C185.557 73.68 184.217 74.2 182.657 74.2C180.377 74.2 179.317 72.72 179.317 71.04C179.317 68.56 180.997 67.66 184.057 67.66H186.037V66.8C186.037 65.22 185.217 64.52 183.717 64.52C182.377 64.52 181.617 64.98 181.397 66.28L179.797 66.1C180.057 64.54 181.057 63.28 183.797 63.28C186.257 63.28 187.617 64.5 187.617 66.86V72.18C187.617 72.72 187.797 72.9 188.237 72.9H189.177ZM183.037 73C185.417 73 186.037 71.18 186.037 69.54V68.78H184.037C182.197 68.78 180.917 69.26 180.917 70.94C180.917 72.08 181.597 73 183.037 73ZM198.817 71.12C198.817 73.1 197.457 74.2 194.777 74.2C192.557 74.2 191.037 73.48 190.577 71.54L192.077 71.24C192.357 72.22 193.197 73 194.757 73C196.237 73 197.257 72.54 197.257 71.24C197.257 70.02 196.237 69.74 194.397 69.3C192.097 68.74 191.017 67.84 191.017 66.16C191.017 64.32 192.517 63.28 194.677 63.28C196.837 63.28 198.237 64.08 198.597 65.86L197.117 66.04C196.877 64.96 196.017 64.5 194.677 64.5C193.437 64.5 192.577 65.06 192.577 65.92C192.577 66.94 193.157 67.4 195.277 67.94C196.977 68.38 198.817 68.88 198.817 71.12ZM211.259 64.82C210.959 64.8 210.759 64.8 210.559 64.8C208.779 64.8 208.059 66.34 208.059 67.76V74H206.439V65.92L206.379 63.48H207.919L207.999 65.56C208.299 64.16 209.219 63.3 210.699 63.3C210.799 63.3 210.959 63.3 211.259 63.32V64.82ZM217.39 74.2C214.29 74.2 212.77 72.28 212.77 68.66C212.77 64.84 214.73 63.28 217.35 63.28C220.85 63.28 221.73 65.56 221.73 68.32C221.73 68.52 221.71 68.84 221.69 69.06H214.49V69.08C214.49 71.34 215.27 72.98 217.43 72.98C219.11 72.98 219.71 72.34 220.09 71.32L221.47 71.72C220.99 72.9 220.13 74.2 217.39 74.2ZM217.35 64.48C215.95 64.48 214.61 65.2 214.49 67.82H220.03V67.68C220.03 65.48 219.15 64.48 217.35 64.48ZM231.864 71.12C231.864 73.1 230.504 74.2 227.824 74.2C225.604 74.2 224.084 73.48 223.624 71.54L225.124 71.24C225.404 72.22 226.244 73 227.804 73C229.284 73 230.304 72.54 230.304 71.24C230.304 70.02 229.284 69.74 227.444 69.3C225.144 68.74 224.064 67.84 224.064 66.16C224.064 64.32 225.564 63.28 227.724 63.28C229.884 63.28 231.284 64.08 231.644 65.86L230.164 66.04C229.924 64.96 229.064 64.5 227.724 64.5C226.484 64.5 225.624 65.06 225.624 65.92C225.624 66.94 226.204 67.4 228.324 67.94C230.024 68.38 231.864 68.88 231.864 71.12ZM243.326 68.68C243.326 71.94 242.346 74.2 239.446 74.2C237.806 74.2 236.586 73.6 236.066 72.1C236.086 72.58 236.106 73.34 236.106 73.76V78.64H234.486V65.72C234.486 64.64 234.466 64.2 234.426 63.48H236.006C236.026 64.02 236.066 64.9 236.066 65.58C236.466 64.16 237.606 63.28 239.446 63.28C242.306 63.28 243.326 65.36 243.326 68.68ZM241.646 68.7C241.646 65.98 240.966 64.52 239.026 64.52C237.406 64.52 236.106 65.32 236.106 68.82C236.106 71.9 237.146 73 239.006 73C240.986 73 241.646 71.5 241.646 68.7ZM252.968 68.62C252.968 65.56 251.888 64.48 250.008 64.48C248.188 64.48 247.028 65.48 247.028 68.62C247.028 71.86 248.388 73 249.988 73C251.808 73 252.968 71.88 252.968 68.62ZM254.668 68.7C254.668 72.46 252.888 74.2 249.908 74.2C247.208 74.2 245.328 72.52 245.328 68.66C245.328 65.02 247.068 63.28 250.028 63.28C253.128 63.28 254.668 65.06 254.668 68.7ZM264.52 71.12C264.52 73.1 263.16 74.2 260.48 74.2C258.26 74.2 256.74 73.48 256.28 71.54L257.78 71.24C258.06 72.22 258.9 73 260.46 73C261.94 73 262.96 72.54 262.96 71.24C262.96 70.02 261.94 69.74 260.1 69.3C257.8 68.74 256.72 67.84 256.72 66.16C256.72 64.32 258.22 63.28 260.38 63.28C262.54 63.28 263.94 64.08 264.3 65.86L262.82 66.04C262.58 64.96 261.72 64.5 260.38 64.5C259.14 64.5 258.28 65.06 258.28 65.92C258.28 66.94 258.86 67.4 260.98 67.94C262.68 68.38 264.52 68.88 264.52 71.12ZM266.222 64.7V63.48H267.482V60.42H269.102V63.48H271.082V64.7H269.102V71.8C269.102 72.46 269.322 72.82 270.102 72.82H271.262V74.18H269.302C268.142 74.18 267.482 73.3 267.482 72.14V64.7H266.222ZM283.318 72.9V74.14C282.938 74.18 282.518 74.2 281.958 74.2C280.918 74.2 280.238 73.6 280.238 72.5V71.98C279.698 73.68 278.358 74.2 276.798 74.2C274.518 74.2 273.458 72.72 273.458 71.04C273.458 68.56 275.138 67.66 278.198 67.66H280.178V66.8C280.178 65.22 279.358 64.52 277.858 64.52C276.518 64.52 275.758 64.98 275.538 66.28L273.938 66.1C274.198 64.54 275.198 63.28 277.938 63.28C280.398 63.28 281.758 64.5 281.758 66.86V72.18C281.758 72.72 281.938 72.9 282.378 72.9H283.318ZM277.178 73C279.558 73 280.178 71.18 280.178 69.54V68.78H278.178C276.338 68.78 275.058 69.26 275.058 70.94C275.058 72.08 275.738 73 277.178 73ZM292.958 71.12C292.958 73.1 291.598 74.2 288.918 74.2C286.698 74.2 285.178 73.48 284.718 71.54L286.218 71.24C286.498 72.22 287.338 73 288.898 73C290.378 73 291.398 72.54 291.398 71.24C291.398 70.02 290.378 69.74 288.538 69.3C286.238 68.74 285.158 67.84 285.158 66.16C285.158 64.32 286.658 63.28 288.818 63.28C290.978 63.28 292.378 64.08 292.738 65.86L291.258 66.04C291.018 64.96 290.158 64.5 288.818 64.5C287.578 64.5 286.718 65.06 286.718 65.92C286.718 66.94 287.298 67.4 289.418 67.94C291.118 68.38 292.958 68.88 292.958 71.12ZM304.479 74.2C301.379 74.2 299.859 72.28 299.859 68.66C299.859 64.84 301.819 63.28 304.439 63.28C307.939 63.28 308.819 65.56 308.819 68.32C308.819 68.52 308.799 68.84 308.779 69.06H301.579V69.08C301.579 71.34 302.359 72.98 304.519 72.98C306.199 72.98 306.799 72.34 307.179 71.32L308.559 71.72C308.079 72.9 307.219 74.2 304.479 74.2ZM304.439 64.48C303.039 64.48 301.699 65.2 301.579 67.82H307.119V67.68C307.119 65.48 306.239 64.48 304.439 64.48ZM99.882 93.2C97.242 93.2 96.002 91.44 96.002 87.76C96.002 84.06 97.342 82.28 100.022 82.28C101.462 82.28 102.762 82.96 103.242 84.28C103.222 83.74 103.222 83.2 103.222 82.76V77.44H104.842V90.84C104.842 91.4 104.882 92.28 104.922 93H103.322C103.302 92.56 103.262 91.74 103.262 91C102.822 92.36 101.862 93.2 99.882 93.2ZM100.302 91.94C102.102 91.94 103.222 90.76 103.222 87.58C103.222 84.58 102.162 83.48 100.322 83.48C98.562 83.48 97.682 84.86 97.682 87.7C97.682 90.56 98.462 91.94 100.302 91.94ZM112.204 93.2C109.104 93.2 107.584 91.28 107.584 87.66C107.584 83.84 109.544 82.28 112.164 82.28C115.664 82.28 116.544 84.56 116.544 87.32C116.544 87.52 116.524 87.84 116.504 88.06H109.304V88.08C109.304 90.34 110.084 91.98 112.244 91.98C113.924 91.98 114.524 91.34 114.904 90.32L116.284 90.72C115.804 91.9 114.944 93.2 112.204 93.2ZM112.164 83.48C110.764 83.48 109.424 84.2 109.304 86.82H114.844V86.68C114.844 84.48 113.964 83.48 112.164 83.48ZM119.379 93V82.48H120.979V93H119.379ZM119.299 80.3V78.5H121.059V80.3H119.299ZM130.477 93L127.577 88.6L124.677 93H122.917L126.657 87.6L123.097 82.48H124.897L127.577 86.64L130.257 82.48H132.057L128.497 87.58L132.277 93H130.477ZM138.102 93.2C135.002 93.2 133.482 91.28 133.482 87.66C133.482 83.84 135.442 82.28 138.062 82.28C141.562 82.28 142.442 84.56 142.442 87.32C142.442 87.52 142.422 87.84 142.402 88.06H135.202V88.08C135.202 90.34 135.982 91.98 138.142 91.98C139.822 91.98 140.422 91.34 140.802 90.32L142.182 90.72C141.702 91.9 140.842 93.2 138.102 93.2ZM138.062 83.48C136.662 83.48 135.322 84.2 135.202 86.82H140.742V86.68C140.742 84.48 139.862 83.48 138.062 83.48ZM151.757 82.48V89.2C151.757 91.28 152.357 91.94 153.997 91.94C155.717 91.94 156.837 90.72 156.837 88.58V82.48H158.457V90.76C158.457 91.52 158.477 92.1 158.497 93H156.957L156.857 91.06C156.397 92.24 155.457 93.2 153.457 93.2C151.157 93.2 150.137 92.12 150.137 89.52V82.48H151.757ZM167.998 93V86.26C167.998 84.14 167.458 83.5 165.998 83.5C164.598 83.5 163.478 84.76 163.478 86.9V93H161.858V84.7C161.858 83.96 161.838 83.1 161.818 82.48H163.318C163.318 82.9 163.358 83.76 163.358 84.54C163.798 83.26 164.718 82.28 166.538 82.28C168.438 82.28 169.198 83.14 169.418 84.44C170.018 82.94 171.318 82.28 172.658 82.28C174.778 82.28 175.698 83.3 175.698 85.94V93H174.098V86.26C174.098 84.14 173.578 83.54 172.098 83.54C170.598 83.54 169.598 84.7 169.598 86.9V93H167.998ZM187.827 93.2C184.527 93.2 183.307 90.82 183.307 87.7C183.307 83.54 185.527 82.28 187.807 82.28C190.167 82.28 191.447 83.62 191.787 85.4L190.127 85.5C189.927 84.3 189.167 83.56 187.767 83.56C185.747 83.56 185.007 84.88 185.007 87.66C185.007 90.16 185.687 91.9 187.787 91.9C189.107 91.9 190.007 91.18 190.227 89.76L191.847 89.88C191.607 91.58 190.327 93.2 187.827 93.2ZM201.298 87.62C201.298 84.56 200.218 83.48 198.338 83.48C196.518 83.48 195.358 84.48 195.358 87.62C195.358 90.86 196.718 92 198.318 92C200.138 92 201.298 90.88 201.298 87.62ZM202.998 87.7C202.998 91.46 201.218 93.2 198.238 93.2C195.538 93.2 193.658 91.52 193.658 87.66C193.658 84.02 195.398 82.28 198.358 82.28C201.458 82.28 202.998 84.06 202.998 87.7ZM211.846 93V86.26C211.846 84.14 211.306 83.5 209.846 83.5C208.446 83.5 207.326 84.76 207.326 86.9V93H205.706V84.7C205.706 83.96 205.686 83.1 205.666 82.48H207.166C207.166 82.9 207.206 83.76 207.206 84.54C207.646 83.26 208.566 82.28 210.386 82.28C212.286 82.28 213.046 83.14 213.266 84.44C213.866 82.94 215.166 82.28 216.506 82.28C218.626 82.28 219.546 83.3 219.546 85.94V93H217.946V86.26C217.946 84.14 217.426 83.54 215.946 83.54C214.446 83.54 213.446 84.7 213.446 86.9V93H211.846ZM226.774 93.2C223.674 93.2 222.154 91.28 222.154 87.66C222.154 83.84 224.114 82.28 226.734 82.28C230.234 82.28 231.114 84.56 231.114 87.32C231.114 87.52 231.094 87.84 231.074 88.06H223.874V88.08C223.874 90.34 224.654 91.98 226.814 91.98C228.494 91.98 229.094 91.34 229.474 90.32L230.854 90.72C230.374 91.9 229.514 93.2 226.774 93.2ZM226.734 83.48C225.334 83.48 223.994 84.2 223.874 86.82H229.414V86.68C229.414 84.48 228.534 83.48 226.734 83.48ZM240.609 93V86.26C240.609 84.18 239.969 83.52 238.349 83.52C236.649 83.52 235.529 84.74 235.529 86.92V93H233.909V84.74C233.909 84.04 233.869 82.48 233.869 82.48H235.369C235.369 83 235.409 83.76 235.409 84.54C235.889 83.12 236.889 82.28 238.809 82.28C241.089 82.28 242.229 83.34 242.229 85.96V93H240.609ZM244.63 83.7V82.48H245.89V79.42H247.51V82.48H249.49V83.7H247.51V90.8C247.51 91.46 247.73 91.82 248.51 91.82H249.67V93.18H247.71C246.55 93.18 245.89 92.3 245.89 91.14V83.7H244.63ZM261.726 91.9V93.14C261.346 93.18 260.926 93.2 260.366 93.2C259.326 93.2 258.646 92.6 258.646 91.5V90.98C258.106 92.68 256.766 93.2 255.206 93.2C252.926 93.2 251.866 91.72 251.866 90.04C251.866 87.56 253.546 86.66 256.606 86.66H258.586V85.8C258.586 84.22 257.766 83.52 256.266 83.52C254.926 83.52 254.166 83.98 253.946 85.28L252.346 85.1C252.606 83.54 253.606 82.28 256.346 82.28C258.806 82.28 260.166 83.5 260.166 85.86V91.18C260.166 91.72 260.346 91.9 260.786 91.9H261.726ZM255.586 92C257.966 92 258.586 90.18 258.586 88.54V87.78H256.586C254.746 87.78 253.466 88.26 253.466 89.94C253.466 91.08 254.146 92 255.586 92ZM255.546 81.3V81.28L257.746 78.32H259.986V78.34L256.946 81.3H255.546ZM268.866 83.82C268.566 83.8 268.366 83.8 268.166 83.8C266.386 83.8 265.666 85.34 265.666 86.76V93H264.046V84.92L263.986 82.48H265.526L265.606 84.56C265.906 83.16 266.826 82.3 268.306 82.3C268.406 82.3 268.566 82.3 268.866 82.32V83.82ZM271.312 93V82.48H272.912V93H271.312ZM271.232 80.3V78.5H272.992V80.3H271.232ZM283.29 87.62C283.29 84.56 282.21 83.48 280.33 83.48C278.51 83.48 277.35 84.48 277.35 87.62C277.35 90.86 278.71 92 280.31 92C282.13 92 283.29 90.88 283.29 87.62ZM284.99 87.7C284.99 91.46 283.21 93.2 280.23 93.2C277.53 93.2 275.65 91.52 275.65 87.66C275.65 84.02 277.39 82.28 280.35 82.28C283.45 82.28 284.99 84.06 284.99 87.7ZM88.0927 112.2C84.9927 112.2 83.4727 110.28 83.4727 106.66C83.4727 102.84 85.4327 101.28 88.0527 101.28C91.5527 101.28 92.4327 103.56 92.4327 106.32C92.4327 106.52 92.4127 106.84 92.3927 107.06H85.1927V107.08C85.1927 109.34 85.9727 110.98 88.1327 110.98C89.8127 110.98 90.4127 110.34 90.7927 109.32L92.1727 109.72C91.6927 110.9 90.8327 112.2 88.0927 112.2ZM88.0527 102.48C86.6527 102.48 85.3127 103.2 85.1927 105.82H90.7327V105.68C90.7327 103.48 89.8527 102.48 88.0527 102.48ZM101.287 112L98.3874 107.6L95.4874 112H93.7274L97.4674 106.6L93.9074 101.48H95.7074L98.3874 105.64L101.067 101.48H102.867L99.3074 106.58L103.087 112H101.287ZM114.048 106.68C114.048 109.94 113.068 112.2 110.168 112.2C108.528 112.2 107.308 111.6 106.788 110.1C106.808 110.58 106.828 111.34 106.828 111.76V116.64H105.208V103.72C105.208 102.64 105.188 102.2 105.148 101.48H106.728C106.748 102.02 106.788 102.9 106.788 103.58C107.188 102.16 108.328 101.28 110.168 101.28C113.028 101.28 114.048 103.36 114.048 106.68ZM112.368 106.7C112.368 103.98 111.688 102.52 109.748 102.52C108.128 102.52 106.828 103.32 106.828 106.82C106.828 109.9 107.868 111 109.728 111C111.708 111 112.368 109.5 112.368 106.7ZM116.711 112V96.44H118.331V112H116.711ZM121.732 112V101.48H123.332V112H121.732ZM121.652 99.3V97.5H123.412V99.3H121.652ZM130.59 112.2C127.29 112.2 126.07 109.82 126.07 106.7C126.07 102.54 128.29 101.28 130.57 101.28C132.93 101.28 134.21 102.62 134.55 104.4L132.89 104.5C132.69 103.3 131.93 102.56 130.53 102.56C128.51 102.56 127.77 103.88 127.77 106.66C127.77 109.16 128.45 110.9 130.55 110.9C131.87 110.9 132.77 110.18 132.99 108.76L134.61 108.88C134.37 110.58 133.09 112.2 130.59 112.2ZM146.482 110.9V112.14C146.102 112.18 145.682 112.2 145.122 112.2C144.082 112.2 143.402 111.6 143.402 110.5V109.98C142.862 111.68 141.522 112.2 139.962 112.2C137.682 112.2 136.622 110.72 136.622 109.04C136.622 106.56 138.302 105.66 141.362 105.66H143.342V104.8C143.342 103.22 142.522 102.52 141.022 102.52C139.682 102.52 138.922 102.98 138.702 104.28L137.102 104.1C137.362 102.54 138.362 101.28 141.102 101.28C143.562 101.28 144.922 102.5 144.922 104.86V110.18C144.922 110.72 145.102 110.9 145.542 110.9H146.482ZM140.342 111C142.722 111 143.342 109.18 143.342 107.54V106.78H141.342C139.502 106.78 138.222 107.26 138.222 108.94C138.222 110.08 138.902 111 140.342 111ZM155.482 112V105.26C155.482 103.18 154.842 102.52 153.222 102.52C151.522 102.52 150.402 103.74 150.402 105.92V112H148.782V103.74C148.782 103.04 148.742 101.48 148.742 101.48H150.242C150.242 102 150.282 102.76 150.282 103.54C150.762 102.12 151.762 101.28 153.682 101.28C155.962 101.28 157.102 102.34 157.102 104.96V112H155.482ZM163.583 112.2C160.943 112.2 159.703 110.44 159.703 106.76C159.703 103.06 161.043 101.28 163.723 101.28C165.163 101.28 166.463 101.96 166.943 103.28C166.923 102.74 166.923 102.2 166.923 101.76V96.44H168.543V109.84C168.543 110.4 168.583 111.28 168.623 112H167.023C167.003 111.56 166.963 110.74 166.963 110C166.523 111.36 165.563 112.2 163.583 112.2ZM164.003 110.94C165.803 110.94 166.923 109.76 166.923 106.58C166.923 103.58 165.863 102.48 164.023 102.48C162.263 102.48 161.383 103.86 161.383 106.7C161.383 109.56 162.163 110.94 164.003 110.94ZM178.925 106.62C178.925 103.56 177.845 102.48 175.965 102.48C174.145 102.48 172.985 103.48 172.985 106.62C172.985 109.86 174.345 111 175.945 111C177.765 111 178.925 109.88 178.925 106.62ZM180.625 106.7C180.625 110.46 178.845 112.2 175.865 112.2C173.165 112.2 171.285 110.52 171.285 106.66C171.285 103.02 173.025 101.28 175.985 101.28C179.085 101.28 180.625 103.06 180.625 106.7ZM197.193 106.68C197.193 109.94 196.213 112.2 193.313 112.2C191.673 112.2 190.453 111.6 189.933 110.1C189.953 110.58 189.973 111.34 189.973 111.76V116.64H188.353V103.72C188.353 102.64 188.333 102.2 188.293 101.48H189.873C189.893 102.02 189.933 102.9 189.933 103.58C190.333 102.16 191.473 101.28 193.313 101.28C196.173 101.28 197.193 103.36 197.193 106.68ZM195.513 106.7C195.513 103.98 194.833 102.52 192.893 102.52C191.273 102.52 189.973 103.32 189.973 106.82C189.973 109.9 191.013 111 192.873 111C194.853 111 195.513 109.5 195.513 106.7ZM206.835 106.62C206.835 103.56 205.755 102.48 203.875 102.48C202.055 102.48 200.895 103.48 200.895 106.62C200.895 109.86 202.255 111 203.855 111C205.675 111 206.835 109.88 206.835 106.62ZM208.535 106.7C208.535 110.46 206.755 112.2 203.775 112.2C201.075 112.2 199.195 110.52 199.195 106.66C199.195 103.02 200.935 101.28 203.895 101.28C206.995 101.28 208.535 103.06 208.535 106.7ZM216.083 102.82C215.783 102.8 215.583 102.8 215.383 102.8C213.603 102.8 212.883 104.34 212.883 105.76V112H211.263V103.92L211.203 101.48H212.743L212.823 103.56C213.123 102.16 214.043 101.3 215.523 101.3C215.623 101.3 215.783 101.3 216.083 101.32V102.82ZM221.494 112.2C218.794 112.2 217.594 110.38 217.594 106.76C217.594 103.08 218.894 101.28 221.494 101.28C223.294 101.28 224.234 101.94 224.834 103.24H224.854C224.854 102.84 224.914 102.1 224.954 101.48H226.494C226.474 102.38 226.434 103.52 226.434 104.24L226.454 116.64H224.834V110.66L224.854 110.22C224.174 111.6 223.174 112.2 221.494 112.2ZM221.914 110.94C223.534 110.94 224.814 110.06 224.814 106.58C224.814 103.44 223.694 102.48 221.914 102.48C220.094 102.48 219.294 103.76 219.294 106.7C219.294 109.64 220.034 110.94 221.914 110.94ZM231.376 101.48V108.2C231.376 110.28 231.976 110.94 233.616 110.94C235.336 110.94 236.456 109.72 236.456 107.58V101.48H238.076V109.76C238.076 110.52 238.096 111.1 238.116 112H236.576L236.476 110.06C236.016 111.24 235.076 112.2 233.076 112.2C230.776 112.2 229.756 111.12 229.756 108.52V101.48H231.376ZM245.397 112.2C242.297 112.2 240.777 110.28 240.777 106.66C240.777 102.84 242.737 101.28 245.357 101.28C248.857 101.28 249.737 103.56 249.737 106.32C249.737 106.52 249.717 106.84 249.697 107.06H242.497V107.08C242.497 109.34 243.277 110.98 245.437 110.98C247.117 110.98 247.717 110.34 248.097 109.32L249.477 109.72C248.997 110.9 248.137 112.2 245.397 112.2ZM245.357 102.48C243.957 102.48 242.617 103.2 242.497 105.82H248.037V105.68C248.037 103.48 247.157 102.48 245.357 102.48ZM261.772 112H259.892L256.032 101.48H257.712L260.172 108.54C260.532 109.58 260.852 110.72 260.852 110.72C260.852 110.72 261.152 109.58 261.512 108.5L263.892 101.48H265.572L261.772 112ZM274.413 106.62C274.413 103.56 273.333 102.48 271.453 102.48C269.633 102.48 268.473 103.48 268.473 106.62C268.473 109.86 269.833 111 271.433 111C273.253 111 274.413 109.88 274.413 106.62ZM276.113 106.7C276.113 110.46 274.333 112.2 271.353 112.2C268.653 112.2 266.773 110.52 266.773 106.66C266.773 103.02 268.513 101.28 271.473 101.28C274.573 101.28 276.113 103.06 276.113 106.7ZM282.641 112.2C279.341 112.2 278.121 109.82 278.121 106.7C278.121 102.54 280.341 101.28 282.621 101.28C284.981 101.28 286.261 102.62 286.601 104.4L284.941 104.5C284.741 103.3 283.981 102.56 282.581 102.56C280.561 102.56 279.821 103.88 279.821 106.66C279.821 109.16 280.501 110.9 282.601 110.9C283.921 110.9 284.821 110.18 285.041 108.76L286.661 108.88C286.421 110.58 285.141 112.2 282.641 112.2ZM293.093 112.2C289.993 112.2 288.473 110.28 288.473 106.66C288.473 102.84 290.433 101.28 293.053 101.28C296.553 101.28 297.433 103.56 297.433 106.32C297.433 106.52 297.413 106.84 297.393 107.06H290.193V107.08C290.193 109.34 290.973 110.98 293.133 110.98C294.813 110.98 295.413 110.34 295.793 109.32L297.173 109.72C296.693 110.9 295.833 112.2 293.093 112.2ZM293.053 102.48C291.653 102.48 290.313 103.2 290.193 105.82H295.733V105.68C295.733 103.48 294.853 102.48 293.053 102.48ZM296.353 100.28V100.3H294.833L293.093 98.66H293.073L291.213 100.3H289.653V100.28L292.093 97.52H294.053L296.353 100.28ZM53.7567 131.2C50.6567 131.2 49.1367 129.28 49.1367 125.66C49.1367 121.84 51.0967 120.28 53.7167 120.28C57.2167 120.28 58.0967 122.56 58.0967 125.32C58.0967 125.52 58.0767 125.84 58.0567 126.06H50.8567V126.08C50.8567 128.34 51.6367 129.98 53.7967 129.98C55.4767 129.98 56.0767 129.34 56.4567 128.32L57.8367 128.72C57.3567 129.9 56.4967 131.2 53.7567 131.2ZM53.7167 121.48C52.3167 121.48 50.9767 122.2 50.8567 124.82H56.3967V124.68C56.3967 122.48 55.5167 121.48 53.7167 121.48ZM68.2314 128.12C68.2314 130.1 66.8714 131.2 64.1914 131.2C61.9714 131.2 60.4514 130.48 59.9914 128.54L61.4914 128.24C61.7714 129.22 62.6114 130 64.1714 130C65.6514 130 66.6714 129.54 66.6714 128.24C66.6714 127.02 65.6514 126.74 63.8114 126.3C61.5114 125.74 60.4314 124.84 60.4314 123.16C60.4314 121.32 61.9314 120.28 64.0914 120.28C66.2514 120.28 67.6514 121.08 68.0114 122.86L66.5314 123.04C66.2914 121.96 65.4314 121.5 64.0914 121.5C62.8514 121.5 61.9914 122.06 61.9914 122.92C61.9914 123.94 62.5714 124.4 64.6914 124.94C66.3914 125.38 68.2314 125.88 68.2314 128.12ZM74.6528 131.2C71.3528 131.2 70.1328 128.82 70.1328 125.7C70.1328 121.54 72.3528 120.28 74.6328 120.28C76.9928 120.28 78.2728 121.62 78.6128 123.4L76.9528 123.5C76.7528 122.3 75.9928 121.56 74.5928 121.56C72.5728 121.56 71.8328 122.88 71.8328 125.66C71.8328 128.16 72.5128 129.9 74.6128 129.9C75.9328 129.9 76.8328 129.18 77.0528 127.76L78.6728 127.88C78.4328 129.58 77.1528 131.2 74.6528 131.2ZM88.1244 125.62C88.1244 122.56 87.0444 121.48 85.1644 121.48C83.3444 121.48 82.1844 122.48 82.1844 125.62C82.1844 128.86 83.5444 130 85.1444 130C86.9644 130 88.1244 128.88 88.1244 125.62ZM89.8244 125.7C89.8244 129.46 88.0444 131.2 85.0644 131.2C82.3644 131.2 80.4844 129.52 80.4844 125.66C80.4844 122.02 82.2244 120.28 85.1844 120.28C88.2844 120.28 89.8244 122.06 89.8244 125.7ZM92.492 131V115.44H94.112V131H92.492ZM99.0534 120.52C99.0534 121.16 99.0334 121.82 98.9934 122.36C99.5334 121 100.573 120.28 102.333 120.28C105.113 120.28 105.753 121.94 105.753 123.96V131H104.133V124.28C104.133 122.42 103.673 121.52 101.893 121.52C100.193 121.52 99.0534 122.7 99.0534 124.92V131H97.4334V115.44H99.0534V120.52ZM112.975 131.2C109.875 131.2 108.355 129.28 108.355 125.66C108.355 121.84 110.315 120.28 112.935 120.28C116.435 120.28 117.315 122.56 117.315 125.32C117.315 125.52 117.295 125.84 117.275 126.06H110.075V126.08C110.075 128.34 110.855 129.98 113.015 129.98C114.695 129.98 115.295 129.34 115.675 128.32L117.055 128.72C116.575 129.9 115.715 131.2 112.975 131.2ZM112.935 121.48C111.535 121.48 110.195 122.2 110.075 124.82H115.615V124.68C115.615 122.48 114.735 121.48 112.935 121.48ZM121.63 120.48V127.2C121.63 129.28 122.23 129.94 123.87 129.94C125.59 129.94 126.71 128.72 126.71 126.58V120.48H128.33V128.76C128.33 129.52 128.35 130.1 128.37 131H126.83L126.73 129.06C126.27 130.24 125.33 131.2 123.33 131.2C121.03 131.2 120.01 130.12 120.01 127.52V120.48H121.63ZM139.911 131.2C137.271 131.2 136.031 129.44 136.031 125.76C136.031 122.06 137.371 120.28 140.051 120.28C141.491 120.28 142.791 120.96 143.271 122.28C143.251 121.74 143.251 121.2 143.251 120.76V115.44H144.871V128.84C144.871 129.4 144.911 130.28 144.951 131H143.351C143.331 130.56 143.291 129.74 143.291 129C142.851 130.36 141.891 131.2 139.911 131.2ZM140.331 129.94C142.131 129.94 143.251 128.76 143.251 125.58C143.251 122.58 142.191 121.48 140.351 121.48C138.591 121.48 137.711 122.86 137.711 125.7C137.711 128.56 138.491 129.94 140.331 129.94ZM152.233 131.2C149.133 131.2 147.613 129.28 147.613 125.66C147.613 121.84 149.573 120.28 152.193 120.28C155.693 120.28 156.573 122.56 156.573 125.32C156.573 125.52 156.553 125.84 156.533 126.06H149.333V126.08C149.333 128.34 150.113 129.98 152.273 129.98C153.953 129.98 154.553 129.34 154.933 128.32L156.313 128.72C155.833 129.9 154.973 131.2 152.233 131.2ZM152.193 121.48C150.793 121.48 149.453 122.2 149.333 124.82H154.873V124.68C154.873 122.48 153.993 121.48 152.193 121.48ZM158.468 121.7V120.48H159.728V117.42H161.348V120.48H163.328V121.7H161.348V128.8C161.348 129.46 161.568 129.82 162.348 129.82H163.508V131.18H161.548C160.388 131.18 159.728 130.3 159.728 129.14V121.7H158.468ZM170.124 131.2C167.024 131.2 165.504 129.28 165.504 125.66C165.504 121.84 167.464 120.28 170.084 120.28C173.584 120.28 174.464 122.56 174.464 125.32C174.464 125.52 174.444 125.84 174.424 126.06H167.224V126.08C167.224 128.34 168.004 129.98 170.164 129.98C171.844 129.98 172.444 129.34 172.824 128.32L174.204 128.72C173.724 129.9 172.864 131.2 170.124 131.2ZM170.084 121.48C168.684 121.48 167.344 122.2 167.224 124.82H172.764V124.68C172.764 122.48 171.884 121.48 170.084 121.48ZM182.099 121.82C181.799 121.8 181.599 121.8 181.399 121.8C179.619 121.8 178.899 123.34 178.899 124.76V131H177.279V122.92L177.219 120.48H178.759L178.839 122.56C179.139 121.16 180.059 120.3 181.539 120.3C181.639 120.3 181.799 120.3 182.099 120.32V121.82ZM190.645 131V124.26C190.645 122.14 190.105 121.5 188.645 121.5C187.245 121.5 186.125 122.76 186.125 124.9V131H184.505V122.7C184.505 121.96 184.485 121.1 184.465 120.48H185.965C185.965 120.9 186.005 121.76 186.005 122.54C186.445 121.26 187.365 120.28 189.185 120.28C191.085 120.28 191.845 121.14 192.065 122.44C192.665 120.94 193.965 120.28 195.305 120.28C197.425 120.28 198.345 121.3 198.345 123.94V131H196.745V124.26C196.745 122.14 196.225 121.54 194.745 121.54C193.245 121.54 192.245 122.7 192.245 124.9V131H190.645ZM201.693 131V120.48H203.293V131H201.693ZM201.613 118.3V116.5H203.373V118.3H201.613ZM213.431 131V124.26C213.431 122.18 212.791 121.52 211.171 121.52C209.471 121.52 208.351 122.74 208.351 124.92V131H206.731V122.74C206.731 122.04 206.691 120.48 206.691 120.48H208.191C208.191 121 208.231 121.76 208.231 122.54C208.711 121.12 209.711 120.28 211.631 120.28C213.911 120.28 215.051 121.34 215.051 123.96V131H213.431ZM227.712 129.9V131.14C227.332 131.18 226.912 131.2 226.352 131.2C225.312 131.2 224.632 130.6 224.632 129.5V128.98C224.092 130.68 222.752 131.2 221.192 131.2C218.912 131.2 217.852 129.72 217.852 128.04C217.852 125.56 219.532 124.66 222.592 124.66H224.572V123.8C224.572 122.22 223.752 121.52 222.252 121.52C220.912 121.52 220.152 121.98 219.932 123.28L218.332 123.1C218.592 121.54 219.592 120.28 222.332 120.28C224.792 120.28 226.152 121.5 226.152 123.86V129.18C226.152 129.72 226.332 129.9 226.772 129.9H227.712ZM221.572 130C223.952 130 224.572 128.18 224.572 126.54V125.78H222.572C220.732 125.78 219.452 126.26 219.452 127.94C219.452 129.08 220.132 130 221.572 130ZM233.193 131.2C230.553 131.2 229.313 129.44 229.313 125.76C229.313 122.06 230.653 120.28 233.333 120.28C234.773 120.28 236.073 120.96 236.553 122.28C236.533 121.74 236.533 121.2 236.533 120.76V115.44H238.153V128.84C238.153 129.4 238.193 130.28 238.233 131H236.633C236.613 130.56 236.573 129.74 236.573 129C236.133 130.36 235.173 131.2 233.193 131.2ZM233.613 129.94C235.413 129.94 236.533 128.76 236.533 125.58C236.533 122.58 235.473 121.48 233.633 121.48C231.873 121.48 230.993 122.86 230.993 125.7C230.993 128.56 231.773 129.94 233.613 129.94ZM250.955 129.9V131.14C250.575 131.18 250.155 131.2 249.595 131.2C248.555 131.2 247.875 130.6 247.875 129.5V128.98C247.335 130.68 245.995 131.2 244.435 131.2C242.155 131.2 241.095 129.72 241.095 128.04C241.095 125.56 242.775 124.66 245.835 124.66H247.815V123.8C247.815 122.22 246.995 121.52 245.495 121.52C244.155 121.52 243.395 121.98 243.175 123.28L241.575 123.1C241.835 121.54 242.835 120.28 245.575 120.28C248.035 120.28 249.395 121.5 249.395 123.86V129.18C249.395 129.72 249.575 129.9 250.015 129.9H250.955ZM244.815 130C247.195 130 247.815 128.18 247.815 126.54V125.78H245.815C243.975 125.78 242.695 126.26 242.695 127.94C242.695 129.08 243.375 130 244.815 130ZM265.595 128.12C265.595 130.1 264.235 131.2 261.555 131.2C259.335 131.2 257.815 130.48 257.355 128.54L258.855 128.24C259.135 129.22 259.975 130 261.535 130C263.015 130 264.035 129.54 264.035 128.24C264.035 127.02 263.015 126.74 261.175 126.3C258.875 125.74 257.795 124.84 257.795 123.16C257.795 121.32 259.295 120.28 261.455 120.28C263.615 120.28 265.015 121.08 265.375 122.86L263.895 123.04C263.655 121.96 262.795 121.5 261.455 121.5C260.215 121.5 259.355 122.06 259.355 122.92C259.355 123.94 259.935 124.4 262.055 124.94C263.755 125.38 265.595 125.88 265.595 128.12ZM275.136 125.62C275.136 122.56 274.056 121.48 272.176 121.48C270.356 121.48 269.196 122.48 269.196 125.62C269.196 128.86 270.556 130 272.156 130C273.976 130 275.136 128.88 275.136 125.62ZM276.836 125.7C276.836 129.46 275.056 131.2 272.076 131.2C269.376 131.2 267.496 129.52 267.496 125.66C267.496 122.02 269.236 120.28 272.196 120.28C275.296 120.28 276.836 122.06 276.836 125.7ZM279.504 131V115.44H281.124V131H279.504ZM286.005 120.48V127.2C286.005 129.28 286.605 129.94 288.245 129.94C289.965 129.94 291.085 128.72 291.085 126.58V120.48H292.705V128.76C292.705 129.52 292.725 130.1 292.745 131H291.205L291.105 129.06C290.645 130.24 289.705 131.2 287.705 131.2C285.405 131.2 284.385 130.12 284.385 127.52V120.48H286.005ZM301.626 133.5C301.626 134.56 300.886 135.24 298.986 135.24C298.726 135.24 298.426 135.24 298.106 135.2V134.26C298.426 134.3 298.706 134.32 298.946 134.32C300.026 134.32 300.406 134 300.406 133.5C300.406 133.06 300.046 132.76 299.086 132.76C298.906 132.76 298.826 132.76 298.526 132.78L299.106 131.14C296.426 130.8 295.406 128.56 295.406 125.7C295.406 121.54 297.626 120.28 299.906 120.28C302.266 120.28 303.546 121.62 303.886 123.4L302.226 123.5C302.026 122.3 301.266 121.56 299.866 121.56C297.846 121.56 297.106 122.88 297.106 125.66C297.106 128.16 297.786 129.9 299.886 129.9C301.206 129.9 302.106 129.18 302.326 127.76L303.946 127.88C303.706 129.54 302.486 131.12 300.086 131.2L299.786 132C301.006 132.04 301.626 132.58 301.626 133.5ZM315.818 129.9V131.14C315.438 131.18 315.018 131.2 314.458 131.2C313.418 131.2 312.738 130.6 312.738 129.5V128.98C312.198 130.68 310.858 131.2 309.298 131.2C307.018 131.2 305.958 129.72 305.958 128.04C305.958 125.56 307.638 124.66 310.698 124.66H312.678V123.8C312.678 122.22 311.858 121.52 310.358 121.52C309.018 121.52 308.258 121.98 308.038 123.28L306.438 123.1C306.698 121.54 307.698 120.28 310.438 120.28C312.898 120.28 314.258 121.5 314.258 123.86V129.18C314.258 129.72 314.438 129.9 314.878 129.9H315.818ZM309.678 130C312.058 130 312.678 128.18 312.678 126.54V125.78H310.678C308.838 125.78 307.558 126.26 307.558 127.94C307.558 129.08 308.238 130 309.678 130ZM311.938 119.3C310.738 119.3 309.678 118.12 308.818 118.12C308.218 118.12 307.878 118.46 307.878 119.1V119.3H306.878V118.92C306.878 117.7 307.438 116.7 308.718 116.7C309.958 116.7 310.998 117.86 311.878 117.86C312.458 117.86 312.758 117.46 312.758 116.8V116.7H313.798V117.08C313.798 118.52 313.258 119.3 311.938 119.3ZM325.058 125.62C325.058 122.56 323.978 121.48 322.098 121.48C320.278 121.48 319.118 122.48 319.118 125.62C319.118 128.86 320.478 130 322.078 130C323.898 130 325.058 128.88 325.058 125.62ZM326.758 125.7C326.758 129.46 324.978 131.2 321.998 131.2C319.298 131.2 317.418 129.52 317.418 125.66C317.418 122.02 319.158 120.28 322.118 120.28C325.218 120.28 326.758 122.06 326.758 125.7ZM329 131V128.9H331.02V131H329Z" fill="black"/>
</svg>
