<svg width="1920" height="256" viewBox="0 0 1920 256" fill="none" xmlns="http://www.w3.org/2000/svg">
<line x1="-44" y1="130" x2="1956" y2="130" stroke="black" stroke-width="4"/>
<rect x="372" y="85" width="86" height="86" rx="23" fill="white" stroke="#A318FF" stroke-width="4"/>
<rect x="908" y="85" width="86" height="86" rx="23" fill="white" stroke="#A318FF" stroke-width="4"/>
<rect x="1444" y="85" width="86" height="86" rx="23" fill="white" stroke="#A318FF" stroke-width="4"/>
<line x1="417" y1="87.0059" x2="417" y2="0.000114441" stroke="#A318FF" stroke-width="4"/>
<path d="M952 256.006V169" stroke="#A318FF" stroke-width="4"/>
<line x1="1490" y1="87.0059" x2="1490" y2="0.000114441" stroke="#A318FF" stroke-width="4"/>
<path d="M411.708 151V119.576L402.748 126.04V112.92L414.524 105.24H425.66V151H411.708Z" fill="black"/>
<path d="M933.335 147V137.976C936.727 129.272 954.007 120.568 954.007 114.488C954.007 111.992 952.471 110.968 950.359 110.968C947.927 110.968 946.391 112.568 946.455 116.088L933.591 115C933.847 106.488 939.415 100.6 951.063 100.6C961.239 100.6 967.639 105.336 967.639 114.168C967.639 126.84 955.287 131.384 951.383 136.248H968.471V147H933.335Z" fill="black"/>
<path d="M1503.16 134.328C1503.16 142.712 1497.15 147.64 1485.31 147.64C1469.5 147.64 1467.71 138.36 1467.58 133.304L1480.44 132.344C1480.7 136.248 1482.94 137.272 1485.24 137.272C1487.93 137.272 1489.53 135.736 1489.53 133.112C1489.53 129.528 1487.29 128.312 1483.26 128.312H1480.32V119.608H1483C1487.1 119.608 1488.76 117.688 1488.76 114.488C1488.76 112.312 1487.55 110.84 1485.18 110.84C1483 110.84 1481.53 112.312 1481.6 115.064L1468.73 114.488C1469.37 104.568 1476.22 100.6 1485.95 100.6C1498.17 100.6 1502.01 106.872 1502.01 113.336C1502.01 118.136 1500.03 122.168 1494.97 123.448C1499.96 124.472 1503.16 128.824 1503.16 134.328Z" fill="black"/>
</svg>
